Truculenta-Condensed.ufo
<glyph name="exclam" format="2">
  <advance width="256"/>
  <unicode hex="0021"/>
  <outline>
    <contour>
      <point x="98" y="238" type="curve"/>
      <point x="158" y="240" type="line"/>
      <point x="158" y="240"/>
      <point x="160" y="349"/>
      <point x="161" y="425" type="curve"/>
      <point x="163" y="500"/>
      <point x="171" y="709"/>
      <point x="171" y="709" type="curve"/>
      <point x="85" y="704" type="line"/>
      <point x="85" y="704"/>
      <point x="91" y="533"/>
      <point x="94" y="423" type="curve"/>
      <point x="96" y="315"/>
      <point x="98" y="238"/>
    </contour>
    <contour>
      <point x="170" y="0" type="line"/>
      <point x="163" y="135" type="line"/>
      <point x="93" y="133" type="line"/>
      <point x="89" y="0" type="line"/>
    </contour>
  </outline>
</glyph>
<glyph name="quotedbl" format="2">
  <advance width="420"/>
  <unicode hex="0022"/>
  <outline>
    <contour>
      <point x="245" y="493" type="curve"/>
      <point x="310" y="503" type="line"/>
      <point x="310" y="503"/>
      <point x="317" y="574"/>
      <point x="326" y="615" type="curve" smooth="yes"/>
      <point x="332" y="657"/>
      <point x="345" y="701"/>
      <point x="345" y="701" type="curve"/>
      <point x="251" y="702" type="line"/>
      <point x="251" y="702"/>
      <point x="252" y="654"/>
      <point x="249" y="604" type="curve" smooth="yes"/>
      <point x="248" y="551"/>
      <point x="245" y="493"/>
    </contour>
    <contour>
      <point x="87" y="490" type="curve"/>
      <point x="151" y="505" type="line"/>
      <point x="151" y="505"/>
      <point x="152" y="577"/>
      <point x="157" y="618" type="curve" smooth="yes"/>
      <point x="160" y="661"/>
      <point x="169" y="706"/>
      <point x="169" y="706" type="curve"/>
      <point x="75" y="698" type="line"/>
      <point x="75" y="698"/>
      <point x="80" y="651"/>
      <point x="82" y="601" type="curve" smooth="yes"/>
      <point x="85" y="548"/>
      <point x="87" y="490"/>
    </contour>
  </outline>
</glyph>
<glyph name="numbersign" format="2">
  <advance width="710"/>
  <unicode hex="0023"/>
  <outline>
    <contour>
      <point x="109" y="-1" type="line"/>
      <point x="182" y="3" type="line"/>
      <point x="264" y="374" type="line"/>
      <point x="345" y="700" type="line"/>
      <point x="274" y="696" type="line"/>
      <point x="209" y="385" type="line"/>
    </contour>
    <contour>
      <point x="50" y="175" type="line"/>
      <point x="50" y="175"/>
      <point x="228" y="180"/>
      <point x="349" y="179" type="curve" smooth="yes"/>
      <point x="474" y="178"/>
      <point x="614" y="177"/>
      <point x="614" y="177" type="curve"/>
      <point x="610" y="240" type="line"/>
      <point x="610" y="240"/>
      <point x="469" y="237"/>
      <point x="352" y="237" type="curve" smooth="yes"/>
      <point x="240" y="237"/>
      <point x="52" y="240"/>
      <point x="52" y="240" type="curve"/>
    </contour>
    <contour>
      <point x="360" y="-2" type="line"/>
      <point x="433" y="1" type="line"/>
      <point x="512" y="363" type="line"/>
      <point x="593" y="686" type="line"/>
      <point x="522" y="687" type="line"/>
      <point x="460" y="385" type="line"/>
    </contour>
    <contour>
      <point x="100" y="462" type="line"/>
      <point x="100" y="462"/>
      <point x="279" y="467"/>
      <point x="400" y="466" type="curve" smooth="yes"/>
      <point x="524" y="465"/>
      <point x="660" y="463"/>
      <point x="660" y="463" type="curve"/>
      <point x="660" y="527" type="line"/>
      <point x="660" y="527"/>
      <point x="519" y="524"/>
      <point x="402" y="524" type="curve" smooth="yes"/>
      <point x="290" y="524"/>
      <point x="92" y="527"/>
      <point x="92" y="527" type="curve"/>
    </contour>
  </outline>
</glyph>
<glyph name="ampersand" format="2">
  <advance width="511"/>
  <unicode hex="0026"/>
  <outline>
    <contour>
      <point x="209" y="-10" type="curve" smooth="yes"/>
      <point x="359" y="-10"/>
      <point x="404" y="192"/>
      <point x="404" y="391" type="curve"/>
      <point x="341" y="398" type="line"/>
      <point x="341" y="265"/>
      <point x="307" y="49"/>
      <point x="218" y="49" type="curve" smooth="yes"/>
      <point x="190" y="49"/>
      <point x="133" y="69"/>
      <point x="133" y="192" type="curve" smooth="yes"/>
      <point x="133" y="292"/>
      <point x="180" y="337"/>
      <point x="231" y="386" type="curve" smooth="yes"/>
      <point x="278" y="431"/>
      <point x="335" y="486"/>
      <point x="335" y="580" type="curve" smooth="yes"/>
      <point x="335" y="671"/>
      <point x="284" y="702"/>
      <point x="229" y="702" type="curve" smooth="yes"/>
      <point x="176" y="702"/>
      <point x="113" y="667"/>
      <point x="113" y="563" type="curve" smooth="yes"/>
      <point x="113" y="428"/>
      <point x="181" y="287"/>
      <point x="296" y="69" type="curve" smooth="yes"/>
      <point x="331" y="0"/>
      <point x="397" y="-7"/>
      <point x="437" y="-7" type="curve"/>
      <point x="446" y="53" type="line"/>
      <point x="410" y="53"/>
      <point x="376" y="59"/>
      <point x="357" y="95" type="curve" smooth="yes"/>
      <point x="235" y="340"/>
      <point x="182" y="429"/>
      <point x="182" y="557" type="curve" smooth="yes"/>
      <point x="182" y="628"/>
      <point x="210" y="643"/>
      <point x="232" y="643" type="curve" smooth="yes"/>
      <point x="253" y="643"/>
      <point x="268" y="617"/>
      <point x="268" y="564" type="curve" smooth="yes"/>
      <point x="268" y="502"/>
      <point x="234" y="470"/>
      <point x="190" y="428" type="curve" smooth="yes"/>
      <point x="138" y="379"/>
      <point x="65" y="317"/>
      <point x="65" y="192" type="curve" smooth="yes"/>
      <point x="65" y="58"/>
      <point x="114" y="-10"/>
    </contour>
  </outline>
</glyph>
<glyph name="quotesingle" format="2">
  <advance width="244"/>
  <unicode hex="0027"/>
  <outline>
    <contour>
      <point x="87" y="490" type="curve"/>
      <point x="151" y="505" type="line"/>
      <point x="151" y="505"/>
      <point x="152" y="577"/>
      <point x="157" y="618" type="curve"/>
      <point x="160" y="661"/>
      <point x="169" y="706"/>
      <point x="169" y="706" type="curve"/>
      <point x="75" y="698" type="line"/>
      <point x="75" y="698"/>
      <point x="80" y="651"/>
      <point x="82" y="601" type="curve"/>
      <point x="85" y="548"/>
      <point x="87" y="490"/>
    </contour>
  </outline>
</glyph>
<glyph name="parenleft" format="2">
  <advance width="285"/>
  <unicode hex="0028"/>
  <outline>
    <contour>
      <point x="192" y="-140" type="curve"/>
      <point x="209" y="-88" type="line"/>
      <point x="135" y="-17"/>
      <point x="138" y="136"/>
      <point x="138" y="281" type="curve" smooth="yes"/>
      <point x="138" y="427"/>
      <point x="135" y="580"/>
      <point x="209" y="651" type="curve"/>
      <point x="192" y="703" type="line"/>
      <point x="114" y="673"/>
      <point x="75" y="579"/>
      <point x="75" y="281" type="curve" smooth="yes"/>
      <point x="75" y="-16"/>
      <point x="114" y="-110"/>
    </contour>
  </outline>
</glyph>
<glyph name="parenright" format="2">
  <advance width="285"/>
  <unicode hex="0029"/>
  <outline>
    <contour>
      <point x="92" y="703" type="curve"/>
      <point x="75" y="651" type="line"/>
      <point x="149" y="580"/>
      <point x="146" y="427"/>
      <point x="146" y="282" type="curve" smooth="yes"/>
      <point x="146" y="136"/>
      <point x="149" y="-17"/>
      <point x="75" y="-88" type="curve"/>
      <point x="92" y="-140" type="line"/>
      <point x="170" y="-110"/>
      <point x="209" y="-16"/>
      <point x="209" y="282" type="curve" smooth="yes"/>
      <point x="209" y="579"/>
      <point x="170" y="673"/>
    </contour>
  </outline>
</glyph>
<glyph name="comma" format="2">
  <advance width="251"/>
  <unicode hex="002C"/>
  <outline>
    <contour>
      <point x="129" y="-134" type="line"/>
      <point x="152" y="-96"/>
      <point x="166" y="-50"/>
      <point x="166" y="1" type="curve" smooth="yes"/>
      <point x="166" y="125" type="line"/>
      <point x="85" y="118" type="line"/>
      <point x="87" y="0" type="line"/>
      <point x="126" y="-3" type="line"/>
      <point x="126" y="-44"/>
      <point x="116" y="-79"/>
      <point x="94" y="-117" type="curve"/>
    </contour>
  </outline>
</glyph>
<glyph name="hyphen" format="2">
  <advance width="301"/>
  <unicode hex="002D"/>
  <outline>
    <contour>
      <point x="55" y="259" type="line"/>
      <point x="55" y="259"/>
      <point x="102" y="261"/>
      <point x="147" y="261" type="curve"/>
      <point x="190" y="261"/>
      <point x="246" y="259"/>
      <point x="246" y="259" type="curve"/>
      <point x="244" y="321" type="line"/>
      <point x="244" y="321"/>
      <point x="199" y="317"/>
      <point x="152" y="318" type="curve"/>
      <point x="104" y="319"/>
      <point x="59" y="321"/>
      <point x="59" y="321" type="curve"/>
    </contour>
  </outline>
</glyph>
<glyph name="slash" format="2">
  <advance width="275"/>
  <unicode hex="002F"/>
  <outline>
    <contour>
      <point x="23" y="-1" type="curve"/>
      <point x="90" y="0" type="line"/>
      <point x="90" y="0"/>
      <point x="134" y="197"/>
      <point x="167" y="340" type="curve"/>
      <point x="200" y="484"/>
      <point x="252" y="695"/>
      <point x="252" y="695" type="curve"/>
      <point x="184" y="697" type="line"/>
      <point x="184" y="697"/>
      <point x="145" y="485"/>
      <point x="111" y="339" type="curve"/>
      <point x="78" y="193"/>
      <point x="23" y="-1"/>
    </contour>
  </outline>
</glyph>
<glyph name="zero" format="2">
  <advance width="404"/>
  <unicode hex="0030"/>
  <outline>
    <contour>
      <point x="195" y="-10" type="curve" smooth="yes"/>
      <point x="334" y="-10"/>
      <point x="346" y="147"/>
      <point x="346" y="342" type="curve" smooth="yes"/>
      <point x="346" y="548"/>
      <point x="343" y="707"/>
      <point x="209" y="707" type="curve" smooth="yes"/>
      <point x="75" y="707"/>
      <point x="58" y="545"/>
      <point x="58" y="343" type="curve" smooth="yes"/>
      <point x="58" y="134"/>
      <point x="64" y="-10"/>
    </contour>
    <contour>
      <point x="199" y="45" type="curve" smooth="yes"/>
      <point x="127" y="45"/>
      <point x="122" y="162"/>
      <point x="122" y="338" type="curve" smooth="yes"/>
      <point x="122" y="468"/>
      <point x="128" y="649"/>
      <point x="206" y="649" type="curve" smooth="yes"/>
      <point x="283" y="649"/>
      <point x="284" y="480"/>
      <point x="284" y="353" type="curve" smooth="yes"/>
      <point x="284" y="199"/>
      <point x="277" y="45"/>
    </contour>
  </outline>
</glyph>
<glyph name="one" format="2">
  <advance width="245"/>
  <unicode hex="0031"/>
  <outline>
    <contour>
      <point x="108" y="0" type="curve"/>
      <point x="182" y="0" type="line"/>
      <point x="182" y="0"/>
      <point x="177" y="170"/>
      <point x="177" y="341" type="curve" smooth="yes"/>
      <point x="177" y="512"/>
      <point x="183" y="694"/>
      <point x="183" y="694" type="curve"/>
      <point x="148" y="694" type="line"/>
      <point x="111" y="619" type="line"/>
      <point x="112" y="543"/>
      <point x="113" y="419"/>
      <point x="113" y="342" type="curve" smooth="yes"/>
      <point x="113" y="226"/>
      <point x="108" y="0"/>
    </contour>
    <contour>
      <point x="24" y="588" type="line"/>
      <point x="62" y="588"/>
      <point x="110" y="597"/>
      <point x="142" y="609" type="curve"/>
      <point x="148" y="694" type="line"/>
      <point x="118" y="668"/>
      <point x="59" y="652"/>
      <point x="20" y="645" type="curve"/>
    </contour>
  </outline>
</glyph>
<glyph name="two" format="2">
  <advance width="378"/>
  <unicode hex="0032"/>
  <outline>
    <contour>
      <point x="98" y="40" type="line"/>
      <point x="184" y="122"/>
      <point x="318" y="351"/>
      <point x="318" y="518" type="curve" smooth="yes"/>
      <point x="318" y="643"/>
      <point x="263" y="700"/>
      <point x="193" y="700" type="curve" smooth="yes"/>
      <point x="134" y="700"/>
      <point x="53" y="670"/>
      <point x="53" y="535" type="curve" smooth="yes"/>
      <point x="53" y="495"/>
      <point x="56" y="451"/>
      <point x="59" y="423" type="curve"/>
      <point x="126" y="424" type="line"/>
      <point x="122" y="454"/>
      <point x="118" y="489"/>
      <point x="118" y="525" type="curve" smooth="yes"/>
      <point x="118" y="603"/>
      <point x="147" y="639"/>
      <point x="188" y="639" type="curve" smooth="yes"/>
      <point x="233" y="639"/>
      <point x="254" y="596"/>
      <point x="254" y="506" type="curve" smooth="yes"/>
      <point x="254" y="360"/>
      <point x="142" y="169"/>
      <point x="40" y="57" type="curve"/>
    </contour>
    <contour>
      <point x="38" y="-4" type="line"/>
      <point x="76" y="-2"/>
      <point x="138" y="-1"/>
      <point x="184" y="0" type="curve" smooth="yes"/>
      <point x="227" y="1"/>
      <point x="283" y="0"/>
      <point x="325" y="0" type="curve"/>
      <point x="324" y="64" type="line"/>
      <point x="291" y="60"/>
      <point x="238" y="59"/>
      <point x="195" y="58" type="curve" smooth="yes"/>
      <point x="150" y="57"/>
      <point x="92" y="57"/>
      <point x="40" y="57" type="curve"/>
    </contour>
  </outline>
</glyph>
<glyph name="three" format="2">
  <advance width="349"/>
  <unicode hex="0033"/>
  <outline>
    <contour>
      <point x="171" y="-10" type="curve"/>
      <point x="258" y="-10"/>
      <point x="308" y="45"/>
      <point x="306" y="147" type="curve"/>
      <point x="305" y="247"/>
      <point x="247" y="295"/>
      <point x="216" y="298" type="curve"/>
      <point x="279" y="332"/>
      <point x="300" y="407"/>
      <point x="300" y="502" type="curve" smooth="yes"/>
      <point x="300" y="636"/>
      <point x="256" y="697"/>
      <point x="167" y="697" type="curve" smooth="yes"/>
      <point x="107" y="697"/>
      <point x="37" y="658"/>
      <point x="39" y="543" type="curve"/>
      <point x="101" y="543" type="line"/>
      <point x="100" y="593"/>
      <point x="123" y="639"/>
      <point x="165" y="639" type="curve"/>
      <point x="220" y="639"/>
      <point x="236" y="590"/>
      <point x="236" y="496" type="curve" smooth="yes"/>
      <point x="236" y="376"/>
      <point x="185" y="323"/>
      <point x="135" y="323" type="curve"/>
      <point x="118" y="323"/>
      <point x="104" y="324"/>
      <point x="91" y="325" type="curve"/>
      <point x="93" y="262" type="line"/>
      <point x="106" y="264"/>
      <point x="127" y="264"/>
      <point x="140" y="264" type="curve"/>
      <point x="187" y="264"/>
      <point x="242" y="247"/>
      <point x="244" y="139" type="curve"/>
      <point x="245" y="85"/>
      <point x="224" y="48"/>
      <point x="172" y="48" type="curve"/>
      <point x="133" y="48"/>
      <point x="100" y="67"/>
      <point x="99" y="115" type="curve"/>
      <point x="38" y="114" type="line"/>
      <point x="39" y="52"/>
      <point x="73" y="-10"/>
    </contour>
  </outline>
</glyph>
<glyph name="four" format="2">
  <advance width="375"/>
  <unicode hex="0034"/>
  <outline>
    <contour>
      <point x="83" y="177" type="line"/>
      <point x="83" y="177"/>
      <point x="110" y="286"/>
      <point x="158" y="435" type="curve" smooth="yes"/>
      <point x="179" y="499"/>
      <point x="201" y="577"/>
      <point x="218" y="624" type="curve"/>
      <point x="236" y="673"/>
      <point x="279" y="696"/>
      <point x="279" y="696" type="curve"/>
      <point x="179" y="700" type="line"/>
      <point x="179" y="700"/>
      <point x="136" y="552"/>
      <point x="104" y="444" type="curve" smooth="yes"/>
      <point x="77" y="353"/>
      <point x="26" y="209"/>
      <point x="26" y="209" type="curve"/>
    </contour>
    <contour>
      <point x="41" y="146" type="line"/>
      <point x="41" y="146"/>
      <point x="124" y="150"/>
      <point x="186" y="151" type="curve" smooth="yes"/>
      <point x="251" y="152"/>
      <point x="346" y="151"/>
      <point x="346" y="151" type="curve"/>
      <point x="346" y="216" type="line"/>
      <point x="346" y="216"/>
      <point x="254" y="210"/>
      <point x="185" y="207" type="curve" smooth="yes"/>
      <point x="118" y="205"/>
      <point x="26" y="209"/>
      <point x="26" y="209" type="curve"/>
    </contour>
    <contour>
      <point x="208" y="-3" type="curve"/>
      <point x="278" y="0" type="line"/>
      <point x="278" y="0"/>
      <point x="275" y="207"/>
      <point x="275" y="378" type="curve" smooth="yes"/>
      <point x="275" y="549"/>
      <point x="279" y="696"/>
      <point x="279" y="696" type="curve"/>
      <point x="209" y="687" type="line"/>
      <point x="209" y="687"/>
      <point x="212" y="497"/>
      <point x="212" y="380" type="curve" smooth="yes"/>
      <point x="212" y="264"/>
      <point x="208" y="-3"/>
    </contour>
  </outline>
</glyph>
<glyph name="five" format="2">
  <advance width="369"/>
  <unicode hex="0035"/>
  <outline>
    <contour>
      <point x="178" y="-10" type="curve"/>
      <point x="259" y="-10"/>
      <point x="331" y="40"/>
      <point x="331" y="223" type="curve"/>
      <point x="331" y="324"/>
      <point x="306" y="444"/>
      <point x="202" y="444" type="curve"/>
      <point x="161" y="444"/>
      <point x="121" y="402"/>
      <point x="106" y="382" type="curve"/>
      <point x="116" y="301" type="line"/>
      <point x="124" y="336"/>
      <point x="152" y="383"/>
      <point x="194" y="383" type="curve"/>
      <point x="247" y="383"/>
      <point x="267" y="313"/>
      <point x="267" y="235" type="curve"/>
      <point x="267" y="88"/>
      <point x="226" y="50"/>
      <point x="180" y="50" type="curve"/>
      <point x="130" y="50"/>
      <point x="106" y="71"/>
      <point x="106" y="151" type="curve"/>
      <point x="43" y="147" type="line"/>
      <point x="43" y="27"/>
      <point x="107" y="-10"/>
    </contour>
    <contour>
      <point x="116" y="301" type="line"/>
      <point x="116" y="301"/>
      <point x="123" y="426"/>
      <point x="126" y="502" type="curve"/>
      <point x="128" y="583"/>
      <point x="134" y="696"/>
      <point x="134" y="696" type="curve"/>
      <point x="64" y="702" type="line"/>
      <point x="64" y="702"/>
      <point x="66" y="590"/>
      <point x="64" y="505" type="curve"/>
      <point x="62" y="422"/>
      <point x="54" y="297"/>
      <point x="54" y="297" type="curve"/>
    </contour>
    <contour>
      <point x="87" y="636" type="line"/>
      <point x="87" y="636"/>
      <point x="140" y="639"/>
      <point x="192" y="639" type="curve"/>
      <point x="240" y="639"/>
      <point x="305" y="637"/>
      <point x="305" y="637" type="curve"/>
      <point x="309" y="697" type="line"/>
      <point x="309" y="697"/>
      <point x="243" y="697"/>
      <point x="190" y="698" type="curve"/>
      <point x="136" y="699"/>
      <point x="64" y="701"/>
      <point x="64" y="701" type="curve"/>
    </contour>
  </outline>
</glyph>
<glyph name="six" format="2">
  <advance width="386"/>
  <unicode hex="0036"/>
  <outline>
    <contour>
      <point x="201" y="-10" type="curve"/>
      <point x="275" y="-10"/>
      <point x="334" y="50"/>
      <point x="334" y="183" type="curve"/>
      <point x="334" y="312"/>
      <point x="294" y="385"/>
      <point x="206" y="385" type="curve"/>
      <point x="139" y="385"/>
      <point x="107" y="340"/>
      <point x="93" y="302" type="curve"/>
      <point x="117" y="213" type="line"/>
      <point x="117" y="287"/>
      <point x="157" y="324"/>
      <point x="204" y="324" type="curve"/>
      <point x="250" y="324"/>
      <point x="271" y="270"/>
      <point x="271" y="191" type="curve"/>
      <point x="271" y="88"/>
      <point x="239" y="50"/>
      <point x="200" y="50" type="curve"/>
      <point x="115" y="50"/>
      <point x="117" y="167"/>
      <point x="117" y="300" type="curve" smooth="yes"/>
      <point x="117" y="484"/>
      <point x="126" y="655"/>
      <point x="212" y="655" type="curve" smooth="yes"/>
      <point x="247" y="655"/>
      <point x="264" y="611"/>
      <point x="264" y="546" type="curve" smooth="yes"/>
      <point x="264" y="526"/>
      <point x="263" y="505"/>
      <point x="260" y="482" type="curve"/>
      <point x="323" y="484" type="line"/>
      <point x="328" y="511"/>
      <point x="329" y="531"/>
      <point x="329" y="557" type="curve" smooth="yes"/>
      <point x="329" y="623"/>
      <point x="303" y="713"/>
      <point x="218" y="713" type="curve" smooth="yes"/>
      <point x="101" y="713"/>
      <point x="53" y="622"/>
      <point x="53" y="321" type="curve"/>
      <point x="53" y="76"/>
      <point x="91" y="-10"/>
    </contour>
  </outline>
</glyph>
<glyph name="seven" format="2">
  <advance width="301"/>
  <unicode hex="0037"/>
  <outline>
    <contour>
      <point x="79" y="-1" type="curve"/>
      <point x="155" y="0" type="line"/>
      <point x="148" y="114"/>
      <point x="153" y="274"/>
      <point x="182" y="386" type="curve" smooth="yes"/>
      <point x="204" y="469"/>
      <point x="248" y="572"/>
      <point x="275" y="627" type="curve"/>
      <point x="275" y="700" type="line"/>
      <point x="222" y="662"/>
      <point x="163" y="519"/>
      <point x="130" y="412" type="curve" smooth="yes"/>
      <point x="93" y="293"/>
      <point x="79" y="107"/>
    </contour>
    <contour>
      <point x="22" y="633" type="line"/>
      <point x="48" y="634"/>
      <point x="96" y="635"/>
      <point x="130" y="635" type="curve"/>
      <point x="164" y="635"/>
      <point x="229" y="636"/>
      <point x="268" y="637" type="curve"/>
      <point x="275" y="700" type="line"/>
      <point x="239" y="699"/>
      <point x="179" y="697"/>
      <point x="143" y="698" type="curve"/>
      <point x="107" y="699"/>
      <point x="52" y="700"/>
      <point x="21" y="700" type="curve"/>
    </contour>
  </outline>
</glyph>
<glyph name="eight" format="2">
  <advance width="368"/>
  <unicode hex="0038"/>
  <outline>
    <contour>
      <point x="176" y="274" type="curve"/>
      <point x="256" y="274"/>
      <point x="315" y="330"/>
      <point x="315" y="481" type="curve"/>
      <point x="315" y="623"/>
      <point x="283" y="707"/>
      <point x="188" y="707" type="curve"/>
      <point x="87" y="707"/>
      <point x="53" y="608"/>
      <point x="53" y="471" type="curve"/>
      <point x="53" y="345"/>
      <point x="106" y="274"/>
    </contour>
    <contour>
      <point x="175" y="-10" type="curve"/>
      <point x="268" y="-10"/>
      <point x="331" y="34"/>
      <point x="331" y="155" type="curve"/>
      <point x="331" y="253"/>
      <point x="295" y="330"/>
      <point x="189" y="330" type="curve"/>
      <point x="74" y="330"/>
      <point x="37" y="241"/>
      <point x="37" y="147" type="curve"/>
      <point x="37" y="46"/>
      <point x="92" y="-10"/>
    </contour>
    <contour>
      <point x="184" y="45" type="curve"/>
      <point x="128" y="45"/>
      <point x="99" y="78"/>
      <point x="99" y="156" type="curve"/>
      <point x="99" y="236"/>
      <point x="136" y="274"/>
      <point x="184" y="274" type="curve"/>
      <point x="233" y="274"/>
      <point x="269" y="243"/>
      <point x="269" y="150" type="curve"/>
      <point x="269" y="78"/>
      <point x="245" y="45"/>
    </contour>
    <contour>
      <point x="184" y="330" type="curve"/>
      <point x="141" y="330"/>
      <point x="117" y="385"/>
      <point x="117" y="483" type="curve"/>
      <point x="117" y="601"/>
      <point x="142" y="646"/>
      <point x="187" y="646" type="curve"/>
      <point x="232" y="646"/>
      <point x="252" y="611"/>
      <point x="252" y="476" type="curve"/>
      <point x="252" y="385"/>
      <point x="227" y="330"/>
    </contour>
  </outline>
</glyph>
<glyph name="nine" format="2">
  <advance width="380"/>
  <unicode hex="0039"/>
  <outline>
    <contour>
      <point x="164" y="-10" type="curve"/>
      <point x="284" y="-10"/>
      <point x="327" y="72"/>
      <point x="327" y="380" type="curve"/>
      <point x="327" y="624"/>
      <point x="293" y="709"/>
      <point x="183" y="709" type="curve"/>
      <point x="109" y="709"/>
      <point x="46" y="640"/>
      <point x="46" y="490" type="curve"/>
      <point x="46" y="358"/>
      <point x="86" y="261"/>
      <point x="174" y="261" type="curve"/>
      <point x="246" y="261"/>
      <point x="281" y="324"/>
      <point x="287" y="362" type="curve"/>
      <point x="263" y="470" type="line"/>
      <point x="263" y="396"/>
      <point x="241" y="321"/>
      <point x="179" y="321" type="curve"/>
      <point x="125" y="321"/>
      <point x="109" y="400"/>
      <point x="109" y="482" type="curve"/>
      <point x="109" y="602"/>
      <point x="141" y="653"/>
      <point x="185" y="653" type="curve"/>
      <point x="272" y="653"/>
      <point x="263" y="525"/>
      <point x="263" y="331" type="curve" smooth="yes"/>
      <point x="263" y="191"/>
      <point x="257" y="48"/>
      <point x="171" y="48" type="curve"/>
      <point x="128" y="48"/>
      <point x="114" y="79"/>
      <point x="114" y="129" type="curve"/>
      <point x="114" y="145"/>
      <point x="115" y="171"/>
      <point x="118" y="183" type="curve"/>
      <point x="56" y="181" type="line"/>
      <point x="52" y="162"/>
      <point x="51" y="144"/>
      <point x="51" y="117" type="curve"/>
      <point x="51" y="31"/>
      <point x="104" y="-10"/>
    </contour>
  </outline>
</glyph>
<glyph name="colon" format="2">
  <advance width="246"/>
  <unicode hex="003A"/>
  <outline>
    <contour>
      <point x="161" y="0" type="line"/>
      <point x="161" y="138" type="line"/>
      <point x="85" y="131" type="line"/>
      <point x="88" y="0" type="line"/>
    </contour>
    <contour>
      <point x="161" y="383" type="line"/>
      <point x="161" y="520" type="line"/>
      <point x="85" y="513" type="line"/>
      <point x="88" y="383" type="line"/>
    </contour>
  </outline>
</glyph>
<glyph name="equal" format="2">
  <advance width="374"/>
  <unicode hex="003D"/>
  <outline>
    <contour>
      <point x="56" y="189" type="line"/>
      <point x="56" y="189"/>
      <point x="136" y="192"/>
      <point x="188" y="193" type="curve"/>
      <point x="243" y="194"/>
      <point x="312" y="192"/>
      <point x="312" y="192" type="curve"/>
      <point x="319" y="254" type="line"/>
      <point x="319" y="254"/>
      <point x="241" y="251"/>
      <point x="183" y="250" type="curve"/>
      <point x="126" y="248"/>
      <point x="55" y="252"/>
      <point x="55" y="252" type="curve"/>
    </contour>
    <contour>
      <point x="56" y="325" type="line"/>
      <point x="56" y="325"/>
      <point x="136" y="328"/>
      <point x="188" y="329" type="curve"/>
      <point x="243" y="329"/>
      <point x="312" y="328"/>
      <point x="312" y="328" type="curve"/>
      <point x="314" y="390" type="line"/>
      <point x="314" y="390"/>
      <point x="247" y="387"/>
      <point x="188" y="385" type="curve"/>
      <point x="132" y="383"/>
      <point x="64" y="387"/>
      <point x="64" y="387" type="curve"/>
    </contour>
  </outline>
</glyph>
<glyph name="question" format="2">
  <advance width="415"/>
  <unicode hex="003F"/>
  <outline>
    <contour>
      <point x="235" y="215" type="line"/>
      <point x="231" y="235"/>
      <point x="228" y="251"/>
      <point x="228" y="276" type="curve" smooth="yes"/>
      <point x="228" y="323"/>
      <point x="249" y="349"/>
      <point x="273" y="378" type="curve" smooth="yes"/>
      <point x="304" y="417"/>
      <point x="340" y="463"/>
      <point x="340" y="571" type="curve" smooth="yes"/>
      <point x="340" y="667"/>
      <point x="284" y="715"/>
      <point x="215" y="715" type="curve" smooth="yes"/>
      <point x="155" y="715"/>
      <point x="75" y="695"/>
      <point x="75" y="560" type="curve" smooth="yes"/>
      <point x="75" y="520"/>
      <point x="79" y="483"/>
      <point x="86" y="456" type="curve"/>
      <point x="150" y="455" type="line"/>
      <point x="144" y="485"/>
      <point x="140" y="514"/>
      <point x="140" y="551" type="curve" smooth="yes"/>
      <point x="140" y="629"/>
      <point x="168" y="654"/>
      <point x="209" y="654" type="curve" smooth="yes"/>
      <point x="254" y="654"/>
      <point x="276" y="610"/>
      <point x="276" y="569" type="curve" smooth="yes"/>
      <point x="276" y="488"/>
      <point x="248" y="447"/>
      <point x="220" y="410" type="curve" smooth="yes"/>
      <point x="192" y="374"/>
      <point x="165" y="342"/>
      <point x="165" y="282" type="curve" smooth="yes"/>
      <point x="165" y="257"/>
      <point x="168" y="231"/>
      <point x="171" y="216" type="curve"/>
    </contour>
    <contour>
      <point x="248" y="-3" type="line"/>
      <point x="239" y="128" type="line"/>
      <point x="169" y="126" type="line"/>
      <point x="168" y="0" type="line"/>
    </contour>
  </outline>
</glyph>
<glyph name="A" format="2">
  <advance width="341"/>
  <unicode hex="0041"/>
  <anchor x="166" y="0" name="bottom"/>
  <anchor x="310" y="0" name="ogonek"/>
  <anchor x="171" y="693" name="top"/>
  <outline>
    <contour>
      <point x="260" y="-6" type="curve"/>
      <point x="336" y="-1" type="line"/>
      <point x="315" y="114"/>
      <point x="293" y="238"/>
      <point x="274" y="361" type="curve" smooth="yes"/>
      <point x="255" y="478"/>
      <point x="238" y="594"/>
      <point x="225" y="704" type="curve"/>
      <point x="117" y="702" type="line"/>
      <point x="166" y="642" type="line"/>
      <point x="181" y="555"/>
      <point x="196" y="456"/>
      <point x="212" y="348" type="curve" smooth="yes"/>
      <point x="228" y="238"/>
      <point x="244" y="120"/>
    </contour>
    <contour>
      <point x="68" y="164" type="line"/>
      <point x="264" y="171" type="line"/>
      <point x="264" y="224" type="line"/>
      <point x="68" y="228" type="line"/>
    </contour>
    <contour>
      <point x="75" y="5" type="line"/>
      <point x="91" y="117"/>
      <point x="109" y="237"/>
      <point x="126" y="352" type="curve" smooth="yes"/>
      <point x="142" y="455"/>
      <point x="158" y="553"/>
      <point x="172" y="636" type="curve"/>
      <point x="225" y="704" type="line"/>
      <point x="117" y="702" type="line"/>
      <point x="107" y="619"/>
      <point x="87" y="487"/>
      <point x="65" y="354" type="curve" smooth="yes"/>
      <point x="44" y="224"/>
      <point x="21" y="93"/>
      <point x="5" y="6" type="curve"/>
    </contour>
  </outline>
</glyph>
<glyph name="B" format="2">
  <advance width="372"/>
  <unicode hex="0042"/>
  <outline>
    <contour>
      <point x="118" y="213" type="line"/>
      <point x="267" y="213"/>
      <point x="334" y="276"/>
      <point x="334" y="472" type="curve"/>
      <point x="334" y="669"/>
      <point x="285" y="719"/>
      <point x="178" y="719" type="curve"/>
      <point x="131" y="719"/>
      <point x="97" y="716"/>
      <point x="65" y="713" type="curve"/>
      <point x="88" y="652" type="line"/>
      <point x="113" y="658"/>
      <point x="129" y="661"/>
      <point x="185" y="661" type="curve"/>
      <point x="244" y="661"/>
      <point x="271" y="616"/>
      <point x="271" y="469" type="curve"/>
      <point x="271" y="303"/>
      <point x="219" y="260"/>
      <point x="114" y="260" type="curve"/>
    </contour>
    <contour>
      <point x="185" y="-10" type="curve"/>
      <point x="279" y="-10"/>
      <point x="341" y="34"/>
      <point x="341" y="124" type="curve"/>
      <point x="341" y="217"/>
      <point x="274" y="260"/>
      <point x="114" y="260" type="curve"/>
      <point x="118" y="206" type="line"/>
      <point x="132" y="207"/>
      <point x="155" y="206"/>
      <point x="166" y="206" type="curve" smooth="yes"/>
      <point x="263" y="203"/>
      <point x="278" y="173"/>
      <point x="278" y="126" type="curve" smooth="yes"/>
      <point x="278" y="76"/>
      <point x="251" y="48"/>
      <point x="188" y="48" type="curve"/>
      <point x="162" y="48"/>
      <point x="121" y="53"/>
      <point x="96" y="56" type="curve"/>
      <point x="62" y="-6" type="line"/>
      <point x="94" y="-9"/>
      <point x="138" y="-10"/>
    </contour>
    <contour>
      <point x="62" y="-6" type="curve"/>
      <point x="132" y="4" type="line"/>
      <point x="132" y="4"/>
      <point x="127" y="218"/>
      <point x="127" y="335" type="curve" smooth="yes"/>
      <point x="127" y="451"/>
      <point x="136" y="704"/>
      <point x="136" y="704" type="curve"/>
      <point x="65" y="713" type="line"/>
      <point x="65" y="713"/>
      <point x="66" y="504"/>
      <point x="66" y="333" type="curve"/>
      <point x="66" y="162"/>
      <point x="62" y="-6"/>
    </contour>
  </outline>
</glyph>
<glyph name="C" format="2">
  <advance width="355"/>
  <unicode hex="0043"/>
  <anchor x="185" y="0" name="bottom"/>
  <anchor x="193" y="693" name="top"/>
  <outline>
    <contour>
      <point x="191" y="-10" type="curve"/>
      <point x="285" y="-10"/>
      <point x="317" y="70"/>
      <point x="317" y="153" type="curve" smooth="yes"/>
      <point x="317" y="172"/>
      <point x="316" y="190"/>
      <point x="313" y="208" type="curve"/>
      <point x="253" y="206" type="line"/>
      <point x="254" y="192"/>
      <point x="255" y="174"/>
      <point x="255" y="156" type="curve" smooth="yes"/>
      <point x="255" y="105"/>
      <point x="246" y="49"/>
      <point x="193" y="49" type="curve" smooth="yes"/>
      <point x="140" y="49"/>
      <point x="119" y="82"/>
      <point x="111" y="145" type="curve" smooth="yes"/>
      <point x="105" y="197"/>
      <point x="107" y="270"/>
      <point x="107" y="360" type="curve" smooth="yes"/>
      <point x="107" y="431"/>
      <point x="108" y="511"/>
      <point x="124" y="567" type="curve" smooth="yes"/>
      <point x="136" y="612"/>
      <point x="158" y="642"/>
      <point x="197" y="642" type="curve" smooth="yes"/>
      <point x="248" y="642"/>
      <point x="262" y="584"/>
      <point x="262" y="514" type="curve" smooth="yes"/>
      <point x="262" y="461"/>
      <point x="254" y="401"/>
      <point x="248" y="353" type="curve"/>
      <point x="310" y="352" type="line"/>
      <point x="319" y="408"/>
      <point x="325" y="465"/>
      <point x="325" y="517" type="curve" smooth="yes"/>
      <point x="325" y="621"/>
      <point x="297" y="701"/>
      <point x="199" y="701" type="curve" smooth="yes"/>
      <point x="122" y="701"/>
      <point x="83" y="658"/>
      <point x="63" y="591" type="curve" smooth="yes"/>
      <point x="43" y="524"/>
      <point x="42" y="434"/>
      <point x="42" y="340" type="curve" smooth="yes"/>
      <point x="42" y="243"/>
      <point x="42" y="165"/>
      <point x="53" y="108" type="curve" smooth="yes"/>
      <point x="68" y="30"/>
      <point x="104" y="-10"/>
    </contour>
  </outline>
</glyph>
<glyph name="D" format="2">
  <advance width="385"/>
  <unicode hex="0044"/>
  <anchor x="131" y="348" name="center"/>
  <anchor x="187" y="693" name="top"/>
  <outline>
    <contour>
      <point x="185" y="-10" type="curve" smooth="yes"/>
      <point x="333" y="-10"/>
      <point x="343" y="159"/>
      <point x="343" y="359" type="curve" smooth="yes"/>
      <point x="343" y="614"/>
      <point x="315" y="708"/>
      <point x="175" y="708" type="curve" smooth="yes"/>
      <point x="128" y="708"/>
      <point x="94" y="705"/>
      <point x="62" y="702" type="curve"/>
      <point x="85" y="640" type="line"/>
      <point x="104" y="646"/>
      <point x="134" y="651"/>
      <point x="179" y="651" type="curve" smooth="yes"/>
      <point x="271" y="651"/>
      <point x="280" y="540"/>
      <point x="280" y="354" type="curve" smooth="yes"/>
      <point x="280" y="119"/>
      <point x="254" y="53"/>
      <point x="183" y="53" type="curve" smooth="yes"/>
      <point x="153" y="53"/>
      <point x="126" y="55"/>
      <point x="110" y="60" type="curve"/>
      <point x="65" y="-3" type="line"/>
      <point x="105" y="-8"/>
      <point x="127" y="-10"/>
    </contour>
    <contour>
      <point x="65" y="-3" type="curve"/>
      <point x="133" y="-3" type="line"/>
      <point x="131" y="104"/>
      <point x="129" y="277"/>
      <point x="129" y="361" type="curve"/>
      <point x="130" y="459"/>
      <point x="131" y="616"/>
      <point x="132" y="692" type="curve"/>
      <point x="62" y="702" type="line"/>
      <point x="65" y="630"/>
      <point x="69" y="488"/>
      <point x="69" y="363" type="curve"/>
      <point x="69" y="238"/>
      <point x="67" y="81"/>
    </contour>
  </outline>
</glyph>
<glyph name="E" format="2">
  <advance width="344"/>
  <unicode hex="0045"/>
  <anchor x="187" y="0" name="bottom"/>
  <anchor x="290" y="-3" name="ogonek"/>
  <anchor x="189" y="693" name="top"/>
  <outline>
    <contour>
      <point x="62" y="-5" type="curve"/>
      <point x="133" y="5" type="line"/>
      <point x="133" y="5"/>
      <point x="129" y="277"/>
      <point x="129" y="393" type="curve"/>
      <point x="129" y="509"/>
      <point x="132" y="690"/>
      <point x="132" y="690" type="curve"/>
      <point x="62" y="699" type="line"/>
      <point x="62" y="699"/>
      <point x="65" y="562"/>
      <point x="65" y="391" type="curve"/>
      <point x="65" y="220"/>
      <point x="62" y="-5"/>
    </contour>
    <contour>
      <point x="62" y="-5" type="line"/>
      <point x="312" y="0" type="line"/>
      <point x="312" y="57" type="line"/>
      <point x="106" y="62" type="line"/>
    </contour>
    <contour>
      <point x="101" y="205" type="line"/>
      <point x="307" y="209" type="line"/>
      <point x="309" y="266" type="line"/>
      <point x="101" y="269" type="line"/>
    </contour>
    <contour>
      <point x="94" y="629" type="line"/>
      <point x="300" y="630" type="line"/>
      <point x="300" y="693" type="line"/>
      <point x="62" y="699" type="line"/>
    </contour>
  </outline>
</glyph>
<glyph name="F" format="2">
  <advance width="333"/>
  <unicode hex="0046"/>
  <outline>
    <contour>
      <point x="62" y="-3" type="curve"/>
      <point x="133" y="0" type="line"/>
      <point x="133" y="0"/>
      <point x="129" y="206"/>
      <point x="129" y="322" type="curve"/>
      <point x="129" y="438"/>
      <point x="133" y="699"/>
      <point x="133" y="699" type="curve"/>
      <point x="63" y="709" type="line"/>
      <point x="63" y="709"/>
      <point x="66" y="495"/>
      <point x="66" y="324" type="curve"/>
      <point x="66" y="153"/>
      <point x="62" y="-3"/>
    </contour>
    <contour>
      <point x="103" y="243" type="line"/>
      <point x="305" y="252" type="line"/>
      <point x="303" y="305" type="line"/>
      <point x="103" y="307" type="line"/>
    </contour>
    <contour>
      <point x="106" y="642" type="line"/>
      <point x="296" y="644" type="line"/>
      <point x="299" y="702" type="line"/>
      <point x="63" y="709" type="line"/>
    </contour>
  </outline>
</glyph>
<glyph name="G" format="2">
  <advance width="360"/>
  <unicode hex="0047"/>
  <anchor x="185" y="0" name="bottom"/>
  <anchor x="187" y="693" name="top"/>
  <outline>
    <contour>
      <point x="42" y="347" type="curve" smooth="yes"/>
      <point x="42" y="246"/>
      <point x="44" y="167"/>
      <point x="55" y="112" type="curve" smooth="yes"/>
      <point x="70" y="41"/>
      <point x="104" y="-7"/>
      <point x="179" y="-7" type="curve" smooth="yes"/>
      <point x="219" y="-7"/>
      <point x="259" y="16"/>
      <point x="279" y="46" type="curve"/>
      <point x="297" y="0" type="line"/>
      <point x="323" y="0" type="line"/>
      <point x="317" y="254" type="line"/>
      <point x="190" y="256" type="line"/>
      <point x="190" y="198" type="line"/>
      <point x="259" y="200" type="line"/>
      <point x="260" y="189"/>
      <point x="261" y="176"/>
      <point x="261" y="164" type="curve" smooth="yes"/>
      <point x="261" y="109"/>
      <point x="246" y="51"/>
      <point x="194" y="51" type="curve" smooth="yes"/>
      <point x="141" y="51"/>
      <point x="120" y="94"/>
      <point x="112" y="162" type="curve" smooth="yes"/>
      <point x="108" y="198"/>
      <point x="107" y="267"/>
      <point x="107" y="342" type="curve" smooth="yes"/>
      <point x="107" y="461"/>
      <point x="102" y="506"/>
      <point x="116" y="570" type="curve" smooth="yes"/>
      <point x="127" y="618"/>
      <point x="148" y="651"/>
      <point x="189" y="651" type="curve" smooth="yes"/>
      <point x="242" y="651"/>
      <point x="257" y="594"/>
      <point x="257" y="527" type="curve" smooth="yes"/>
      <point x="257" y="480"/>
      <point x="250" y="428"/>
      <point x="243" y="386" type="curve"/>
      <point x="306" y="386" type="line"/>
      <point x="312" y="435"/>
      <point x="317" y="487"/>
      <point x="317" y="534" type="curve" smooth="yes"/>
      <point x="317" y="631"/>
      <point x="293" y="710"/>
      <point x="190" y="710" type="curve" smooth="yes"/>
      <point x="108" y="710"/>
      <point x="72" y="661"/>
      <point x="55" y="587" type="curve" smooth="yes"/>
      <point x="43" y="533"/>
      <point x="42" y="462"/>
    </contour>
  </outline>
</glyph>
<glyph name="H" format="2">
  <advance width="412"/>
  <unicode hex="0048"/>
  <anchor x="204" y="0" name="bottom"/>
  <anchor x="203" y="459" name="center"/>
  <anchor x="203" y="693" name="top"/>
  <outline>
    <contour>
      <point x="276" y="0" type="curve"/>
      <point x="347" y="0" type="line"/>
      <point x="347" y="0"/>
      <point x="343" y="212"/>
      <point x="343" y="383" type="curve"/>
      <point x="343" y="554"/>
      <point x="350" y="708"/>
      <point x="350" y="708" type="curve"/>
      <point x="280" y="706" type="line"/>
      <point x="280" y="706"/>
      <point x="283" y="497"/>
      <point x="283" y="381" type="curve"/>
      <point x="283" y="265"/>
      <point x="276" y="0"/>
    </contour>
    <contour>
      <point x="102" y="247" type="line"/>
      <point x="102" y="194" type="line"/>
      <point x="318" y="190" type="line"/>
      <point x="318" y="254" type="line"/>
    </contour>
    <contour>
      <point x="65" y="2" type="curve"/>
      <point x="133" y="3" type="line"/>
      <point x="133" y="3"/>
      <point x="129" y="235"/>
      <point x="129" y="352" type="curve"/>
      <point x="129" y="468"/>
      <point x="132" y="698"/>
      <point x="132" y="698" type="curve"/>
      <point x="62" y="694" type="line"/>
      <point x="62" y="694"/>
      <point x="69" y="524"/>
      <point x="69" y="353" type="curve"/>
      <point x="69" y="183"/>
      <point x="65" y="2"/>
    </contour>
  </outline>
</glyph>
<glyph name="I" format="2">
  <advance width="202"/>
  <unicode hex="0049"/>
  <anchor x="99" y="0" name="bottom"/>
  <anchor x="102" y="0" name="ogonek"/>
  <anchor x="101" y="693" name="top"/>
  <outline>
    <contour>
      <point x="66" y="699" type="line"/>
      <point x="68" y="657"/>
      <point x="67" y="487"/>
      <point x="67" y="328" type="curve"/>
      <point x="67" y="157"/>
      <point x="62" y="1"/>
      <point x="62" y="1" type="curve"/>
      <point x="135" y="-1" type="line"/>
      <point x="135" y="-1"/>
      <point x="130" y="213"/>
      <point x="130" y="330" type="curve"/>
      <point x="130" y="446"/>
      <point x="140" y="701"/>
      <point x="140" y="701" type="curve"/>
    </contour>
  </outline>
</glyph>
<glyph name="J" format="2">
  <advance width="341"/>
  <unicode hex="004A"/>
  <anchor x="246" y="693" name="top"/>
  <outline>
    <contour>
      <point x="152" y="-10" type="curve"/>
      <point x="257" y="-10"/>
      <point x="283" y="72"/>
      <point x="283" y="171" type="curve"/>
      <point x="283" y="241"/>
      <point x="283" y="334"/>
      <point x="283" y="402" type="curve"/>
      <point x="283" y="492"/>
      <point x="283" y="604"/>
      <point x="285" y="697" type="curve"/>
      <point x="214" y="695" type="line"/>
      <point x="218" y="608"/>
      <point x="219" y="464"/>
      <point x="219" y="396" type="curve"/>
      <point x="220" y="319"/>
      <point x="220" y="223"/>
      <point x="220" y="183" type="curve"/>
      <point x="220" y="82"/>
      <point x="206" y="48"/>
      <point x="154" y="48" type="curve"/>
      <point x="99" y="48"/>
      <point x="91" y="95"/>
      <point x="91" y="147" type="curve"/>
      <point x="91" y="187"/>
      <point x="91" y="218"/>
      <point x="99" y="298" type="curve"/>
      <point x="35" y="299" type="line"/>
      <point x="32" y="248"/>
      <point x="28" y="212"/>
      <point x="28" y="146" type="curve"/>
      <point x="28" y="75"/>
      <point x="47" y="-10"/>
    </contour>
  </outline>
</glyph>
<glyph name="K" format="2">
  <advance width="363"/>
  <unicode hex="004B"/>
  <anchor x="188" y="0" name="bottom"/>
  <outline>
    <contour>
      <point x="278" y="1" type="curve"/>
      <point x="367" y="5" type="line"/>
      <point x="301" y="104"/>
      <point x="236" y="207"/>
      <point x="182" y="301" type="curve"/>
      <point x="221" y="405"/>
      <point x="313" y="605"/>
      <point x="360" y="704" type="curve"/>
      <point x="285" y="702" type="line"/>
      <point x="249" y="609"/>
      <point x="179" y="435"/>
      <point x="113" y="281" type="curve"/>
      <point x="174" y="190"/>
      <point x="235" y="89"/>
    </contour>
    <contour>
      <point x="62" y="0" type="curve"/>
      <point x="135" y="0" type="line"/>
      <point x="135" y="0"/>
      <point x="131" y="212"/>
      <point x="131" y="357" type="curve"/>
      <point x="131" y="503"/>
      <point x="137" y="702"/>
      <point x="137" y="702" type="curve"/>
      <point x="65" y="703" type="line"/>
      <point x="65" y="703"/>
      <point x="68" y="499"/>
      <point x="68" y="356" type="curve"/>
      <point x="68" y="213"/>
      <point x="62" y="0"/>
    </contour>
  </outline>
</glyph>
<glyph name="L" format="2">
  <advance width="315"/>
  <unicode hex="004C"/>
  <anchor x="176" y="0" name="bottom"/>
  <anchor x="109" y="350" name="center"/>
  <anchor x="96" y="693" name="top"/>
  <anchor x="176" y="478" name="topright"/>
  <outline>
    <contour>
      <point x="62" y="-5" type="curve"/>
      <point x="132" y="5" type="line"/>
      <point x="132" y="5"/>
      <point x="128" y="266"/>
      <point x="128" y="383" type="curve"/>
      <point x="128" y="499"/>
      <point x="135" y="706"/>
      <point x="135" y="706" type="curve"/>
      <point x="62" y="700" type="line"/>
      <point x="62" y="700"/>
      <point x="65" y="552"/>
      <point x="65" y="381" type="curve"/>
      <point x="65" y="210"/>
      <point x="62" y="-5"/>
    </contour>
    <contour>
      <point x="62" y="-5" type="line"/>
      <point x="312" y="3" type="line"/>
      <point x="312" y="60" type="line"/>
      <point x="106" y="63" type="line"/>
    </contour>
  </outline>
</glyph>
<glyph name="M" format="2">
  <advance width="547"/>
  <unicode hex="004D"/>
  <outline>
    <contour>
      <point x="62" y="-1" type="curve"/>
      <point x="124" y="-1" type="line"/>
      <point x="124" y="-1"/>
      <point x="121" y="251"/>
      <point x="121" y="367" type="curve" smooth="yes"/>
      <point x="121" y="439"/>
      <point x="120" y="512"/>
      <point x="120" y="584" type="curve"/>
      <point x="131" y="524"/>
      <point x="145" y="454"/>
      <point x="158" y="381" type="curve" smooth="yes"/>
      <point x="191" y="201"/>
      <point x="231" y="10"/>
      <point x="231" y="10" type="curve"/>
      <point x="310" y="7" type="line"/>
      <point x="310" y="7"/>
      <point x="350" y="200"/>
      <point x="381" y="377" type="curve" smooth="yes"/>
      <point x="394" y="452"/>
      <point x="409" y="526"/>
      <point x="420" y="587" type="curve"/>
      <point x="420" y="523"/>
      <point x="421" y="449"/>
      <point x="421" y="394" type="curve" smooth="yes"/>
      <point x="421" y="318"/>
      <point x="419" y="0"/>
      <point x="419" y="0" type="curve"/>
      <point x="485" y="-2" type="line"/>
      <point x="485" y="-2"/>
      <point x="481" y="205"/>
      <point x="481" y="376" type="curve" smooth="yes"/>
      <point x="481" y="547"/>
      <point x="484" y="697"/>
      <point x="484" y="697" type="curve"/>
      <point x="383" y="697" type="line"/>
      <point x="364" y="583"/>
      <point x="344" y="467"/>
      <point x="325" y="353" type="curve" smooth="yes"/>
      <point x="311" y="271"/>
      <point x="284" y="126"/>
      <point x="271" y="55" type="curve"/>
      <point x="258" y="130"/>
      <point x="230" y="266"/>
      <point x="216" y="349" type="curve" smooth="yes"/>
      <point x="187" y="522"/>
      <point x="156" y="704"/>
      <point x="156" y="704" type="curve"/>
      <point x="63" y="702" type="line"/>
      <point x="63" y="702"/>
      <point x="66" y="520"/>
      <point x="66" y="349" type="curve" smooth="yes"/>
      <point x="66" y="178"/>
      <point x="62" y="-1"/>
    </contour>
  </outline>
</glyph>
<glyph name="N" format="2">
  <advance width="421"/>
  <unicode hex="004E"/>
  <anchor x="213" y="0" name="bottom"/>
  <anchor x="216" y="693" name="top"/>
  <outline>
    <contour>
      <point x="62" y="704" type="line"/>
      <point x="62" y="704"/>
      <point x="68" y="527"/>
      <point x="68" y="356" type="curve" smooth="yes"/>
      <point x="68" y="185"/>
      <point x="65" y="1"/>
      <point x="65" y="1" type="curve"/>
      <point x="125" y="0" type="line"/>
      <point x="125" y="0"/>
      <point x="122" y="238"/>
      <point x="122" y="354" type="curve" smooth="yes"/>
      <point x="122" y="420"/>
      <point x="121" y="526"/>
      <point x="121" y="592" type="curve"/>
      <point x="138" y="526"/>
      <point x="167" y="403"/>
      <point x="181" y="344" type="curve" smooth="yes"/>
      <point x="221" y="174"/>
      <point x="264" y="1"/>
      <point x="264" y="1" type="curve"/>
      <point x="357" y="9" type="line"/>
      <point x="357" y="9"/>
      <point x="353" y="212"/>
      <point x="353" y="383" type="curve" smooth="yes"/>
      <point x="353" y="554"/>
      <point x="359" y="715"/>
      <point x="359" y="715" type="curve"/>
      <point x="296" y="715" type="line"/>
      <point x="296" y="715"/>
      <point x="299" y="497"/>
      <point x="299" y="381" type="curve" smooth="yes"/>
      <point x="299" y="324"/>
      <point x="300" y="192"/>
      <point x="300" y="113" type="curve"/>
      <point x="287" y="164"/>
      <point x="258" y="277"/>
      <point x="235" y="369" type="curve" smooth="yes"/>
      <point x="191" y="546"/>
      <point x="152" y="704"/>
      <point x="152" y="704" type="curve"/>
    </contour>
  </outline>
</glyph>
<glyph name="O" format="2">
  <advance width="383"/>
  <unicode hex="004F"/>
  <anchor x="187" y="0" name="bottom"/>
  <anchor x="190" y="332" name="center"/>
  <anchor x="196" y="-5" name="ogonek"/>
  <anchor x="196" y="693" name="top"/>
  <anchor x="249" y="693" name="topright"/>
  <outline>
    <contour>
      <point x="184" y="-5" type="curve"/>
      <point x="271" y="-5"/>
      <point x="310" y="51"/>
      <point x="327" y="136" type="curve" smooth="yes"/>
      <point x="340" y="197"/>
      <point x="341" y="273"/>
      <point x="341" y="355" type="curve" smooth="yes"/>
      <point x="341" y="431"/>
      <point x="342" y="505"/>
      <point x="332" y="565" type="curve" smooth="yes"/>
      <point x="319" y="648"/>
      <point x="285" y="705"/>
      <point x="200" y="705" type="curve" smooth="yes"/>
      <point x="108" y="705"/>
      <point x="69" y="646"/>
      <point x="53" y="561" type="curve" smooth="yes"/>
      <point x="42" y="502"/>
      <point x="42" y="430"/>
      <point x="42" y="357" type="curve" smooth="yes"/>
      <point x="42" y="273"/>
      <point x="41" y="195"/>
      <point x="51" y="134" type="curve" smooth="yes"/>
      <point x="65" y="49"/>
      <point x="100" y="-5"/>
    </contour>
    <contour>
      <point x="187" y="52" type="curve"/>
      <point x="135" y="52"/>
      <point x="117" y="99"/>
      <point x="111" y="170" type="curve" smooth="yes"/>
      <point x="107" y="219"/>
      <point x="109" y="280"/>
      <point x="109" y="345" type="curve" smooth="yes"/>
      <point x="109" y="417"/>
      <point x="108" y="482"/>
      <point x="114" y="533" type="curve" smooth="yes"/>
      <point x="121" y="606"/>
      <point x="142" y="651"/>
      <point x="196" y="651" type="curve" smooth="yes"/>
      <point x="248" y="651"/>
      <point x="265" y="603"/>
      <point x="271" y="525" type="curve" smooth="yes"/>
      <point x="274" y="479"/>
      <point x="273" y="423"/>
      <point x="273" y="360" type="curve" smooth="yes"/>
      <point x="273" y="293"/>
      <point x="274" y="229"/>
      <point x="268" y="177" type="curve" smooth="yes"/>
      <point x="260" y="102"/>
      <point x="240" y="52"/>
    </contour>
  </outline>
</glyph>
<glyph name="P" format="2">
  <advance width="352"/>
  <unicode hex="0050"/>
  <outline>
    <contour>
      <point x="116" y="211" type="line"/>
      <point x="254" y="211"/>
      <point x="333" y="261"/>
      <point x="333" y="457" type="curve"/>
      <point x="333" y="654"/>
      <point x="282" y="713"/>
      <point x="175" y="713" type="curve" smooth="yes"/>
      <point x="128" y="713"/>
      <point x="95" y="712"/>
      <point x="63" y="710" type="curve"/>
      <point x="85" y="650" type="line"/>
      <point x="112" y="654"/>
      <point x="134" y="656"/>
      <point x="171" y="656" type="curve" smooth="yes"/>
      <point x="242" y="656"/>
      <point x="270" y="601"/>
      <point x="270" y="454" type="curve"/>
      <point x="270" y="288"/>
      <point x="217" y="272"/>
      <point x="112" y="272" type="curve"/>
    </contour>
    <contour>
      <point x="62" y="-6" type="curve"/>
      <point x="134" y="-2" type="line"/>
      <point x="132" y="103"/>
      <point x="130" y="274"/>
      <point x="130" y="359" type="curve"/>
      <point x="130" y="457"/>
      <point x="134" y="612"/>
      <point x="136" y="703" type="curve"/>
      <point x="63" y="710" type="line"/>
      <point x="64" y="632"/>
      <point x="66" y="482"/>
      <point x="66" y="357" type="curve"/>
      <point x="66" y="232"/>
      <point x="64" y="77"/>
    </contour>
  </outline>
</glyph>
<glyph name="R" format="2">
  <advance width="380"/>
  <unicode hex="0052"/>
  <anchor x="202" y="0" name="bottom"/>
  <anchor x="189" y="693" name="top"/>
  <outline>
    <contour>
      <point x="115" y="219" type="line"/>
      <point x="250" y="219"/>
      <point x="332" y="269"/>
      <point x="332" y="466" type="curve"/>
      <point x="332" y="651"/>
      <point x="281" y="708"/>
      <point x="175" y="708" type="curve"/>
      <point x="127" y="708"/>
      <point x="95" y="707"/>
      <point x="62" y="705" type="curve"/>
      <point x="85" y="644" type="line"/>
      <point x="111" y="649"/>
      <point x="133" y="651"/>
      <point x="170" y="651" type="curve"/>
      <point x="241" y="651"/>
      <point x="269" y="598"/>
      <point x="269" y="462" type="curve"/>
      <point x="269" y="296"/>
      <point x="213" y="281"/>
      <point x="111" y="281" type="curve"/>
    </contour>
    <contour>
      <point x="62" y="-6" type="curve"/>
      <point x="133" y="0" type="line"/>
      <point x="131" y="102"/>
      <point x="129" y="269"/>
      <point x="129" y="354" type="curve"/>
      <point x="129" y="439"/>
      <point x="132" y="600"/>
      <point x="135" y="698" type="curve"/>
      <point x="62" y="705" type="line"/>
      <point x="64" y="627"/>
      <point x="66" y="477"/>
      <point x="66" y="352" type="curve"/>
      <point x="66" y="227"/>
      <point x="64" y="74"/>
    </contour>
    <contour>
      <point x="279" y="-6" type="curve"/>
      <point x="363" y="-3" type="line"/>
      <point x="314" y="103"/>
      <point x="274" y="203"/>
      <point x="242" y="301" type="curve"/>
      <point x="181" y="271" type="line"/>
      <point x="221" y="173"/>
      <point x="253" y="85"/>
    </contour>
  </outline>
</glyph>
<glyph name="S" format="2">
  <advance width="347"/>
  <unicode hex="0053"/>
  <anchor x="167" y="0" name="bottom"/>
  <anchor x="183" y="693" name="top"/>
  <outline>
    <contour>
      <point x="171" y="-10" type="curve"/>
      <point x="258" y="-10"/>
      <point x="317" y="39"/>
      <point x="317" y="141" type="curve"/>
      <point x="317" y="241"/>
      <point x="222" y="303"/>
      <point x="176" y="343" type="curve"/>
      <point x="129" y="383"/>
      <point x="96" y="433"/>
      <point x="96" y="510" type="curve"/>
      <point x="96" y="600"/>
      <point x="119" y="645"/>
      <point x="177" y="645" type="curve"/>
      <point x="235" y="645"/>
      <point x="251" y="591"/>
      <point x="251" y="511" type="curve" smooth="yes"/>
      <point x="251" y="476"/>
      <point x="248" y="436"/>
      <point x="244" y="394" type="curve"/>
      <point x="310" y="394" type="line"/>
      <point x="314" y="433"/>
      <point x="317" y="472"/>
      <point x="317" y="509" type="curve" smooth="yes"/>
      <point x="317" y="618"/>
      <point x="289" y="704"/>
      <point x="173" y="704" type="curve"/>
      <point x="96" y="704"/>
      <point x="31" y="647"/>
      <point x="31" y="522" type="curve"/>
      <point x="31" y="422"/>
      <point x="53" y="365"/>
      <point x="127" y="300" type="curve"/>
      <point x="202" y="233"/>
      <point x="251" y="201"/>
      <point x="251" y="134" type="curve"/>
      <point x="251" y="79"/>
      <point x="224" y="47"/>
      <point x="167" y="47" type="curve"/>
      <point x="109" y="47"/>
      <point x="95" y="89"/>
      <point x="95" y="155" type="curve" smooth="yes"/>
      <point x="95" y="174"/>
      <point x="96" y="195"/>
      <point x="98" y="217" type="curve"/>
      <point x="38" y="217" type="line"/>
      <point x="34" y="192"/>
      <point x="32" y="167"/>
      <point x="32" y="145" type="curve" smooth="yes"/>
      <point x="32" y="52"/>
      <point x="70" y="-10"/>
    </contour>
  </outline>
</glyph>
<glyph name="T" format="2">
  <advance width="321"/>
  <unicode hex="0054"/>
  <anchor x="158" y="1" name="bottom"/>
  <anchor x="157" y="347" name="center"/>
  <anchor x="158" y="693" name="top"/>
  <outline>
    <contour>
      <point x="118" y="2" type="curve"/>
      <point x="196" y="-1" type="line"/>
      <point x="196" y="-1"/>
      <point x="191" y="201"/>
      <point x="191" y="372" type="curve"/>
      <point x="191" y="543"/>
      <point x="195" y="684"/>
      <point x="195" y="684" type="curve"/>
      <point x="122" y="685" type="line"/>
      <point x="122" y="685"/>
      <point x="127" y="498"/>
      <point x="127" y="381" type="curve"/>
      <point x="128" y="278"/>
      <point x="121" y="52"/>
    </contour>
    <contour>
      <point x="1" y="634" type="line"/>
      <point x="1" y="634"/>
      <point x="106" y="639"/>
      <point x="156" y="640" type="curve"/>
      <point x="206" y="640"/>
      <point x="320" y="642"/>
      <point x="320" y="642" type="curve"/>
      <point x="317" y="704" type="line"/>
      <point x="317" y="704"/>
      <point x="192" y="702"/>
      <point x="143" y="702" type="curve"/>
      <point x="94" y="702"/>
      <point x="4" y="701"/>
      <point x="4" y="701" type="curve"/>
    </contour>
  </outline>
</glyph>
<glyph name="U" format="2">
  <advance width="392"/>
  <unicode hex="0055"/>
  <anchor x="197" y="0" name="bottom"/>
  <anchor x="227" y="0" name="ogonek"/>
  <anchor x="198" y="693" name="top"/>
  <anchor x="294" y="693" name="topright"/>
  <outline>
    <contour>
      <point x="199" y="-10" type="curve"/>
      <point x="311" y="-10"/>
      <point x="335" y="84"/>
      <point x="335" y="170" type="curve"/>
      <point x="335" y="200"/>
      <point x="335" y="278"/>
      <point x="334" y="392" type="curve"/>
      <point x="334" y="524"/>
      <point x="336" y="617"/>
      <point x="337" y="706" type="curve"/>
      <point x="268" y="707" type="line"/>
      <point x="270" y="645"/>
      <point x="273" y="521"/>
      <point x="274" y="394" type="curve"/>
      <point x="274" y="272"/>
      <point x="273" y="187"/>
      <point x="273" y="167" type="curve"/>
      <point x="273" y="101"/>
      <point x="256" y="47"/>
      <point x="198" y="47" type="curve"/>
      <point x="142" y="47"/>
      <point x="120" y="83"/>
      <point x="120" y="180" type="curve"/>
      <point x="120" y="220"/>
      <point x="120" y="319"/>
      <point x="121" y="396" type="curve"/>
      <point x="122" y="464"/>
      <point x="123" y="607"/>
      <point x="126" y="695" type="curve"/>
      <point x="55" y="696" type="line"/>
      <point x="58" y="603"/>
      <point x="58" y="492"/>
      <point x="58" y="402" type="curve"/>
      <point x="58" y="334"/>
      <point x="57" y="238"/>
      <point x="57" y="168" type="curve"/>
      <point x="57" y="54"/>
      <point x="101" y="-10"/>
    </contour>
  </outline>
</glyph>
<glyph name="V" format="2">
  <advance width="370"/>
  <unicode hex="0056"/>
  <outline>
    <contour>
      <point x="19" y="712" type="line"/>
      <point x="40" y="595"/>
      <point x="62" y="470"/>
      <point x="84" y="338" type="curve" smooth="yes"/>
      <point x="102" y="231"/>
      <point x="120" y="119"/>
      <point x="137" y="3" type="curve"/>
      <point x="235" y="0" type="line"/>
      <point x="251" y="114"/>
      <point x="268" y="227"/>
      <point x="286" y="333" type="curve" smooth="yes"/>
      <point x="308" y="471"/>
      <point x="331" y="599"/>
      <point x="351" y="708" type="curve"/>
      <point x="280" y="705" type="line"/>
      <point x="264" y="586"/>
      <point x="247" y="468"/>
      <point x="230" y="354" type="curve" smooth="yes"/>
      <point x="216" y="256"/>
      <point x="201" y="160"/>
      <point x="187" y="69" type="curve"/>
      <point x="171" y="167"/>
      <point x="156" y="261"/>
      <point x="141" y="362" type="curve" smooth="yes"/>
      <point x="126" y="468"/>
      <point x="111" y="581"/>
      <point x="95" y="713" type="curve"/>
    </contour>
  </outline>
</glyph>
<glyph name="W" format="2">
  <advance width="607"/>
  <unicode hex="0057"/>
  <anchor x="300" y="693" name="top"/>
  <outline>
    <contour>
      <point x="229" y="0" type="line"/>
      <point x="240" y="73"/>
      <point x="260" y="218"/>
      <point x="278" y="347" type="curve" smooth="yes"/>
      <point x="284" y="391"/>
      <point x="296" y="497"/>
      <point x="302" y="542" type="curve"/>
      <point x="308" y="495"/>
      <point x="320" y="390"/>
      <point x="326" y="342" type="curve" smooth="yes"/>
      <point x="343" y="210"/>
      <point x="364" y="70"/>
      <point x="376" y="1" type="curve"/>
      <point x="483" y="0" type="line"/>
      <point x="491" y="71"/>
      <point x="508" y="212"/>
      <point x="528" y="342" type="curve" smooth="yes"/>
      <point x="547" y="470"/>
      <point x="573" y="630"/>
      <point x="588" y="714" type="curve"/>
      <point x="517" y="713" type="line"/>
      <point x="506" y="621"/>
      <point x="485" y="459"/>
      <point x="470" y="351" type="curve" smooth="yes"/>
      <point x="454" y="234"/>
      <point x="443" y="128"/>
      <point x="431" y="67" type="curve"/>
      <point x="419" y="135"/>
      <point x="397" y="275"/>
      <point x="387" y="351" type="curve" smooth="yes"/>
      <point x="372" y="479"/>
      <point x="355" y="598"/>
      <point x="346" y="651" type="curve"/>
      <point x="263" y="650" type="line"/>
      <point x="254" y="588"/>
      <point x="236" y="465"/>
      <point x="221" y="357" type="curve" smooth="yes"/>
      <point x="205" y="239"/>
      <point x="188" y="128"/>
      <point x="176" y="65" type="curve"/>
      <point x="164" y="135"/>
      <point x="147" y="281"/>
      <point x="138" y="357" type="curve" smooth="yes"/>
      <point x="124" y="472"/>
      <point x="109" y="586"/>
      <point x="95" y="701" type="curve"/>
      <point x="19" y="701" type="line"/>
      <point x="33" y="625"/>
      <point x="58" y="477"/>
      <point x="76" y="347" type="curve" smooth="yes"/>
      <point x="94" y="216"/>
      <point x="112" y="72"/>
      <point x="121" y="0" type="curve"/>
    </contour>
  </outline>
</glyph>
<glyph name="X" format="2">
  <advance width="347"/>
  <unicode hex="0058"/>
  <outline>
    <contour>
      <point x="-4" y="-2" type="curve"/>
      <point x="72" y="-1" type="line"/>
      <point x="72" y="-1"/>
      <point x="127" y="175"/>
      <point x="193" y="350" type="curve"/>
      <point x="258" y="521"/>
      <point x="335" y="691"/>
      <point x="335" y="691" type="curve"/>
      <point x="259" y="692" type="line"/>
      <point x="259" y="692"/>
      <point x="202" y="527"/>
      <point x="139" y="359" type="curve"/>
      <point x="73" y="184"/>
      <point x="-4" y="-2"/>
    </contour>
    <contour>
      <point x="270" y="-6" type="curve"/>
      <point x="351" y="-4" type="line"/>
      <point x="351" y="-4"/>
      <point x="269" y="196"/>
      <point x="208" y="369" type="curve"/>
      <point x="148" y="536"/>
      <point x="100" y="688"/>
      <point x="100" y="688" type="curve"/>
      <point x="20" y="690" type="line"/>
      <point x="20" y="690"/>
      <point x="92" y="516"/>
      <point x="154" y="346" type="curve"/>
      <point x="216" y="173"/>
      <point x="270" y="-6"/>
    </contour>
  </outline>
</glyph>
<glyph name="Y" format="2">
  <advance width="317"/>
  <unicode hex="0059"/>
  <anchor x="155" y="0" name="bottom"/>
  <anchor x="157" y="693" name="top"/>
  <outline>
    <contour>
      <point x="120" y="0" type="curve"/>
      <point x="189" y="1" type="line"/>
      <point x="189" y="1"/>
      <point x="186" y="114"/>
      <point x="183" y="224" type="curve"/>
      <point x="121" y="233" type="line"/>
      <point x="124" y="71"/>
      <point x="120" y="0"/>
    </contour>
    <contour>
      <point x="-5" y="704" type="line"/>
      <point x="18" y="614"/>
      <point x="40" y="524"/>
      <point x="62" y="429" type="curve" smooth="yes"/>
      <point x="83" y="339"/>
      <point x="103" y="244"/>
      <point x="124" y="141" type="curve"/>
      <point x="184" y="141" type="line"/>
      <point x="206" y="237"/>
      <point x="231" y="342"/>
      <point x="256" y="442" type="curve" smooth="yes"/>
      <point x="279" y="534"/>
      <point x="302" y="622"/>
      <point x="322" y="698" type="curve"/>
      <point x="243" y="696" type="line"/>
      <point x="227" y="614"/>
      <point x="212" y="535"/>
      <point x="196" y="457" type="curve" smooth="yes"/>
      <point x="183" y="396"/>
      <point x="170" y="335"/>
      <point x="156" y="275" type="curve"/>
      <point x="141" y="341"/>
      <point x="129" y="402"/>
      <point x="118" y="458" type="curve" smooth="yes"/>
      <point x="101" y="547"/>
      <point x="89" y="625"/>
      <point x="76" y="704" type="curve"/>
    </contour>
  </outline>
</glyph>
<glyph name="Z" format="2">
  <advance width="313"/>
  <unicode hex="005A"/>
  <anchor x="155" y="693" name="top"/>
  <outline>
    <contour>
      <point x="33" y="693" type="curve"/>
      <point x="30" y="630" type="line"/>
      <point x="30" y="630"/>
      <point x="91" y="633"/>
      <point x="146" y="633" type="curve" smooth="yes"/>
      <point x="169" y="633"/>
      <point x="189" y="632"/>
      <point x="212" y="632" type="curve"/>
      <point x="188" y="555"/>
      <point x="155" y="456"/>
      <point x="120" y="353" type="curve" smooth="yes"/>
      <point x="86" y="253"/>
      <point x="50" y="151"/>
      <point x="18" y="62" type="curve"/>
      <point x="21" y="1" type="line"/>
      <point x="21" y="1"/>
      <point x="91" y="3"/>
      <point x="157" y="3" type="curve" smooth="yes"/>
      <point x="205" y="3"/>
      <point x="244" y="1"/>
      <point x="292" y="0" type="curve"/>
      <point x="295" y="65" type="line"/>
      <point x="251" y="64"/>
      <point x="217" y="64"/>
      <point x="173" y="62" type="curve" smooth="yes"/>
      <point x="150" y="61"/>
      <point x="121" y="62"/>
      <point x="92" y="62" type="curve"/>
      <point x="121" y="152"/>
      <point x="149" y="237"/>
      <point x="179" y="323" type="curve" smooth="yes"/>
      <point x="213" y="419"/>
      <point x="248" y="518"/>
      <point x="289" y="630" type="curve"/>
      <point x="287" y="695" type="line"/>
      <point x="243" y="694"/>
      <point x="218" y="693"/>
      <point x="164" y="692" type="curve" smooth="yes"/>
      <point x="118" y="691"/>
      <point x="59" y="691"/>
    </contour>
  </outline>
</glyph>
<glyph name="bracketleft" format="2">
  <advance width="337"/>
  <unicode hex="005B"/>
  <outline>
    <contour>
      <point x="75" y="-137" type="curve"/>
      <point x="144" y="-130" type="line"/>
      <point x="144" y="-130"/>
      <point x="144" y="179"/>
      <point x="144" y="315" type="curve"/>
      <point x="144" y="452"/>
      <point x="144" y="671"/>
      <point x="144" y="671" type="curve"/>
      <point x="82" y="691" type="line"/>
      <point x="82" y="691"/>
      <point x="86" y="505"/>
      <point x="86" y="304" type="curve"/>
      <point x="86" y="104"/>
      <point x="75" y="-137"/>
    </contour>
    <contour>
      <point x="75" y="-137" type="line"/>
      <point x="125" y="-135"/>
      <point x="258" y="-130"/>
      <point x="258" y="-130" type="curve"/>
      <point x="261" y="-75" type="line"/>
      <point x="261" y="-75"/>
      <point x="150" y="-74"/>
      <point x="100" y="-71" type="curve"/>
    </contour>
    <contour>
      <point x="109" y="631" type="line"/>
      <point x="159" y="632"/>
      <point x="262" y="633"/>
      <point x="262" y="633" type="curve"/>
      <point x="255" y="693" type="line"/>
      <point x="255" y="693"/>
      <point x="130" y="691"/>
      <point x="82" y="691" type="curve"/>
    </contour>
  </outline>
</glyph>
<glyph name="backslash" format="2">
  <advance width="275"/>
  <unicode hex="005C"/>
  <outline>
    <contour>
      <point x="252" y="-1" type="line"/>
      <point x="220" y="98"/>
      <point x="195" y="203"/>
      <point x="164" y="339" type="curve" smooth="yes"/>
      <point x="131" y="479"/>
      <point x="110" y="571"/>
      <point x="91" y="697" type="curve"/>
      <point x="23" y="695" type="line"/>
      <point x="50" y="577"/>
      <point x="77" y="475"/>
      <point x="108" y="340" type="curve" smooth="yes"/>
      <point x="140" y="203"/>
      <point x="165" y="96"/>
      <point x="185" y="0" type="curve"/>
    </contour>
  </outline>
</glyph>
<glyph name="bracketright" format="2">
  <advance width="337"/>
  <unicode hex="005D"/>
  <outline>
    <contour>
      <point x="256" y="-135" type="line"/>
      <point x="255" y="-6"/>
      <point x="253" y="123"/>
      <point x="252" y="252" type="curve"/>
      <point x="256" y="399"/>
      <point x="259" y="546"/>
      <point x="263" y="693" type="curve"/>
      <point x="194" y="686" type="line"/>
      <point x="194" y="538"/>
      <point x="194" y="389"/>
      <point x="194" y="241" type="curve"/>
      <point x="194" y="122"/>
      <point x="194" y="4"/>
      <point x="194" y="-115" type="curve"/>
    </contour>
    <contour>
      <point x="83" y="-137" type="line"/>
      <point x="141" y="-136"/>
      <point x="198" y="-136"/>
      <point x="256" y="-135" type="curve"/>
      <point x="229" y="-75" type="line"/>
      <point x="178" y="-76"/>
      <point x="127" y="-76"/>
      <point x="76" y="-77" type="curve"/>
    </contour>
    <contour>
      <point x="77" y="632" type="line"/>
      <point x="131" y="631"/>
      <point x="184" y="629"/>
      <point x="238" y="628" type="curve"/>
      <point x="263" y="694" type="line"/>
      <point x="227" y="693"/>
      <point x="137" y="689"/>
      <point x="80" y="687" type="curve"/>
    </contour>
  </outline>
</glyph>
<glyph name="underscore" format="2">
  <advance width="338"/>
  <unicode hex="005F"/>
  <outline>
    <contour>
      <point x="38" y="-111" type="line"/>
      <point x="38" y="-111"/>
      <point x="118" y="-108"/>
      <point x="170" y="-107" type="curve" smooth="yes"/>
      <point x="225" y="-106"/>
      <point x="294" y="-108"/>
      <point x="294" y="-108" type="curve"/>
      <point x="301" y="-46" type="line"/>
      <point x="301" y="-46"/>
      <point x="223" y="-49"/>
      <point x="165" y="-50" type="curve" smooth="yes"/>
      <point x="108" y="-52"/>
      <point x="37" y="-48"/>
      <point x="37" y="-48" type="curve"/>
    </contour>
  </outline>
</glyph>
<glyph name="a" format="2">
  <advance width="300"/>
  <unicode hex="0061"/>
  <anchor x="147" y="0" name="bottom"/>
  <anchor x="243" y="-3" name="ogonek"/>
  <anchor x="147" y="515" name="top"/>
  <outline>
    <contour>
      <point x="209" y="0" type="line"/>
      <point x="261" y="0" type="line"/>
      <point x="254" y="257" type="line"/>
      <point x="257" y="383" type="line" smooth="yes"/>
      <point x="259" y="449"/>
      <point x="245" y="525"/>
      <point x="148" y="525" type="curve" smooth="yes"/>
      <point x="67" y="525"/>
      <point x="33" y="470"/>
      <point x="33" y="393" type="curve" smooth="yes"/>
      <point x="33" y="372"/>
      <point x="36" y="351"/>
      <point x="40" y="328" type="curve"/>
      <point x="93" y="331" type="line"/>
      <point x="89" y="350"/>
      <point x="87" y="371"/>
      <point x="87" y="391" type="curve" smooth="yes"/>
      <point x="87" y="436"/>
      <point x="100" y="477"/>
      <point x="146" y="477" type="curve" smooth="yes"/>
      <point x="192" y="477"/>
      <point x="208" y="454"/>
      <point x="207" y="372" type="curve" smooth="yes"/>
      <point x="206" y="219" type="line"/>
    </contour>
    <contour>
      <point x="114" y="-10" type="curve" smooth="yes"/>
      <point x="210" y="-10"/>
      <point x="239" y="125"/>
      <point x="243" y="291" type="curve"/>
      <point x="206" y="219" type="line"/>
      <point x="206" y="113"/>
      <point x="175" y="43"/>
      <point x="118" y="43" type="curve" smooth="yes"/>
      <point x="88" y="43"/>
      <point x="75" y="60"/>
      <point x="75" y="98" type="curve" smooth="yes"/>
      <point x="75" y="160"/>
      <point x="114" y="188"/>
      <point x="154" y="219" type="curve" smooth="yes"/>
      <point x="194" y="250"/>
      <point x="234" y="287"/>
      <point x="234" y="365" type="curve"/>
      <point x="207" y="372" type="line"/>
      <point x="207" y="321"/>
      <point x="169" y="290"/>
      <point x="128" y="258" type="curve" smooth="yes"/>
      <point x="78" y="219"/>
      <point x="23" y="179"/>
      <point x="23" y="96" type="curve" smooth="yes"/>
      <point x="23" y="33"/>
      <point x="51" y="-10"/>
    </contour>
  </outline>
</glyph>
<glyph name="b" format="2">
  <advance width="345"/>
  <unicode hex="0062"/>
  <outline>
    <contour>
      <point x="191" y="-7" type="curve" smooth="yes"/>
      <point x="253" y="-7"/>
      <point x="286" y="45"/>
      <point x="295" y="122" type="curve" smooth="yes"/>
      <point x="307" y="227"/>
      <point x="307" y="283"/>
      <point x="303" y="377" type="curve" smooth="yes"/>
      <point x="299" y="464"/>
      <point x="275" y="524"/>
      <point x="207" y="524" type="curve" smooth="yes"/>
      <point x="96" y="524"/>
      <point x="82" y="339"/>
      <point x="82" y="251" type="curve"/>
      <point x="111" y="293" type="line"/>
      <point x="111" y="386"/>
      <point x="146" y="465"/>
      <point x="197" y="465" type="curve" smooth="yes"/>
      <point x="243" y="465"/>
      <point x="246" y="411"/>
      <point x="248" y="360" type="curve" smooth="yes"/>
      <point x="250" y="314"/>
      <point x="247" y="208"/>
      <point x="240" y="137" type="curve" smooth="yes"/>
      <point x="236" y="95"/>
      <point x="225" y="50"/>
      <point x="181" y="50" type="curve" smooth="yes"/>
      <point x="134" y="50"/>
      <point x="110" y="114"/>
      <point x="110" y="215" type="curve"/>
      <point x="82" y="257" type="line"/>
      <point x="82" y="174"/>
      <point x="85" y="-7"/>
    </contour>
    <contour>
      <point x="102" y="-1" type="line"/>
      <point x="110" y="215" type="line"/>
      <point x="110" y="243"/>
      <point x="110" y="253"/>
      <point x="111" y="293" type="curve"/>
      <point x="111" y="439"/>
      <point x="115" y="691"/>
      <point x="115" y="691" type="curve"/>
      <point x="49" y="686" type="line"/>
      <point x="49" y="686"/>
      <point x="56" y="489"/>
      <point x="56" y="345" type="curve"/>
      <point x="56" y="202"/>
      <point x="52" y="1"/>
      <point x="52" y="1" type="curve"/>
    </contour>
  </outline>
</glyph>
<glyph name="c" format="2">
  <advance width="322"/>
  <unicode hex="0063"/>
  <anchor x="166" y="0" name="bottom"/>
  <anchor x="170" y="515" name="top"/>
  <outline>
    <contour>
      <point x="162" y="-13" type="curve"/>
      <point x="260" y="-13"/>
      <point x="286" y="51"/>
      <point x="286" y="129" type="curve" smooth="yes"/>
      <point x="286" y="142"/>
      <point x="285" y="154"/>
      <point x="284" y="167" type="curve"/>
      <point x="229" y="165" type="line"/>
      <point x="230" y="151"/>
      <point x="231" y="136"/>
      <point x="231" y="121" type="curve" smooth="yes"/>
      <point x="231" y="79"/>
      <point x="221" y="40"/>
      <point x="168" y="40" type="curve"/>
      <point x="129" y="40"/>
      <point x="112" y="71"/>
      <point x="104" y="119" type="curve" smooth="yes"/>
      <point x="99" y="155"/>
      <point x="99" y="201"/>
      <point x="99" y="250" type="curve"/>
      <point x="99" y="304"/>
      <point x="99" y="351"/>
      <point x="105" y="387" type="curve" smooth="yes"/>
      <point x="112" y="437"/>
      <point x="130" y="467"/>
      <point x="173" y="467" type="curve"/>
      <point x="217" y="467"/>
      <point x="230" y="425"/>
      <point x="230" y="373" type="curve" smooth="yes"/>
      <point x="230" y="345"/>
      <point x="226" y="314"/>
      <point x="221" y="286" type="curve"/>
      <point x="277" y="285" type="line"/>
      <point x="281" y="314"/>
      <point x="286" y="348"/>
      <point x="286" y="381" type="curve" smooth="yes"/>
      <point x="286" y="454"/>
      <point x="265" y="523"/>
      <point x="181" y="523" type="curve"/>
      <point x="95" y="523"/>
      <point x="61" y="470"/>
      <point x="48" y="392" type="curve" smooth="yes"/>
      <point x="41" y="351"/>
      <point x="40" y="303"/>
      <point x="40" y="252" type="curve"/>
      <point x="40" y="192"/>
      <point x="41" y="132"/>
      <point x="54" y="84" type="curve" smooth="yes"/>
      <point x="68" y="27"/>
      <point x="99" y="-13"/>
    </contour>
  </outline>
</glyph>
<glyph name="d" format="2">
  <advance width="345"/>
  <unicode hex="0064"/>
  <anchor x="233" y="604" name="center"/>
  <anchor x="310" y="470" name="topright"/>
  <outline>
    <contour>
      <point x="40" y="256" type="curve" smooth="yes"/>
      <point x="40" y="193"/>
      <point x="40" y="129"/>
      <point x="53" y="80" type="curve" smooth="yes"/>
      <point x="66" y="26"/>
      <point x="94" y="-10"/>
      <point x="150" y="-10" type="curve" smooth="yes"/>
      <point x="196" y="-10"/>
      <point x="221" y="19"/>
      <point x="237" y="51" type="curve"/>
      <point x="241" y="0" type="line"/>
      <point x="295" y="0" type="line"/>
      <point x="292" y="132"/>
      <point x="291" y="222"/>
      <point x="291" y="333" type="curve" smooth="yes"/>
      <point x="291" y="408"/>
      <point x="293" y="551"/>
      <point x="297" y="693" type="curve"/>
      <point x="233" y="689" type="line"/>
      <point x="234" y="632"/>
      <point x="235" y="541"/>
      <point x="236" y="485" type="curve"/>
      <point x="222" y="506"/>
      <point x="198" y="526"/>
      <point x="159" y="526" type="curve" smooth="yes"/>
      <point x="95" y="526"/>
      <point x="65" y="478"/>
      <point x="51" y="413" type="curve" smooth="yes"/>
      <point x="42" y="366"/>
      <point x="40" y="310"/>
    </contour>
    <contour>
      <point x="98" y="252" type="curve" smooth="yes"/>
      <point x="98" y="299"/>
      <point x="97" y="350"/>
      <point x="103" y="391" type="curve" smooth="yes"/>
      <point x="110" y="437"/>
      <point x="127" y="470"/>
      <point x="166" y="470" type="curve" smooth="yes"/>
      <point x="208" y="470"/>
      <point x="225" y="437"/>
      <point x="231" y="393" type="curve" smooth="yes"/>
      <point x="237" y="357"/>
      <point x="236" y="313"/>
      <point x="236" y="273" type="curve" smooth="yes"/>
      <point x="236" y="230"/>
      <point x="235" y="167"/>
      <point x="223" y="118" type="curve" smooth="yes"/>
      <point x="213" y="76"/>
      <point x="194" y="43"/>
      <point x="160" y="43" type="curve" smooth="yes"/>
      <point x="123" y="43"/>
      <point x="108" y="72"/>
      <point x="102" y="122" type="curve" smooth="yes"/>
      <point x="98" y="156"/>
      <point x="98" y="200"/>
    </contour>
  </outline>
</glyph>
<glyph name="e" format="2">
  <advance width="323"/>
  <unicode hex="0065"/>
  <anchor x="172" y="0" name="bottom"/>
  <anchor x="210" y="-5" name="ogonek"/>
  <anchor x="171" y="515" name="top"/>
  <outline>
    <contour>
      <point x="165" y="-12" type="curve"/>
      <point x="255" y="-12"/>
      <point x="287" y="38"/>
      <point x="287" y="111" type="curve" smooth="yes"/>
      <point x="287" y="128"/>
      <point x="285" y="145"/>
      <point x="282" y="164" type="curve"/>
      <point x="226" y="164" type="line"/>
      <point x="229" y="149"/>
      <point x="231" y="133"/>
      <point x="231" y="117" type="curve" smooth="yes"/>
      <point x="231" y="77"/>
      <point x="218" y="41"/>
      <point x="171" y="41" type="curve" smooth="yes"/>
      <point x="125" y="41"/>
      <point x="111" y="70"/>
      <point x="105" y="118" type="curve" smooth="yes"/>
      <point x="101" y="154"/>
      <point x="99" y="204"/>
      <point x="99" y="253" type="curve" smooth="yes"/>
      <point x="99" y="296"/>
      <point x="100" y="340"/>
      <point x="103" y="376" type="curve" smooth="yes"/>
      <point x="107" y="427"/>
      <point x="123" y="468"/>
      <point x="170" y="468" type="curve" smooth="yes"/>
      <point x="214" y="468"/>
      <point x="226" y="425"/>
      <point x="226" y="363" type="curve" smooth="yes"/>
      <point x="226" y="342"/>
      <point x="225" y="319"/>
      <point x="223" y="294" type="curve"/>
      <point x="277" y="243" type="line"/>
      <point x="280" y="276"/>
      <point x="284" y="315"/>
      <point x="284" y="353" type="curve" smooth="yes"/>
      <point x="284" y="441"/>
      <point x="264" y="524"/>
      <point x="173" y="524" type="curve" smooth="yes"/>
      <point x="100" y="524"/>
      <point x="56" y="478"/>
      <point x="46" y="378" type="curve" smooth="yes"/>
      <point x="42" y="335"/>
      <point x="40" y="293"/>
      <point x="40" y="254" type="curve" smooth="yes"/>
      <point x="40" y="191"/>
      <point x="45" y="135"/>
      <point x="52" y="90" type="curve" smooth="yes"/>
      <point x="64" y="17"/>
      <point x="99" y="-12"/>
    </contour>
    <contour>
      <point x="61" y="236" type="line"/>
      <point x="143" y="241"/>
      <point x="277" y="243"/>
      <point x="277" y="243" type="curve"/>
      <point x="277" y="296" type="line"/>
      <point x="60" y="294" type="line"/>
    </contour>
  </outline>
</glyph>
<glyph name="f" format="2">
  <advance width="237"/>
  <unicode hex="0066"/>
  <outline>
    <contour>
      <point x="13" y="458" type="line"/>
      <point x="13" y="458"/>
      <point x="90" y="461"/>
      <point x="140" y="461" type="curve"/>
      <point x="200" y="462"/>
      <point x="246" y="462"/>
      <point x="246" y="462" type="curve"/>
      <point x="249" y="517" type="line"/>
      <point x="249" y="517"/>
      <point x="200" y="515"/>
      <point x="142" y="515" type="curve"/>
      <point x="93" y="515"/>
      <point x="17" y="517"/>
      <point x="17" y="517" type="curve"/>
    </contour>
    <contour>
      <point x="198" y="706" type="curve" smooth="yes"/>
      <point x="110" y="706"/>
      <point x="86" y="628"/>
      <point x="85" y="562" type="curve" smooth="yes"/>
      <point x="83" y="453"/>
      <point x="84" y="393"/>
      <point x="84" y="270" type="curve" smooth="yes"/>
      <point x="84" y="125"/>
      <point x="77" y="-3"/>
      <point x="77" y="-3" type="curve"/>
      <point x="146" y="0" type="line"/>
      <point x="146" y="0"/>
      <point x="140" y="128"/>
      <point x="140" y="272" type="curve" smooth="yes"/>
      <point x="140" y="361"/>
      <point x="141" y="440"/>
      <point x="146" y="573" type="curve" smooth="yes"/>
      <point x="148" y="626"/>
      <point x="165" y="657"/>
      <point x="198" y="657" type="curve" smooth="yes"/>
      <point x="228" y="657"/>
      <point x="245" y="643"/>
      <point x="241" y="590" type="curve"/>
      <point x="302" y="588" type="line"/>
      <point x="306" y="654"/>
      <point x="281" y="706"/>
    </contour>
  </outline>
</glyph>
<glyph name="g" format="2">
  <advance width="337"/>
  <unicode hex="0067"/>
  <anchor x="177" y="515" name="top"/>
  <outline>
    <contour>
      <point x="156" y="-156" type="curve" smooth="yes"/>
      <point x="244" y="-156"/>
      <point x="290" y="-92"/>
      <point x="290" y="2" type="curve" smooth="yes"/>
      <point x="290" y="124"/>
      <point x="288" y="189"/>
      <point x="288" y="278" type="curve" smooth="yes"/>
      <point x="289" y="423"/>
      <point x="301" y="515"/>
      <point x="301" y="515" type="curve"/>
      <point x="238" y="515" type="line"/>
      <point x="236" y="482"/>
      <point x="232" y="400"/>
      <point x="232" y="289" type="curve" smooth="yes"/>
      <point x="232" y="162"/>
      <point x="232" y="26"/>
      <point x="231" y="-2" type="curve" smooth="yes"/>
      <point x="230" y="-65"/>
      <point x="204" y="-105"/>
      <point x="161" y="-105" type="curve" smooth="yes"/>
      <point x="131" y="-105"/>
      <point x="106" y="-92"/>
      <point x="106" y="-61" type="curve" smooth="yes"/>
      <point x="106" y="-57"/>
      <point x="106" y="-53"/>
      <point x="107" y="-48" type="curve"/>
      <point x="50" y="-56" type="line"/>
      <point x="48" y="-63"/>
      <point x="48" y="-70"/>
      <point x="48" y="-75" type="curve" smooth="yes"/>
      <point x="48" y="-124"/>
      <point x="91" y="-156"/>
    </contour>
    <contour>
      <point x="148" y="-9" type="curve" smooth="yes"/>
      <point x="256" y="-9"/>
      <point x="259" y="172"/>
      <point x="259" y="255" type="curve"/>
      <point x="232" y="213" type="line"/>
      <point x="230" y="92"/>
      <point x="199" y="50"/>
      <point x="156" y="50" type="curve" smooth="yes"/>
      <point x="124" y="50"/>
      <point x="109" y="68"/>
      <point x="104" y="110" type="curve" smooth="yes"/>
      <point x="99" y="151"/>
      <point x="97" y="190"/>
      <point x="97" y="229" type="curve" smooth="yes"/>
      <point x="97" y="277"/>
      <point x="100" y="325"/>
      <point x="105" y="379" type="curve" smooth="yes"/>
      <point x="111" y="446"/>
      <point x="137" y="465"/>
      <point x="166" y="465" type="curve" smooth="yes"/>
      <point x="218" y="465"/>
      <point x="232" y="405"/>
      <point x="232" y="291" type="curve"/>
      <point x="259" y="249" type="line"/>
      <point x="259" y="452"/>
      <point x="233" y="523"/>
      <point x="158" y="523" type="curve" smooth="yes"/>
      <point x="88" y="523"/>
      <point x="60" y="474"/>
      <point x="49" y="394" type="curve" smooth="yes"/>
      <point x="43" y="352"/>
      <point x="40" y="298"/>
      <point x="40" y="243" type="curve" smooth="yes"/>
      <point x="40" y="187"/>
      <point x="43" y="130"/>
      <point x="52" y="85" type="curve" smooth="yes"/>
      <point x="65" y="21"/>
      <point x="99" y="-9"/>
    </contour>
  </outline>
</glyph>
<glyph name="h" format="2">
  <advance width="357"/>
  <unicode hex="0068"/>
  <anchor x="181" y="0" name="bottom"/>
  <anchor x="129" y="618" name="center"/>
  <anchor x="91" y="669" name="top"/>
  <outline>
    <contour>
      <point x="58" y="0" type="curve"/>
      <point x="124" y="0" type="line"/>
      <point x="124" y="0"/>
      <point x="118" y="146"/>
      <point x="118" y="290" type="curve"/>
      <point x="118" y="433"/>
      <point x="125" y="703"/>
      <point x="125" y="703" type="curve"/>
      <point x="58" y="703" type="line"/>
      <point x="58" y="703"/>
      <point x="61" y="491"/>
      <point x="61" y="346" type="curve"/>
      <point x="61" y="200"/>
      <point x="58" y="0"/>
    </contour>
    <contour>
      <point x="304" y="0" type="line"/>
      <point x="301" y="51"/>
      <point x="299" y="108"/>
      <point x="299" y="220" type="curve" smooth="yes"/>
      <point x="299" y="297"/>
      <point x="299" y="346"/>
      <point x="299" y="402" type="curve" smooth="yes"/>
      <point x="299" y="487"/>
      <point x="271" y="520"/>
      <point x="215" y="520" type="curve" smooth="yes"/>
      <point x="115" y="520"/>
      <point x="91" y="392"/>
      <point x="91" y="279" type="curve"/>
      <point x="118" y="290" type="line"/>
      <point x="118" y="411"/>
      <point x="164" y="465"/>
      <point x="202" y="465" type="curve" smooth="yes"/>
      <point x="232" y="465"/>
      <point x="244" y="449"/>
      <point x="244" y="390" type="curve" smooth="yes"/>
      <point x="244" y="346"/>
      <point x="244" y="297"/>
      <point x="244" y="219" type="curve" smooth="yes"/>
      <point x="244" y="118"/>
      <point x="240" y="59"/>
      <point x="237" y="1" type="curve"/>
    </contour>
  </outline>
</glyph>
<glyph name="i" format="2">
  <advance width="178"/>
  <unicode hex="0069"/>
  <anchor x="86" y="0" name="bottom"/>
  <anchor x="109" y="-2" name="ogonek"/>
  <outline>
    <contour>
      <point x="122" y="0" type="line"/>
      <point x="120" y="64"/>
      <point x="115" y="146"/>
      <point x="115" y="265" type="curve"/>
      <point x="115" y="386"/>
      <point x="117" y="464"/>
      <point x="119" y="517" type="curve"/>
      <point x="53" y="516" type="line"/>
      <point x="56" y="456"/>
      <point x="60" y="388"/>
      <point x="60" y="266" type="curve"/>
      <point x="61" y="145"/>
      <point x="56" y="64"/>
      <point x="53" y="1" type="curve"/>
    </contour>
    <contour>
      <point x="117" y="617" type="line"/>
      <point x="120" y="702" type="line"/>
      <point x="53" y="698" type="line"/>
      <point x="55" y="613" type="line"/>
    </contour>
  </outline>
</glyph>
<glyph name="j" format="2">
  <advance width="192"/>
  <unicode hex="006A"/>
  <outline>
    <contour>
      <point x="12" y="-156" type="line"/>
      <point x="90" y="-156"/>
      <point x="127" y="-111"/>
      <point x="127" y="-20" type="curve" smooth="yes"/>
      <point x="127" y="71"/>
      <point x="128" y="137"/>
      <point x="128" y="283" type="curve"/>
      <point x="128" y="429"/>
      <point x="136" y="514"/>
      <point x="136" y="514" type="curve"/>
      <point x="67" y="515" type="line"/>
      <point x="67" y="515"/>
      <point x="71" y="425"/>
      <point x="71" y="282" type="curve"/>
      <point x="71" y="138"/>
      <point x="71" y="42"/>
      <point x="70" y="-23" type="curve" smooth="yes"/>
      <point x="69" y="-85"/>
      <point x="53" y="-110"/>
      <point x="10" y="-110" type="curve"/>
    </contour>
    <contour>
      <point x="69" y="613" type="line"/>
      <point x="131" y="616" type="line"/>
      <point x="134" y="702" type="line"/>
      <point x="67" y="699" type="line"/>
    </contour>
  </outline>
</glyph>
<glyph name="k" format="2">
  <advance width="332"/>
  <unicode hex="006B"/>
  <anchor x="187" y="0" name="bottom"/>
  <outline>
    <contour>
      <point x="269" y="0" type="curve"/>
      <point x="345" y="3" type="line"/>
      <point x="277" y="103"/>
      <point x="225" y="183"/>
      <point x="167" y="277" type="curve"/>
      <point x="224" y="373"/>
      <point x="263" y="438"/>
      <point x="313" y="519" type="curve"/>
      <point x="248" y="521" type="line"/>
      <point x="207" y="445"/>
      <point x="173" y="384"/>
      <point x="103" y="269" type="curve"/>
      <point x="161" y="177"/>
      <point x="220" y="88"/>
    </contour>
    <contour>
      <point x="58" y="0" type="curve"/>
      <point x="126" y="1" type="line"/>
      <point x="126" y="1"/>
      <point x="119" y="213"/>
      <point x="119" y="359" type="curve"/>
      <point x="119" y="504"/>
      <point x="126" y="698"/>
      <point x="126" y="698" type="curve"/>
      <point x="61" y="700" type="line"/>
      <point x="61" y="700"/>
      <point x="64" y="501"/>
      <point x="64" y="357" type="curve"/>
      <point x="64" y="214"/>
      <point x="58" y="0"/>
    </contour>
  </outline>
</glyph>
<glyph name="l" format="2">
  <advance width="176"/>
  <unicode hex="006C"/>
  <anchor x="88" y="0" name="bottom"/>
  <anchor x="88" y="359" name="center"/>
  <anchor x="90" y="693" name="top"/>
  <anchor x="272" y="473" name="topright"/>
  <outline>
    <contour>
      <point x="58" y="0" type="curve"/>
      <point x="126" y="8" type="line"/>
      <point x="122" y="96"/>
      <point x="116" y="251"/>
      <point x="116" y="358" type="curve"/>
      <point x="116" y="465"/>
      <point x="122" y="615"/>
      <point x="126" y="698" type="curve"/>
      <point x="59" y="697" type="line"/>
      <point x="60" y="612"/>
      <point x="61" y="461"/>
      <point x="61" y="357" type="curve"/>
      <point x="61" y="221"/>
      <point x="61" y="61"/>
    </contour>
  </outline>
</glyph>
<glyph name="m" format="2">
  <advance width="515"/>
  <unicode hex="006D"/>
  <outline>
    <contour>
      <point x="224" y="1" type="curve"/>
      <point x="291" y="1" type="line"/>
      <point x="288" y="52"/>
      <point x="286" y="178"/>
      <point x="286" y="290" type="curve" smooth="yes"/>
      <point x="286" y="433"/>
      <point x="289" y="520"/>
      <point x="207" y="520" type="curve" smooth="yes"/>
      <point x="106" y="520"/>
      <point x="87" y="392"/>
      <point x="87" y="279" type="curve"/>
      <point x="115" y="290" type="line"/>
      <point x="115" y="411"/>
      <point x="156" y="465"/>
      <point x="194" y="465" type="curve" smooth="yes"/>
      <point x="219" y="465"/>
      <point x="231" y="449"/>
      <point x="231" y="390" type="curve" smooth="yes"/>
      <point x="231" y="346"/>
      <point x="231" y="297"/>
      <point x="231" y="219" type="curve" smooth="yes"/>
      <point x="231" y="118"/>
      <point x="227" y="59"/>
    </contour>
    <contour>
      <point x="53" y="1" type="curve"/>
      <point x="118" y="1" type="line"/>
      <point x="115" y="77"/>
      <point x="114" y="165"/>
      <point x="115" y="290" type="curve"/>
      <point x="113" y="397"/>
      <point x="115" y="475"/>
      <point x="116" y="519" type="curve"/>
      <point x="57" y="516" type="line"/>
      <point x="58" y="463"/>
      <point x="60" y="358"/>
      <point x="60" y="266" type="curve" smooth="yes"/>
      <point x="60" y="137"/>
      <point x="57" y="79"/>
    </contour>
    <contour>
      <point x="462" y="0" type="line"/>
      <point x="459" y="51"/>
      <point x="457" y="108"/>
      <point x="457" y="220" type="curve" smooth="yes"/>
      <point x="457" y="297"/>
      <point x="457" y="346"/>
      <point x="457" y="402" type="curve" smooth="yes"/>
      <point x="457" y="487"/>
      <point x="429" y="520"/>
      <point x="378" y="520" type="curve" smooth="yes"/>
      <point x="277" y="520"/>
      <point x="258" y="392"/>
      <point x="258" y="279" type="curve"/>
      <point x="286" y="290" type="line"/>
      <point x="286" y="411"/>
      <point x="327" y="465"/>
      <point x="365" y="465" type="curve" smooth="yes"/>
      <point x="390" y="465"/>
      <point x="402" y="449"/>
      <point x="402" y="390" type="curve" smooth="yes"/>
      <point x="402" y="346"/>
      <point x="402" y="297"/>
      <point x="402" y="219" type="curve" smooth="yes"/>
      <point x="402" y="114"/>
      <point x="398" y="61"/>
      <point x="395" y="1" type="curve"/>
    </contour>
  </outline>
</glyph>
<glyph name="n" format="2">
  <advance width="354"/>
  <unicode hex="006E"/>
  <anchor x="178" y="0" name="bottom"/>
  <anchor x="185" y="515" name="top"/>
  <anchor x="164" y="515" name="topright"/>
  <outline>
    <contour>
      <point x="301" y="0" type="line"/>
      <point x="298" y="51"/>
      <point x="296" y="108"/>
      <point x="296" y="220" type="curve" smooth="yes"/>
      <point x="296" y="297"/>
      <point x="296" y="346"/>
      <point x="296" y="402" type="curve" smooth="yes"/>
      <point x="296" y="487"/>
      <point x="268" y="520"/>
      <point x="212" y="520" type="curve" smooth="yes"/>
      <point x="112" y="520"/>
      <point x="88" y="392"/>
      <point x="88" y="279" type="curve"/>
      <point x="115" y="290" type="line"/>
      <point x="115" y="411"/>
      <point x="161" y="465"/>
      <point x="199" y="465" type="curve" smooth="yes"/>
      <point x="229" y="465"/>
      <point x="241" y="449"/>
      <point x="241" y="390" type="curve" smooth="yes"/>
      <point x="241" y="346"/>
      <point x="241" y="297"/>
      <point x="241" y="219" type="curve" smooth="yes"/>
      <point x="241" y="118"/>
      <point x="237" y="59"/>
      <point x="234" y="1" type="curve"/>
    </contour>
    <contour>
      <point x="53" y="1" type="curve"/>
      <point x="118" y="1" type="line"/>
      <point x="115" y="77"/>
      <point x="114" y="165"/>
      <point x="115" y="290" type="curve"/>
      <point x="113" y="397"/>
      <point x="115" y="475"/>
      <point x="116" y="519" type="curve"/>
      <point x="57" y="516" type="line"/>
      <point x="57" y="516"/>
      <point x="60" y="392"/>
      <point x="60" y="266" type="curve" smooth="yes"/>
      <point x="60" y="137"/>
      <point x="57" y="79"/>
    </contour>
  </outline>
</glyph>
<glyph name="p" format="2">
  <advance width="348"/>
  <unicode hex="0070"/>
  <outline>
    <contour>
      <point x="48" y="-146" type="curve"/>
      <point x="116" y="-145" type="line"/>
      <point x="114" y="39" type="line"/>
      <point x="128" y="8"/>
      <point x="150" y="-12"/>
      <point x="187" y="-12" type="curve" smooth="yes"/>
      <point x="254" y="-12"/>
      <point x="284" y="33"/>
      <point x="297" y="97" type="curve" smooth="yes"/>
      <point x="307" y="143"/>
      <point x="308" y="198"/>
      <point x="308" y="254" type="curve" smooth="yes"/>
      <point x="308" y="309"/>
      <point x="308" y="366"/>
      <point x="299" y="414" type="curve" smooth="yes"/>
      <point x="288" y="475"/>
      <point x="261" y="520"/>
      <point x="200" y="520" type="curve" smooth="yes"/>
      <point x="158" y="520"/>
      <point x="132" y="497"/>
      <point x="115" y="462" type="curve"/>
      <point x="116" y="517" type="line"/>
      <point x="49" y="515" type="line"/>
      <point x="56" y="469"/>
      <point x="57" y="296"/>
      <point x="57" y="191" type="curve" smooth="yes"/>
      <point x="57" y="67"/>
      <point x="48" y="-146"/>
    </contour>
    <contour>
      <point x="113" y="244" type="curve"/>
      <point x="113" y="286" type="line" smooth="yes"/>
      <point x="113" y="383"/>
      <point x="137" y="464"/>
      <point x="189" y="464" type="curve" smooth="yes"/>
      <point x="222" y="464"/>
      <point x="238" y="435"/>
      <point x="246" y="393" type="curve" smooth="yes"/>
      <point x="252" y="355"/>
      <point x="252" y="307"/>
      <point x="252" y="258" type="curve" smooth="yes"/>
      <point x="252" y="210"/>
      <point x="254" y="155"/>
      <point x="246" y="113" type="curve" smooth="yes"/>
      <point x="238" y="72"/>
      <point x="221" y="43"/>
      <point x="186" y="43" type="curve" smooth="yes"/>
      <point x="137" y="43"/>
      <point x="112" y="120"/>
    </contour>
  </outline>
</glyph>
<glyph name="q" format="2">
  <advance width="347"/>
  <unicode hex="0071"/>
  <outline>
    <contour>
      <point x="40" y="256" type="curve" smooth="yes"/>
      <point x="40" y="207"/>
      <point x="42" y="159"/>
      <point x="48" y="117" type="curve" smooth="yes"/>
      <point x="61" y="44"/>
      <point x="89" y="-9"/>
      <point x="153" y="-9" type="curve" smooth="yes"/>
      <point x="194" y="-9"/>
      <point x="219" y="15"/>
      <point x="234" y="45" type="curve"/>
      <point x="230" y="-146" type="line"/>
      <point x="297" y="-147" type="line"/>
      <point x="297" y="-147"/>
      <point x="292" y="59"/>
      <point x="292" y="185" type="curve" smooth="yes"/>
      <point x="292" y="311"/>
      <point x="303" y="527"/>
      <point x="303" y="527" type="curve"/>
      <point x="238" y="525" type="line"/>
      <point x="238" y="481" type="line"/>
      <point x="223" y="508"/>
      <point x="201" y="528"/>
      <point x="160" y="528" type="curve" smooth="yes"/>
      <point x="100" y="528"/>
      <point x="69" y="484"/>
      <point x="54" y="419" type="curve" smooth="yes"/>
      <point x="43" y="372"/>
      <point x="40" y="315"/>
    </contour>
    <contour>
      <point x="98" y="260" type="curve" smooth="yes"/>
      <point x="98" y="313"/>
      <point x="98" y="364"/>
      <point x="105" y="403" type="curve" smooth="yes"/>
      <point x="113" y="446"/>
      <point x="131" y="474"/>
      <point x="167" y="474" type="curve" smooth="yes"/>
      <point x="202" y="474"/>
      <point x="219" y="441"/>
      <point x="227" y="396" type="curve" smooth="yes"/>
      <point x="236" y="353"/>
      <point x="236" y="300"/>
      <point x="236" y="255" type="curve" smooth="yes"/>
      <point x="236" y="221"/>
      <point x="235" y="175"/>
      <point x="228" y="135" type="curve" smooth="yes"/>
      <point x="219" y="87"/>
      <point x="201" y="48"/>
      <point x="164" y="48" type="curve" smooth="yes"/>
      <point x="122" y="48"/>
      <point x="107" y="86"/>
      <point x="101" y="143" type="curve" smooth="yes"/>
      <point x="98" y="177"/>
      <point x="98" y="217"/>
    </contour>
  </outline>
</glyph>
<glyph name="r" format="2">
  <advance width="293"/>
  <unicode hex="0072"/>
  <anchor x="79" y="0" name="bottom"/>
  <anchor x="176" y="515" name="top"/>
  <outline>
    <contour>
      <point x="219" y="247" type="curve"/>
      <point x="272" y="247" type="line"/>
      <point x="280" y="305"/>
      <point x="286" y="359"/>
      <point x="286" y="404" type="curve" smooth="yes"/>
      <point x="286" y="480"/>
      <point x="269" y="531"/>
      <point x="213" y="531" type="curve" smooth="yes"/>
      <point x="129" y="531"/>
      <point x="90" y="410"/>
      <point x="88" y="244" type="curve"/>
      <point x="117" y="286" type="line"/>
      <point x="116" y="400"/>
      <point x="161" y="476"/>
      <point x="201" y="476" type="curve" smooth="yes"/>
      <point x="226" y="476"/>
      <point x="233" y="446"/>
      <point x="233" y="401" type="curve" smooth="yes"/>
      <point x="233" y="358"/>
      <point x="225" y="302"/>
    </contour>
    <contour>
      <point x="53" y="-2" type="curve"/>
      <point x="118" y="0" type="line"/>
      <point x="117" y="67"/>
      <point x="117" y="164"/>
      <point x="117" y="286" type="curve"/>
      <point x="117" y="364"/>
      <point x="117" y="442"/>
      <point x="118" y="520" type="curve"/>
      <point x="59" y="518" type="line"/>
      <point x="60" y="476"/>
      <point x="62" y="298"/>
      <point x="62" y="245" type="curve" smooth="yes"/>
      <point x="62" y="123"/>
      <point x="58" y="71"/>
    </contour>
  </outline>
</glyph>
<glyph name="s" format="2">
  <advance width="300"/>
  <unicode hex="0073"/>
  <anchor x="154" y="0" name="bottom"/>
  <anchor x="159" y="515" name="top"/>
  <outline>
    <contour>
      <point x="151" y="-10" type="curve" smooth="yes"/>
      <point x="223" y="-10"/>
      <point x="273" y="32"/>
      <point x="273" y="111" type="curve" smooth="yes"/>
      <point x="273" y="187"/>
      <point x="208" y="219"/>
      <point x="157" y="261" type="curve" smooth="yes"/>
      <point x="123" y="289"/>
      <point x="94" y="315"/>
      <point x="94" y="369" type="curve" smooth="yes"/>
      <point x="94" y="435"/>
      <point x="122" y="467"/>
      <point x="158" y="467" type="curve" smooth="yes"/>
      <point x="204" y="467"/>
      <point x="215" y="426"/>
      <point x="215" y="374" type="curve" smooth="yes"/>
      <point x="215" y="351"/>
      <point x="213" y="325"/>
      <point x="210" y="300" type="curve"/>
      <point x="267" y="300" type="line"/>
      <point x="270" y="325"/>
      <point x="272" y="350"/>
      <point x="272" y="373" type="curve" smooth="yes"/>
      <point x="272" y="458"/>
      <point x="247" y="522"/>
      <point x="160" y="522" type="curve" smooth="yes"/>
      <point x="92" y="522"/>
      <point x="36" y="468"/>
      <point x="36" y="365" type="curve" smooth="yes"/>
      <point x="36" y="288"/>
      <point x="78" y="249"/>
      <point x="120" y="216" type="curve" smooth="yes"/>
      <point x="167" y="179"/>
      <point x="217" y="153"/>
      <point x="217" y="105" type="curve" smooth="yes"/>
      <point x="217" y="66"/>
      <point x="197" y="40"/>
      <point x="154" y="40" type="curve" smooth="yes"/>
      <point x="107" y="40"/>
      <point x="93" y="80"/>
      <point x="93" y="118" type="curve" smooth="yes"/>
      <point x="93" y="128"/>
      <point x="94" y="138"/>
      <point x="96" y="147" type="curve"/>
      <point x="40" y="147" type="line"/>
      <point x="39" y="135"/>
      <point x="38" y="124"/>
      <point x="38" y="114" type="curve" smooth="yes"/>
      <point x="38" y="37"/>
      <point x="74" y="-10"/>
    </contour>
  </outline>
</glyph>
<glyph name="t" format="2">
  <advance width="311"/>
  <unicode hex="0074"/>
  <anchor x="161" y="0" name="bottom"/>
  <anchor x="143" y="374" name="center"/>
  <anchor x="196" y="515" name="topright"/>
  <outline>
    <contour>
      <point x="167" y="-10" type="curve" smooth="yes"/>
      <point x="258" y="-10"/>
      <point x="278" y="51"/>
      <point x="278" y="153" type="curve" smooth="yes"/>
      <point x="278" y="195"/>
      <point x="274" y="224"/>
      <point x="271" y="278" type="curve"/>
      <point x="215" y="279" type="line"/>
      <point x="219" y="222"/>
      <point x="222" y="194"/>
      <point x="222" y="154" type="curve" smooth="yes"/>
      <point x="222" y="83"/>
      <point x="211" y="43"/>
      <point x="169" y="43" type="curve" smooth="yes"/>
      <point x="129" y="43"/>
      <point x="119" y="72"/>
      <point x="119" y="140" type="curve" smooth="yes"/>
      <point x="119" y="186"/>
      <point x="120" y="235"/>
      <point x="123" y="295" type="curve" smooth="yes"/>
      <point x="128" y="390"/>
      <point x="136" y="515"/>
      <point x="143" y="608" type="curve"/>
      <point x="74" y="607" type="line"/>
      <point x="76" y="569"/>
      <point x="70" y="397"/>
      <point x="66" y="300" type="curve" smooth="yes"/>
      <point x="62" y="218"/>
      <point x="60" y="149"/>
      <point x="60" y="112" type="curve" smooth="yes"/>
      <point x="60" y="24"/>
      <point x="102" y="-10"/>
    </contour>
    <contour>
      <point x="19" y="457" type="line"/>
      <point x="19" y="457"/>
      <point x="98" y="462"/>
      <point x="148" y="463" type="curve"/>
      <point x="198" y="464"/>
      <point x="273" y="466"/>
      <point x="273" y="466" type="curve"/>
      <point x="277" y="518" type="line"/>
      <point x="277" y="518"/>
      <point x="183" y="515"/>
      <point x="134" y="515" type="curve"/>
      <point x="85" y="514"/>
      <point x="23" y="516"/>
      <point x="23" y="516" type="curve"/>
    </contour>
  </outline>
</glyph>
<glyph name="u" format="2">
  <advance width="337"/>
  <unicode hex="0075"/>
  <anchor x="172" y="0" name="bottom"/>
  <anchor x="273" y="-3" name="ogonek"/>
  <anchor x="171" y="515" name="top"/>
  <anchor x="230" y="515" name="topright"/>
  <outline>
    <contour>
      <point x="132" y="-8" type="curve" smooth="yes"/>
      <point x="262" y="-8"/>
      <point x="264" y="194"/>
      <point x="264" y="276" type="curve"/>
      <point x="234" y="234" type="line"/>
      <point x="234" y="136"/>
      <point x="202" y="43"/>
      <point x="143" y="43" type="curve" smooth="yes"/>
      <point x="111" y="43"/>
      <point x="103" y="70"/>
      <point x="103" y="115" type="curve" smooth="yes"/>
      <point x="103" y="159"/>
      <point x="106" y="262"/>
      <point x="107" y="285" type="curve" smooth="yes"/>
      <point x="111" y="388"/>
      <point x="118" y="524"/>
      <point x="118" y="524" type="curve"/>
      <point x="55" y="518" type="line"/>
      <point x="55" y="412"/>
      <point x="54" y="333"/>
      <point x="52" y="284" type="curve" smooth="yes"/>
      <point x="51" y="254"/>
      <point x="48" y="180"/>
      <point x="48" y="116" type="curve" smooth="yes"/>
      <point x="48" y="38"/>
      <point x="75" y="-8"/>
    </contour>
    <contour>
      <point x="240" y="0" type="line"/>
      <point x="295" y="0" type="line"/>
      <point x="293" y="95"/>
      <point x="291" y="189"/>
      <point x="289" y="284" type="curve" smooth="yes"/>
      <point x="288" y="335"/>
      <point x="289" y="457"/>
      <point x="292" y="524" type="curve"/>
      <point x="230" y="525" type="line"/>
      <point x="232" y="434"/>
      <point x="234" y="316"/>
      <point x="234" y="234" type="curve"/>
      <point x="236" y="191"/>
      <point x="239" y="148"/>
      <point x="241" y="105" type="curve"/>
    </contour>
  </outline>
</glyph>
<glyph name="v" format="2">
  <advance width="310"/>
  <unicode hex="0076"/>
  <outline>
    <contour>
      <point x="14" y="519" type="line"/>
      <point x="30" y="438"/>
      <point x="47" y="357"/>
      <point x="62" y="278" type="curve" smooth="yes"/>
      <point x="80" y="182"/>
      <point x="97" y="88"/>
      <point x="111" y="-3" type="curve"/>
      <point x="201" y="-6" type="line"/>
      <point x="214" y="75"/>
      <point x="232" y="174"/>
      <point x="250" y="273" type="curve" smooth="yes"/>
      <point x="266" y="358"/>
      <point x="283" y="443"/>
      <point x="298" y="517" type="curve"/>
      <point x="232" y="514" type="line"/>
      <point x="221" y="442"/>
      <point x="207" y="360"/>
      <point x="193" y="280" type="curve" smooth="yes"/>
      <point x="180" y="204"/>
      <point x="167" y="130"/>
      <point x="156" y="71" type="curve"/>
      <point x="146" y="132"/>
      <point x="133" y="207"/>
      <point x="121" y="282" type="curve" smooth="yes"/>
      <point x="108" y="367"/>
      <point x="95" y="452"/>
      <point x="85" y="519" type="curve"/>
    </contour>
  </outline>
</glyph>
<glyph name="w" format="2">
  <advance width="487"/>
  <unicode hex="0077"/>
  <anchor x="244" y="515" name="top"/>
  <outline>
    <contour>
      <point x="106" y="-1" type="curve"/>
      <point x="178" y="1" type="line"/>
      <point x="190" y="80"/>
      <point x="206" y="169"/>
      <point x="221" y="253" type="curve" smooth="yes"/>
      <point x="229" y="300"/>
      <point x="237" y="344"/>
      <point x="244" y="385" type="curve"/>
      <point x="249" y="352"/>
      <point x="257" y="305"/>
      <point x="266" y="252" type="curve" smooth="yes"/>
      <point x="279" y="169"/>
      <point x="294" y="74"/>
      <point x="304" y="1" type="curve"/>
      <point x="381" y="-1" type="line"/>
      <point x="398" y="100"/>
      <point x="412" y="182"/>
      <point x="428" y="265" type="curve" smooth="yes"/>
      <point x="442" y="343"/>
      <point x="457" y="422"/>
      <point x="475" y="517" type="curve"/>
      <point x="416" y="518" type="line"/>
      <point x="402" y="422"/>
      <point x="389" y="343"/>
      <point x="376" y="268" type="curve" smooth="yes"/>
      <point x="367" y="208"/>
      <point x="357" y="151"/>
      <point x="346" y="90" type="curve"/>
      <point x="337" y="149"/>
      <point x="327" y="209"/>
      <point x="316" y="269" type="curve" smooth="yes"/>
      <point x="304" y="340"/>
      <point x="292" y="412"/>
      <point x="282" y="483" type="curve"/>
      <point x="212" y="484" type="line"/>
      <point x="200" y="405"/>
      <point x="188" y="337"/>
      <point x="176" y="268" type="curve" smooth="yes"/>
      <point x="165" y="210"/>
      <point x="155" y="151"/>
      <point x="144" y="86" type="curve"/>
      <point x="134" y="143"/>
      <point x="124" y="210"/>
      <point x="113" y="280" type="curve" smooth="yes"/>
      <point x="102" y="357"/>
      <point x="90" y="438"/>
      <point x="81" y="515" type="curve"/>
      <point x="14" y="515" type="line"/>
      <point x="28" y="445"/>
      <point x="45" y="355"/>
      <point x="60" y="267" type="curve" smooth="yes"/>
      <point x="80" y="158"/>
      <point x="98" y="52"/>
    </contour>
  </outline>
</glyph>
<glyph name="x" format="2">
  <advance width="286"/>
  <unicode hex="0078"/>
  <outline>
    <contour>
      <point x="59" y="-4" type="line"/>
      <point x="59" y="-4"/>
      <point x="105" y="120"/>
      <point x="164" y="261" type="curve"/>
      <point x="222" y="398"/>
      <point x="282" y="518"/>
      <point x="282" y="518" type="curve"/>
      <point x="218" y="518" type="line"/>
      <point x="218" y="518"/>
      <point x="174" y="414"/>
      <point x="119" y="279" type="curve"/>
      <point x="60" y="138"/>
      <point x="-7" y="-2"/>
      <point x="-7" y="-2" type="curve"/>
    </contour>
    <contour>
      <point x="231" y="-2" type="curve"/>
      <point x="296" y="1" type="line"/>
      <point x="296" y="1"/>
      <point x="232" y="138"/>
      <point x="175" y="279" type="curve"/>
      <point x="118" y="414"/>
      <point x="77" y="518"/>
      <point x="77" y="518" type="curve"/>
      <point x="7" y="515" type="line"/>
      <point x="7" y="515"/>
      <point x="66" y="398"/>
      <point x="124" y="261" type="curve"/>
      <point x="183" y="120"/>
      <point x="231" y="-2"/>
    </contour>
  </outline>
</glyph>
<glyph name="y" format="2">
  <advance width="311"/>
  <unicode hex="0079"/>
  <anchor x="239" y="30" name="bottom"/>
  <anchor x="155" y="515" name="top"/>
  <outline>
    <contour>
      <point x="164" y="-148" type="line"/>
      <point x="191" y="11"/>
      <point x="213" y="128"/>
      <point x="243" y="267" type="curve" smooth="yes"/>
      <point x="259" y="340"/>
      <point x="277" y="420"/>
      <point x="299" y="516" type="curve"/>
      <point x="233" y="516" type="line"/>
      <point x="217" y="432"/>
      <point x="203" y="355"/>
      <point x="189" y="281" type="curve" smooth="yes"/>
      <point x="161" y="145"/>
      <point x="134" y="15"/>
      <point x="98" y="-146" type="curve"/>
    </contour>
    <contour>
      <point x="130" y="-9" type="curve"/>
      <point x="177" y="38" type="line"/>
      <point x="159" y="118"/>
      <point x="143" y="200"/>
      <point x="128" y="278" type="curve" smooth="yes"/>
      <point x="110" y="367"/>
      <point x="94" y="449"/>
      <point x="82" y="513" type="curve"/>
      <point x="14" y="510" type="line"/>
      <point x="31" y="446"/>
      <point x="51" y="363"/>
      <point x="71" y="271" type="curve" smooth="yes"/>
      <point x="90" y="183"/>
      <point x="112" y="87"/>
    </contour>
  </outline>
</glyph>
<glyph name="z" format="2">
  <advance width="267"/>
  <unicode hex="007A"/>
  <anchor x="141" y="515" name="top"/>
  <outline>
    <contour>
      <point x="61" y="10" type="line"/>
      <point x="93" y="93"/>
      <point x="123" y="168"/>
      <point x="153" y="238" type="curve" smooth="yes"/>
      <point x="185" y="314"/>
      <point x="216" y="385"/>
      <point x="250" y="458" type="curve"/>
      <point x="199" y="495" type="line"/>
      <point x="174" y="427"/>
      <point x="141" y="346"/>
      <point x="107" y="263" type="curve" smooth="yes"/>
      <point x="77" y="192"/>
      <point x="46" y="119"/>
      <point x="17" y="53" type="curve"/>
    </contour>
    <contour>
      <point x="18" y="-4" type="line"/>
      <point x="18" y="-4"/>
      <point x="77" y="0"/>
      <point x="137" y="0" type="curve"/>
      <point x="187" y="-1"/>
      <point x="259" y="0"/>
      <point x="259" y="0" type="curve"/>
      <point x="259" y="55" type="line"/>
      <point x="259" y="55"/>
      <point x="200" y="53"/>
      <point x="152" y="52" type="curve"/>
      <point x="93" y="52"/>
      <point x="17" y="53"/>
      <point x="17" y="53" type="curve"/>
    </contour>
    <contour>
      <point x="26" y="458" type="line"/>
      <point x="26" y="458"/>
      <point x="79" y="460"/>
      <point x="128" y="460" type="curve"/>
      <point x="156" y="460"/>
      <point x="250" y="458"/>
      <point x="250" y="458" type="curve"/>
      <point x="247" y="515" type="line"/>
      <point x="247" y="515"/>
      <point x="184" y="512"/>
      <point x="144" y="512" type="curve"/>
      <point x="94" y="511"/>
      <point x="26" y="512"/>
      <point x="26" y="512" type="curve"/>
    </contour>
  </outline>
</glyph>
<glyph name="braceleft" format="2">
  <advance width="407"/>
  <unicode hex="007B"/>
  <outline>
    <contour>
      <point x="260" y="-130" type="curve" smooth="yes"/>
      <point x="291" y="-130"/>
      <point x="313" y="-119"/>
      <point x="332" y="-106" type="curve"/>
      <point x="319" y="-57" type="line"/>
      <point x="302" y="-69"/>
      <point x="281" y="-77"/>
      <point x="262" y="-77" type="curve" smooth="yes"/>
      <point x="221" y="-77"/>
      <point x="208" y="-47"/>
      <point x="208" y="-2" type="curve" smooth="yes"/>
      <point x="208" y="32"/>
      <point x="229" y="140"/>
      <point x="229" y="187" type="curve" smooth="yes"/>
      <point x="229" y="232"/>
      <point x="190" y="271"/>
      <point x="157" y="278" type="curve"/>
      <point x="190" y="285"/>
      <point x="227" y="319"/>
      <point x="227" y="364" type="curve" smooth="yes"/>
      <point x="227" y="411"/>
      <point x="196" y="540"/>
      <point x="196" y="574" type="curve" smooth="yes"/>
      <point x="196" y="619"/>
      <point x="210" y="648"/>
      <point x="251" y="648" type="curve" smooth="yes"/>
      <point x="270" y="648"/>
      <point x="285" y="641"/>
      <point x="301" y="629" type="curve"/>
      <point x="318" y="679" type="line"/>
      <point x="299" y="692"/>
      <point x="277" y="703"/>
      <point x="246" y="703" type="curve" smooth="yes"/>
      <point x="165" y="703"/>
      <point x="138" y="652"/>
      <point x="138" y="582" type="curve" smooth="yes"/>
      <point x="138" y="526"/>
      <point x="170" y="428"/>
      <point x="170" y="374" type="curve" smooth="yes"/>
      <point x="170" y="321"/>
      <point x="112" y="302"/>
      <point x="75" y="302" type="curve"/>
      <point x="82" y="243" type="line"/>
      <point x="119" y="243"/>
      <point x="170" y="225"/>
      <point x="170" y="171" type="curve" smooth="yes"/>
      <point x="170" y="117"/>
      <point x="148" y="47"/>
      <point x="148" y="-9" type="curve" smooth="yes"/>
      <point x="148" y="-79"/>
      <point x="179" y="-130"/>
    </contour>
  </outline>
</glyph>
<glyph name="bar" format="2">
  <advance width="239"/>
  <unicode hex="007C"/>
  <outline>
    <contour>
      <point x="154" y="-136" type="line"/>
      <point x="154" y="-136"/>
      <point x="144" y="116"/>
      <point x="144" y="289" type="curve" smooth="yes"/>
      <point x="144" y="463"/>
      <point x="153" y="694"/>
      <point x="153" y="694" type="curve"/>
      <point x="86" y="693" type="line"/>
      <point x="86" y="693"/>
      <point x="88" y="458"/>
      <point x="88" y="288" type="curve" smooth="yes"/>
      <point x="88" y="117"/>
      <point x="85" y="-134"/>
      <point x="85" y="-134" type="curve"/>
    </contour>
  </outline>
</glyph>
<glyph name="braceright" format="2">
  <advance width="407"/>
  <unicode hex="007D"/>
  <outline>
    <contour>
      <point x="161" y="-130" type="curve" smooth="yes"/>
      <point x="242" y="-130"/>
      <point x="269" y="-79"/>
      <point x="269" y="-9" type="curve" smooth="yes"/>
      <point x="269" y="47"/>
      <point x="237" y="145"/>
      <point x="237" y="199" type="curve" smooth="yes"/>
      <point x="237" y="252"/>
      <point x="295" y="271"/>
      <point x="332" y="271" type="curve"/>
      <point x="325" y="330" type="line"/>
      <point x="288" y="330"/>
      <point x="237" y="348"/>
      <point x="237" y="402" type="curve" smooth="yes"/>
      <point x="237" y="456"/>
      <point x="259" y="526"/>
      <point x="259" y="582" type="curve" smooth="yes"/>
      <point x="259" y="652"/>
      <point x="228" y="703"/>
      <point x="147" y="703" type="curve" smooth="yes"/>
      <point x="116" y="703"/>
      <point x="94" y="692"/>
      <point x="75" y="679" type="curve"/>
      <point x="88" y="630" type="line"/>
      <point x="105" y="642"/>
      <point x="126" y="650"/>
      <point x="145" y="650" type="curve" smooth="yes"/>
      <point x="186" y="650"/>
      <point x="199" y="620"/>
      <point x="199" y="575" type="curve" smooth="yes"/>
      <point x="199" y="541"/>
      <point x="178" y="433"/>
      <point x="178" y="386" type="curve" smooth="yes"/>
      <point x="178" y="341"/>
      <point x="217" y="302"/>
      <point x="250" y="295" type="curve"/>
      <point x="217" y="288"/>
      <point x="180" y="254"/>
      <point x="180" y="209" type="curve" smooth="yes"/>
      <point x="180" y="162"/>
      <point x="211" y="33"/>
      <point x="211" y="-1" type="curve" smooth="yes"/>
      <point x="211" y="-46"/>
      <point x="197" y="-75"/>
      <point x="156" y="-75" type="curve" smooth="yes"/>
      <point x="137" y="-75"/>
      <point x="122" y="-68"/>
      <point x="106" y="-56" type="curve"/>
      <point x="89" y="-106" type="line"/>
      <point x="108" y="-119"/>
      <point x="130" y="-130"/>
    </contour>
  </outline>
</glyph>
<glyph name="asciitilde" format="2">
  <advance width="393"/>
  <unicode hex="007E"/>
  <outline>
    <contour>
      <point x="68" y="273" type="line"/>
      <point x="83" y="283"/>
      <point x="113" y="291"/>
      <point x="137" y="291" type="curve" smooth="yes"/>
      <point x="171" y="291"/>
      <point x="213" y="275"/>
      <point x="249" y="275" type="curve" smooth="yes"/>
      <point x="287" y="275"/>
      <point x="314" y="289"/>
      <point x="328" y="299" type="curve"/>
      <point x="326" y="352" type="line"/>
      <point x="304" y="340"/>
      <point x="282" y="327"/>
      <point x="242" y="327" type="curve" smooth="yes"/>
      <point x="202" y="327"/>
      <point x="179" y="344"/>
      <point x="130" y="344" type="curve" smooth="yes"/>
      <point x="109" y="344"/>
      <point x="84" y="337"/>
      <point x="65" y="324" type="curve"/>
    </contour>
  </outline>
</glyph>
<glyph name="sterling" format="2">
  <advance width="415"/>
  <unicode hex="00A3"/>
  <outline>
    <contour>
      <point x="155" y="52" type="line"/>
      <point x="175" y="61"/>
      <point x="198" y="93"/>
      <point x="198" y="168" type="curve"/>
      <point x="198" y="349"/>
      <point x="140" y="419"/>
      <point x="140" y="518" type="curve"/>
      <point x="140" y="610"/>
      <point x="162" y="651"/>
      <point x="220" y="651" type="curve"/>
      <point x="265" y="651"/>
      <point x="283" y="613"/>
      <point x="283" y="542" type="curve"/>
      <point x="283" y="505"/>
      <point x="281" y="479"/>
      <point x="272" y="446" type="curve"/>
      <point x="330" y="447" type="line"/>
      <point x="337" y="474"/>
      <point x="341" y="511"/>
      <point x="341" y="551" type="curve"/>
      <point x="341" y="679"/>
      <point x="275" y="706"/>
      <point x="215" y="706" type="curve"/>
      <point x="142" y="706"/>
      <point x="83" y="661"/>
      <point x="83" y="521" type="curve"/>
      <point x="83" y="406"/>
      <point x="143" y="331"/>
      <point x="143" y="146" type="curve"/>
      <point x="143" y="105"/>
      <point x="122" y="62"/>
      <point x="70" y="62" type="curve"/>
    </contour>
    <contour>
      <point x="81" y="-4" type="line"/>
      <point x="81" y="-4"/>
      <point x="157" y="0"/>
      <point x="215" y="0" type="curve"/>
      <point x="271" y="1"/>
      <point x="344" y="-1"/>
      <point x="344" y="-1" type="curve"/>
      <point x="350" y="65" type="line"/>
      <point x="350" y="65"/>
      <point x="274" y="59"/>
      <point x="214" y="60" type="curve"/>
      <point x="152" y="60"/>
      <point x="70" y="62"/>
      <point x="70" y="62" type="curve"/>
    </contour>
    <contour>
      <point x="65" y="262" type="line"/>
      <point x="65" y="262"/>
      <point x="138" y="269"/>
      <point x="187" y="269" type="curve"/>
      <point x="238" y="269"/>
      <point x="278" y="265"/>
      <point x="278" y="265" type="curve"/>
      <point x="289" y="330" type="line"/>
      <point x="289" y="330"/>
      <point x="232" y="326"/>
      <point x="184" y="325" type="curve"/>
      <point x="139" y="324"/>
      <point x="68" y="325"/>
      <point x="68" y="325" type="curve"/>
    </contour>
  </outline>
</glyph>
<glyph name="yen" format="2">
  <advance width="437"/>
  <unicode hex="00A5"/>
  <outline>
    <contour>
      <point x="180" y="0" type="line"/>
      <point x="249" y="1" type="line"/>
      <point x="245" y="225" type="line"/>
      <point x="262" y="299"/>
      <point x="278" y="365"/>
      <point x="306" y="474" type="curve" smooth="yes"/>
      <point x="333" y="572"/>
      <point x="360" y="659"/>
      <point x="372" y="698" type="curve"/>
      <point x="293" y="694" type="line"/>
      <point x="284" y="648"/>
      <point x="265" y="558"/>
      <point x="247" y="478" type="curve" smooth="yes"/>
      <point x="236" y="432"/>
      <point x="225" y="391"/>
      <point x="217" y="362" type="curve"/>
      <point x="209" y="398"/>
      <point x="200" y="438"/>
      <point x="190" y="482" type="curve" smooth="yes"/>
      <point x="172" y="580"/>
      <point x="155" y="666"/>
      <point x="146" y="704" type="curve"/>
      <point x="65" y="704" type="line"/>
      <point x="78" y="663"/>
      <point x="104" y="573"/>
      <point x="127" y="475" type="curve" smooth="yes"/>
      <point x="149" y="378"/>
      <point x="175" y="263"/>
      <point x="182" y="230" type="curve"/>
    </contour>
    <contour>
      <point x="100" y="102" type="line"/>
      <point x="131" y="105"/>
      <point x="186" y="109"/>
      <point x="222" y="109" type="curve"/>
      <point x="259" y="109"/>
      <point x="296" y="107"/>
      <point x="313" y="105" type="curve"/>
      <point x="324" y="170" type="line"/>
      <point x="299" y="168"/>
      <point x="254" y="166"/>
      <point x="219" y="165" type="curve"/>
      <point x="186" y="164"/>
      <point x="134" y="165"/>
      <point x="103" y="165" type="curve"/>
    </contour>
    <contour>
      <point x="100" y="202" type="line"/>
      <point x="131" y="205"/>
      <point x="186" y="209"/>
      <point x="222" y="209" type="curve"/>
      <point x="259" y="209"/>
      <point x="296" y="207"/>
      <point x="313" y="205" type="curve"/>
      <point x="324" y="270" type="line"/>
      <point x="299" y="268"/>
      <point x="254" y="266"/>
      <point x="219" y="265" type="curve"/>
      <point x="186" y="264"/>
      <point x="134" y="265"/>
      <point x="103" y="265" type="curve"/>
    </contour>
  </outline>
</glyph>
<glyph name="section" format="2">
  <advance width="347"/>
  <unicode hex="00A7"/>
  <outline>
    <contour>
      <point x="175" y="702" type="curve"/>
      <point x="120" y="702"/>
      <point x="65" y="659"/>
      <point x="65" y="565" type="curve"/>
      <point x="65" y="489"/>
      <point x="85" y="443"/>
      <point x="136" y="394" type="curve"/>
      <point x="188" y="343"/>
      <point x="224" y="322"/>
      <point x="224" y="271" type="curve"/>
      <point x="224" y="231"/>
      <point x="202" y="211"/>
      <point x="171" y="211" type="curve"/>
      <point x="176" y="163" type="line"/>
      <point x="238" y="163"/>
      <point x="282" y="200"/>
      <point x="282" y="277" type="curve"/>
      <point x="282" y="353"/>
      <point x="206" y="399"/>
      <point x="177" y="430" type="curve"/>
      <point x="148" y="460"/>
      <point x="125" y="492"/>
      <point x="125" y="551" type="curve"/>
      <point x="125" y="619"/>
      <point x="147" y="651"/>
      <point x="182" y="651" type="curve"/>
      <point x="208" y="651"/>
      <point x="221" y="622"/>
      <point x="221" y="571" type="curve"/>
      <point x="221" y="539"/>
      <point x="220" y="514"/>
      <point x="215" y="469" type="curve"/>
      <point x="276" y="469" type="line"/>
      <point x="280" y="507"/>
      <point x="281" y="522"/>
      <point x="281" y="578" type="curve"/>
      <point x="281" y="680"/>
      <point x="222" y="702"/>
    </contour>
    <contour>
      <point x="172" y="-110" type="curve"/>
      <point x="227" y="-110"/>
      <point x="282" y="-67"/>
      <point x="282" y="27" type="curve"/>
      <point x="282" y="103"/>
      <point x="262" y="149"/>
      <point x="211" y="198" type="curve"/>
      <point x="159" y="249"/>
      <point x="123" y="270"/>
      <point x="123" y="321" type="curve"/>
      <point x="123" y="361"/>
      <point x="145" y="381"/>
      <point x="176" y="381" type="curve"/>
      <point x="171" y="429" type="line"/>
      <point x="109" y="429"/>
      <point x="65" y="392"/>
      <point x="65" y="315" type="curve"/>
      <point x="65" y="239"/>
      <point x="141" y="193"/>
      <point x="170" y="162" type="curve"/>
      <point x="199" y="132"/>
      <point x="222" y="100"/>
      <point x="222" y="41" type="curve"/>
      <point x="222" y="-27"/>
      <point x="200" y="-59"/>
      <point x="165" y="-59" type="curve"/>
      <point x="139" y="-59"/>
      <point x="126" y="-30"/>
      <point x="126" y="21" type="curve"/>
      <point x="126" y="53"/>
      <point x="127" y="78"/>
      <point x="132" y="123" type="curve"/>
      <point x="71" y="123" type="line"/>
      <point x="67" y="85"/>
      <point x="66" y="70"/>
      <point x="66" y="14" type="curve"/>
      <point x="66" y="-88"/>
      <point x="125" y="-110"/>
    </contour>
  </outline>
</glyph>
<glyph name="dieresis" format="2">
  <advance width="305"/>
  <unicode hex="00A8"/>
  <anchor x="153" y="555" name="_top"/>
  <outline>
    <contour>
      <point x="261" y="631" type="line"/>
      <point x="264" y="709" type="line"/>
      <point x="200" y="716" type="line"/>
      <point x="202" y="630" type="line"/>
    </contour>
    <contour>
      <point x="101" y="631" type="line"/>
      <point x="104" y="709" type="line"/>
      <point x="40" y="716" type="line"/>
      <point x="42" y="630" type="line"/>
    </contour>
  </outline>
</glyph>
<glyph name="copyright" format="2">
  <advance width="608"/>
  <unicode hex="00A9"/>
  <outline>
    <contour>
      <point x="294" y="68" type="curve" smooth="yes"/>
      <point x="472" y="68"/>
      <point x="548" y="214"/>
      <point x="548" y="381" type="curve" smooth="yes"/>
      <point x="548" y="551"/>
      <point x="481" y="703"/>
      <point x="307" y="703" type="curve" smooth="yes"/>
      <point x="137" y="703"/>
      <point x="61" y="554"/>
      <point x="61" y="384" type="curve" smooth="yes"/>
      <point x="61" y="216"/>
      <point x="123" y="68"/>
    </contour>
    <contour>
      <point x="300" y="186" type="curve" smooth="yes"/>
      <point x="348" y="186"/>
      <point x="381" y="221"/>
      <point x="381" y="274" type="curve" smooth="yes"/>
      <point x="381" y="298"/>
      <point x="380" y="316"/>
      <point x="378" y="330" type="curve"/>
      <point x="333" y="329" type="line"/>
      <point x="333" y="327"/>
      <point x="335" y="283"/>
      <point x="334" y="266" type="curve" smooth="yes"/>
      <point x="333" y="246"/>
      <point x="321" y="232"/>
      <point x="304" y="232" type="curve" smooth="yes"/>
      <point x="286" y="232"/>
      <point x="274" y="245"/>
      <point x="272" y="284" type="curve" smooth="yes"/>
      <point x="271" y="301"/>
      <point x="269" y="335"/>
      <point x="269" y="380" type="curve" smooth="yes"/>
      <point x="269" y="415"/>
      <point x="270" y="452"/>
      <point x="272" y="478" type="curve" smooth="yes"/>
      <point x="275" y="523"/>
      <point x="284" y="534"/>
      <point x="307" y="534" type="curve" smooth="yes"/>
      <point x="326" y="534"/>
      <point x="333" y="521"/>
      <point x="333" y="484" type="curve" smooth="yes"/>
      <point x="333" y="464"/>
      <point x="331" y="427"/>
      <point x="326" y="399" type="curve"/>
      <point x="374" y="399" type="line"/>
      <point x="378" y="427"/>
      <point x="380" y="448"/>
      <point x="380" y="493" type="curve" smooth="yes"/>
      <point x="380" y="546"/>
      <point x="353" y="581"/>
      <point x="312" y="581" type="curve" smooth="yes"/>
      <point x="257" y="581"/>
      <point x="230" y="552"/>
      <point x="224" y="487" type="curve" smooth="yes"/>
      <point x="221" y="455"/>
      <point x="220" y="414"/>
      <point x="220" y="382" type="curve" smooth="yes"/>
      <point x="220" y="338"/>
      <point x="222" y="304"/>
      <point x="227" y="265" type="curve" smooth="yes"/>
      <point x="234" y="214"/>
      <point x="260" y="186"/>
    </contour>
    <contour>
      <point x="300" y="122" type="curve" smooth="yes"/>
      <point x="165" y="122"/>
      <point x="120" y="251"/>
      <point x="120" y="384" type="curve" smooth="yes"/>
      <point x="120" y="519"/>
      <point x="170" y="649"/>
      <point x="303" y="649" type="curve" smooth="yes"/>
      <point x="441" y="649"/>
      <point x="489" y="517"/>
      <point x="489" y="382" type="curve" smooth="yes"/>
      <point x="489" y="250"/>
      <point x="440" y="122"/>
    </contour>
  </outline>
</glyph>
<glyph name="ordfeminine" format="2">
  <advance width="347"/>
  <unicode hex="00AA"/>
  <outline>
    <contour>
      <point x="75" y="521" type="curve" smooth="yes"/>
      <point x="75" y="483"/>
      <point x="102" y="461"/>
      <point x="143" y="461" type="curve" smooth="yes"/>
      <point x="173" y="461"/>
      <point x="194" y="474"/>
      <point x="209" y="491" type="curve"/>
      <point x="213" y="480"/>
      <point x="220" y="468"/>
      <point x="229" y="461" type="curve"/>
      <point x="272" y="481" type="line"/>
      <point x="264" y="488"/>
      <point x="250" y="506"/>
      <point x="251" y="524" type="curve" smooth="yes"/>
      <point x="254" y="631" type="line" smooth="yes"/>
      <point x="255" y="659"/>
      <point x="240" y="703"/>
      <point x="171" y="703" type="curve" smooth="yes"/>
      <point x="120" y="703"/>
      <point x="84" y="679"/>
      <point x="84" y="635" type="curve"/>
      <point x="128" y="629" type="line"/>
      <point x="128" y="658"/>
      <point x="153" y="666"/>
      <point x="171" y="666" type="curve" smooth="yes"/>
      <point x="196" y="666"/>
      <point x="207" y="650"/>
      <point x="207" y="632" type="curve" smooth="yes"/>
      <point x="207" y="614"/>
      <point x="175" y="608"/>
      <point x="142" y="591" type="curve" smooth="yes"/>
      <point x="106" y="573"/>
      <point x="75" y="558"/>
    </contour>
    <contour>
      <point x="121" y="521" type="curve" smooth="yes"/>
      <point x="121" y="541"/>
      <point x="139" y="548"/>
      <point x="174" y="565" type="curve" smooth="yes"/>
      <point x="187" y="571"/>
      <point x="199" y="578"/>
      <point x="209" y="585" type="curve"/>
      <point x="208" y="550" type="line" smooth="yes"/>
      <point x="207" y="512"/>
      <point x="167" y="497"/>
      <point x="146" y="497" type="curve" smooth="yes"/>
      <point x="130" y="497"/>
      <point x="121" y="508"/>
    </contour>
  </outline>
</glyph>
<glyph name="guillemetleft" format="2">
  <advance width="562"/>
  <unicode hex="00AB"/>
  <outline>
    <contour>
      <point x="80" y="249" type="line"/>
      <point x="80" y="249"/>
      <point x="133" y="297"/>
      <point x="183" y="340" type="curve"/>
      <point x="229" y="378"/>
      <point x="285" y="415"/>
      <point x="285" y="415" type="curve"/>
      <point x="256" y="483" type="line"/>
      <point x="256" y="483"/>
      <point x="199" y="424"/>
      <point x="163" y="388" type="curve"/>
      <point x="123" y="352"/>
      <point x="75" y="313"/>
      <point x="75" y="313" type="curve"/>
    </contour>
    <contour>
      <point x="265" y="106" type="curve"/>
      <point x="287" y="180" type="line"/>
      <point x="287" y="180"/>
      <point x="242" y="209"/>
      <point x="194" y="240" type="curve"/>
      <point x="152" y="269"/>
      <point x="75" y="315"/>
      <point x="75" y="313" type="curve"/>
      <point x="80" y="249" type="line"/>
      <point x="80" y="249"/>
      <point x="127" y="223"/>
      <point x="171" y="189" type="curve"/>
      <point x="216" y="152"/>
      <point x="265" y="106"/>
    </contour>
    <contour>
      <point x="280" y="249" type="line"/>
      <point x="280" y="249"/>
      <point x="333" y="297"/>
      <point x="383" y="340" type="curve"/>
      <point x="429" y="378"/>
      <point x="485" y="415"/>
      <point x="485" y="415" type="curve"/>
      <point x="456" y="483" type="line"/>
      <point x="456" y="483"/>
      <point x="399" y="424"/>
      <point x="363" y="388" type="curve"/>
      <point x="323" y="352"/>
      <point x="275" y="313"/>
      <point x="275" y="313" type="curve"/>
    </contour>
    <contour>
      <point x="465" y="106" type="curve"/>
      <point x="487" y="180" type="line"/>
      <point x="487" y="180"/>
      <point x="442" y="209"/>
      <point x="394" y="240" type="curve"/>
      <point x="352" y="269"/>
      <point x="275" y="315"/>
      <point x="275" y="313" type="curve"/>
      <point x="280" y="249" type="line"/>
      <point x="280" y="249"/>
      <point x="327" y="223"/>
      <point x="371" y="189" type="curve"/>
      <point x="416" y="152"/>
      <point x="465" y="106"/>
    </contour>
  </outline>
</glyph>
<glyph name="registered" format="2">
  <advance width="470"/>
  <unicode hex="00AE"/>
  <outline>
    <contour>
      <point x="228" y="229" type="curve" smooth="yes"/>
      <point x="361" y="229"/>
      <point x="417" y="338"/>
      <point x="417" y="462" type="curve" smooth="yes"/>
      <point x="417" y="589"/>
      <point x="368" y="702"/>
      <point x="237" y="702" type="curve" smooth="yes"/>
      <point x="111" y="702"/>
      <point x="54" y="591"/>
      <point x="54" y="464" type="curve" smooth="yes"/>
      <point x="54" y="339"/>
      <point x="101" y="229"/>
    </contour>
    <contour>
      <point x="231" y="274" type="curve" smooth="yes"/>
      <point x="134" y="274"/>
      <point x="101" y="368"/>
      <point x="101" y="464" type="curve" smooth="yes"/>
      <point x="101" y="562"/>
      <point x="138" y="657"/>
      <point x="234" y="657" type="curve" smooth="yes"/>
      <point x="335" y="657"/>
      <point x="370" y="561"/>
      <point x="370" y="463" type="curve" smooth="yes"/>
      <point x="370" y="367"/>
      <point x="333" y="274"/>
    </contour>
    <contour>
      <point x="261" y="321" type="curve"/>
      <point x="305" y="323" type="line"/>
      <point x="288" y="360"/>
      <point x="274" y="392"/>
      <point x="263" y="424" type="curve"/>
      <point x="282" y="440"/>
      <point x="290" y="468"/>
      <point x="290" y="511" type="curve" smooth="yes"/>
      <point x="290" y="581"/>
      <point x="272" y="611"/>
      <point x="228" y="611" type="curve" smooth="yes"/>
      <point x="211" y="611"/>
      <point x="199" y="610"/>
      <point x="182" y="609" type="curve"/>
      <point x="184" y="586"/>
      <point x="183" y="526"/>
      <point x="183" y="466" type="curve" smooth="yes"/>
      <point x="183" y="416"/>
      <point x="182" y="355"/>
      <point x="182" y="322" type="curve"/>
      <point x="226" y="322" type="line"/>
      <point x="224" y="360"/>
      <point x="223" y="386"/>
      <point x="222" y="409" type="curve"/>
      <point x="225" y="409"/>
      <point x="228" y="410"/>
      <point x="231" y="410" type="curve"/>
      <point x="243" y="380"/>
      <point x="252" y="352"/>
    </contour>
    <contour>
      <point x="221" y="443" type="curve"/>
      <point x="220" y="453"/>
      <point x="219" y="486"/>
      <point x="219" y="515" type="curve" smooth="yes"/>
      <point x="219" y="543"/>
      <point x="220" y="569"/>
      <point x="220" y="579" type="curve"/>
      <point x="222" y="579"/>
      <point x="224" y="579"/>
      <point x="226" y="579" type="curve" smooth="yes"/>
      <point x="247" y="579"/>
      <point x="256" y="559"/>
      <point x="256" y="509" type="curve" smooth="yes"/>
      <point x="256" y="456"/>
      <point x="245" y="445"/>
    </contour>
  </outline>
</glyph>
<glyph name="degree" format="2">
  <advance width="347"/>
  <unicode hex="00B0"/>
  <outline>
    <contour>
      <point x="176" y="501" type="curve"/>
      <point x="239" y="501"/>
      <point x="283" y="546"/>
      <point x="283" y="609" type="curve"/>
      <point x="283" y="664"/>
      <point x="239" y="703"/>
      <point x="173" y="703" type="curve"/>
      <point x="106" y="703"/>
      <point x="64" y="660"/>
      <point x="64" y="594" type="curve"/>
      <point x="64" y="572"/>
      <point x="73" y="501"/>
    </contour>
    <contour>
      <point x="177" y="530" type="curve"/>
      <point x="116" y="530"/>
      <point x="102" y="569"/>
      <point x="102" y="603" type="curve" smooth="yes"/>
      <point x="102" y="638"/>
      <point x="128" y="674"/>
      <point x="173" y="674" type="curve"/>
      <point x="206" y="674"/>
      <point x="245" y="653"/>
      <point x="245" y="611" type="curve" smooth="yes"/>
      <point x="245" y="566"/>
      <point x="226" y="530"/>
    </contour>
  </outline>
</glyph>
<glyph name="twosuperior" format="2">
  <advance width="245"/>
  <unicode hex="00B2"/>
  <outline>
    <contour>
      <point x="94" y="590" type="line"/>
      <point x="136" y="617"/>
      <point x="188" y="678"/>
      <point x="188" y="743" type="curve" smooth="yes"/>
      <point x="188" y="785"/>
      <point x="163" y="804"/>
      <point x="125" y="805" type="curve" smooth="yes"/>
      <point x="91" y="806"/>
      <point x="56" y="785"/>
      <point x="56" y="740" type="curve" smooth="yes"/>
      <point x="56" y="727"/>
      <point x="57" y="712"/>
      <point x="59" y="702" type="curve"/>
      <point x="101" y="703" type="line"/>
      <point x="99" y="713"/>
      <point x="97" y="724"/>
      <point x="97" y="736" type="curve" smooth="yes"/>
      <point x="97" y="763"/>
      <point x="108" y="771"/>
      <point x="122" y="771" type="curve" smooth="yes"/>
      <point x="138" y="771"/>
      <point x="145" y="761"/>
      <point x="145" y="731" type="curve" smooth="yes"/>
      <point x="145" y="673"/>
      <point x="98" y="641"/>
      <point x="50" y="601" type="curve"/>
    </contour>
    <contour>
      <point x="49" y="563" type="line"/>
      <point x="49" y="563"/>
      <point x="100" y="564"/>
      <point x="121" y="565" type="curve"/>
      <point x="142" y="565"/>
      <point x="192" y="565"/>
      <point x="192" y="565" type="curve"/>
      <point x="191" y="604" type="line"/>
      <point x="191" y="604"/>
      <point x="146" y="603"/>
      <point x="126" y="602" type="curve"/>
      <point x="105" y="602"/>
      <point x="50" y="601"/>
      <point x="50" y="601" type="curve"/>
    </contour>
  </outline>
</glyph>
<glyph name="threesuperior" format="2">
  <advance width="245"/>
  <unicode hex="00B3"/>
  <outline>
    <contour>
      <point x="119" y="559" type="curve" smooth="yes"/>
      <point x="169" y="559"/>
      <point x="187" y="587"/>
      <point x="187" y="622" type="curve" smooth="yes"/>
      <point x="187" y="649"/>
      <point x="169" y="663"/>
      <point x="160" y="667" type="curve"/>
      <point x="179" y="681"/>
      <point x="191" y="710"/>
      <point x="191" y="740" type="curve" smooth="yes"/>
      <point x="191" y="784"/>
      <point x="166" y="806"/>
      <point x="123" y="806" type="curve" smooth="yes"/>
      <point x="84" y="806"/>
      <point x="56" y="779"/>
      <point x="56" y="737" type="curve" smooth="yes"/>
      <point x="56" y="726"/>
      <point x="57" y="715"/>
      <point x="59" y="708" type="curve"/>
      <point x="101" y="709" type="line"/>
      <point x="98" y="719"/>
      <point x="98" y="727"/>
      <point x="98" y="734" type="curve" smooth="yes"/>
      <point x="98" y="752"/>
      <point x="105" y="771"/>
      <point x="123" y="771" type="curve" smooth="yes"/>
      <point x="144" y="771"/>
      <point x="149" y="755"/>
      <point x="149" y="724" type="curve" smooth="yes"/>
      <point x="149" y="680"/>
      <point x="126" y="682"/>
      <point x="108" y="682" type="curve"/>
      <point x="102" y="682"/>
      <point x="88" y="682"/>
      <point x="83" y="683" type="curve"/>
      <point x="83" y="651" type="line"/>
      <point x="88" y="651"/>
      <point x="105" y="651"/>
      <point x="110" y="651" type="curve"/>
      <point x="126" y="651"/>
      <point x="145" y="649"/>
      <point x="145" y="627" type="curve" smooth="yes"/>
      <point x="145" y="608"/>
      <point x="138" y="595"/>
      <point x="120" y="595" type="curve" smooth="yes"/>
      <point x="98" y="595"/>
      <point x="94" y="610"/>
      <point x="94" y="626" type="curve"/>
      <point x="53" y="625" type="line"/>
      <point x="53" y="603"/>
      <point x="58" y="559"/>
    </contour>
  </outline>
</glyph>
<glyph name="periodcentered" format="2">
  <advance width="250"/>
  <unicode hex="00B7"/>
  <outline>
    <contour>
      <point x="165" y="237" type="line"/>
      <point x="163" y="372" type="line"/>
      <point x="85" y="367" type="line"/>
      <point x="89" y="239" type="line"/>
    </contour>
  </outline>
</glyph>
<glyph name="cedilla" format="2">
  <advance width="305"/>
  <unicode hex="00B8"/>
  <anchor x="153" y="0" name="_bottom"/>
  <outline>
    <contour>
      <point x="115" y="-162" type="curve" smooth="yes"/>
      <point x="176" y="-162"/>
      <point x="233" y="-147"/>
      <point x="233" y="-98" type="curve" smooth="yes"/>
      <point x="233" y="-64"/>
      <point x="203" y="-37"/>
      <point x="123" y="-39" type="curve"/>
      <point x="112" y="-76" type="line"/>
      <point x="167" y="-76"/>
      <point x="184" y="-85"/>
      <point x="184" y="-99" type="curve" smooth="yes"/>
      <point x="184" y="-115"/>
      <point x="157" y="-120"/>
      <point x="128" y="-120" type="curve" smooth="yes"/>
      <point x="110" y="-120"/>
      <point x="91" y="-118"/>
      <point x="79" y="-115" type="curve"/>
      <point x="71" y="-160" type="line"/>
      <point x="85" y="-162"/>
      <point x="101" y="-162"/>
    </contour>
    <contour>
      <point x="165" y="0" type="line"/>
      <point x="129" y="0" type="line"/>
      <point x="112" y="-76" type="line"/>
      <point x="148" y="-76" type="line"/>
    </contour>
  </outline>
</glyph>
<glyph name="onesuperior" format="2">
  <advance width="245"/>
  <unicode hex="00B9"/>
  <outline>
    <contour>
      <point x="115" y="567" type="curve"/>
      <point x="164" y="567" type="line"/>
      <point x="161" y="645"/>
      <point x="161" y="721"/>
      <point x="165" y="801" type="curve"/>
      <point x="142" y="801" type="line"/>
      <point x="117" y="751" type="line"/>
      <point x="119" y="691"/>
      <point x="118" y="621"/>
    </contour>
    <contour>
      <point x="63" y="727" type="line"/>
      <point x="88" y="727"/>
      <point x="117" y="734"/>
      <point x="138" y="742" type="curve"/>
      <point x="142" y="801" type="line"/>
      <point x="122" y="781"/>
      <point x="86" y="761"/>
      <point x="60" y="756" type="curve"/>
    </contour>
  </outline>
</glyph>
<glyph name="ordmasculine" format="2">
  <advance width="332"/>
  <unicode hex="00BA"/>
  <outline>
    <contour>
      <point x="164" y="469" type="curve" smooth="yes"/>
      <point x="231" y="469"/>
      <point x="257" y="514"/>
      <point x="257" y="590" type="curve" smooth="yes"/>
      <point x="257" y="659"/>
      <point x="236" y="703"/>
      <point x="169" y="703" type="curve" smooth="yes"/>
      <point x="109" y="703"/>
      <point x="75" y="665"/>
      <point x="75" y="590" type="curve" smooth="yes"/>
      <point x="75" y="507"/>
      <point x="107" y="469"/>
    </contour>
    <contour>
      <point x="164" y="514" type="curve" smooth="yes"/>
      <point x="139" y="514"/>
      <point x="121" y="535"/>
      <point x="121" y="589" type="curve" smooth="yes"/>
      <point x="121" y="638"/>
      <point x="135" y="661"/>
      <point x="168" y="661" type="curve" smooth="yes"/>
      <point x="194" y="661"/>
      <point x="211" y="646"/>
      <point x="211" y="593" type="curve" smooth="yes"/>
      <point x="211" y="552"/>
      <point x="206" y="514"/>
    </contour>
  </outline>
</glyph>
<glyph name="guillemetright" format="2">
  <advance width="562"/>
  <unicode hex="00BB"/>
  <outline>
    <contour>
      <point x="487" y="276" type="curve"/>
      <point x="482" y="340" type="line"/>
      <point x="452" y="360"/>
      <point x="421" y="380"/>
      <point x="391" y="400" type="curve"/>
      <point x="360" y="428"/>
      <point x="328" y="455"/>
      <point x="297" y="483" type="curve"/>
      <point x="275" y="409" type="line"/>
      <point x="306" y="389"/>
      <point x="337" y="369"/>
      <point x="368" y="349" type="curve"/>
      <point x="408" y="325"/>
      <point x="447" y="300"/>
    </contour>
    <contour>
      <point x="287" y="276" type="curve"/>
      <point x="282" y="340" type="line"/>
      <point x="252" y="360"/>
      <point x="221" y="380"/>
      <point x="191" y="400" type="curve"/>
      <point x="160" y="428"/>
      <point x="128" y="455"/>
      <point x="97" y="483" type="curve"/>
      <point x="75" y="409" type="line"/>
      <point x="106" y="389"/>
      <point x="137" y="369"/>
      <point x="168" y="349" type="curve"/>
      <point x="208" y="325"/>
      <point x="247" y="300"/>
    </contour>
    <contour>
      <point x="306" y="106" type="line"/>
      <point x="337" y="138"/>
      <point x="368" y="169"/>
      <point x="399" y="201" type="curve"/>
      <point x="428" y="226"/>
      <point x="458" y="251"/>
      <point x="487" y="276" type="curve"/>
      <point x="482" y="340" type="line"/>
      <point x="448" y="310"/>
      <point x="413" y="279"/>
      <point x="379" y="249" type="curve"/>
      <point x="345" y="224"/>
      <point x="311" y="199"/>
      <point x="277" y="174" type="curve"/>
    </contour>
    <contour>
      <point x="106" y="106" type="line"/>
      <point x="137" y="138"/>
      <point x="168" y="169"/>
      <point x="199" y="201" type="curve"/>
      <point x="228" y="226"/>
      <point x="258" y="251"/>
      <point x="287" y="276" type="curve"/>
      <point x="282" y="340" type="line"/>
      <point x="248" y="310"/>
      <point x="213" y="279"/>
      <point x="179" y="249" type="curve"/>
      <point x="145" y="224"/>
      <point x="111" y="199"/>
      <point x="77" y="174" type="curve"/>
    </contour>
  </outline>
</glyph>
<glyph name="onequarter" format="2">
  <advance width="556"/>
  <unicode hex="00BC"/>
  <outline>
    <contour>
      <point x="85" y="-1" type="curve"/>
      <point x="152" y="0" type="line"/>
      <point x="189" y="87"/>
      <point x="254" y="239"/>
      <point x="299" y="340" type="curve" smooth="yes"/>
      <point x="346" y="445"/>
      <point x="419" y="604"/>
      <point x="461" y="695" type="curve"/>
      <point x="393" y="697" type="line"/>
      <point x="357" y="606"/>
      <point x="291" y="446"/>
      <point x="243" y="339" type="curve" smooth="yes"/>
      <point x="197" y="237"/>
      <point x="126" y="85"/>
    </contour>
    <contour>
      <point x="153" y="461" type="curve"/>
      <point x="202" y="461" type="line"/>
      <point x="199" y="539"/>
      <point x="199" y="615"/>
      <point x="203" y="695" type="curve"/>
      <point x="180" y="695" type="line"/>
      <point x="160" y="675"/>
      <point x="124" y="655"/>
      <point x="98" y="650" type="curve"/>
      <point x="101" y="621" type="line"/>
      <point x="119" y="621"/>
      <point x="138" y="624"/>
      <point x="155" y="629" type="curve"/>
      <point x="157" y="573"/>
      <point x="156" y="510"/>
    </contour>
    <contour>
      <point x="381" y="-1" type="line"/>
      <point x="426" y="0" type="line"/>
      <point x="425" y="49" type="line"/>
      <point x="449" y="49" type="line"/>
      <point x="449" y="91" type="line"/>
      <point x="425" y="90" type="line"/>
      <point x="425" y="149" type="line" smooth="yes"/>
      <point x="425" y="178"/>
      <point x="426" y="206"/>
      <point x="426" y="235" type="curve"/>
      <point x="349" y="236" type="line"/>
      <point x="340" y="213"/>
      <point x="332" y="189"/>
      <point x="323" y="166" type="curve" smooth="yes"/>
      <point x="294" y="89" type="line"/>
      <point x="299" y="48" type="line"/>
      <point x="382" y="49" type="line"/>
    </contour>
    <contour>
      <point x="338" y="88" type="line"/>
      <point x="381" y="211" type="line"/>
      <point x="382" y="88" type="line"/>
    </contour>
  </outline>
</glyph>
<glyph name="onehalf" format="2">
  <advance width="556"/>
  <unicode hex="00BD"/>
  <outline>
    <contour>
      <point x="85" y="-1" type="curve"/>
      <point x="152" y="0" type="line"/>
      <point x="189" y="87"/>
      <point x="254" y="239"/>
      <point x="299" y="340" type="curve" smooth="yes"/>
      <point x="346" y="445"/>
      <point x="419" y="604"/>
      <point x="461" y="695" type="curve"/>
      <point x="393" y="697" type="line"/>
      <point x="357" y="606"/>
      <point x="291" y="446"/>
      <point x="243" y="339" type="curve" smooth="yes"/>
      <point x="197" y="237"/>
      <point x="126" y="85"/>
    </contour>
    <contour>
      <point x="311" y="-2" type="line"/>
      <point x="333" y="-2"/>
      <point x="368" y="-1"/>
      <point x="383" y="0" type="curve" smooth="yes"/>
      <point x="454" y="0" type="line"/>
      <point x="453" y="39" type="line"/>
      <point x="433" y="39"/>
      <point x="398" y="38"/>
      <point x="372" y="37" type="curve"/>
      <point x="410" y="68"/>
      <point x="450" y="121"/>
      <point x="450" y="178" type="curve" smooth="yes"/>
      <point x="450" y="220"/>
      <point x="425" y="239"/>
      <point x="387" y="240" type="curve" smooth="yes"/>
      <point x="353" y="241"/>
      <point x="318" y="220"/>
      <point x="318" y="175" type="curve" smooth="yes"/>
      <point x="318" y="162"/>
      <point x="319" y="147"/>
      <point x="321" y="137" type="curve"/>
      <point x="363" y="138" type="line"/>
      <point x="361" y="148"/>
      <point x="359" y="159"/>
      <point x="359" y="171" type="curve" smooth="yes"/>
      <point x="359" y="198"/>
      <point x="370" y="206"/>
      <point x="384" y="206" type="curve" smooth="yes"/>
      <point x="400" y="206"/>
      <point x="407" y="196"/>
      <point x="407" y="166" type="curve" smooth="yes"/>
      <point x="407" y="108"/>
      <point x="360" y="76"/>
      <point x="312" y="36" type="curve"/>
    </contour>
    <contour>
      <point x="153" y="461" type="curve"/>
      <point x="202" y="461" type="line"/>
      <point x="199" y="539"/>
      <point x="199" y="615"/>
      <point x="203" y="695" type="curve"/>
      <point x="180" y="695" type="line"/>
      <point x="160" y="675"/>
      <point x="124" y="655"/>
      <point x="98" y="650" type="curve"/>
      <point x="101" y="621" type="line"/>
      <point x="119" y="621"/>
      <point x="138" y="624"/>
      <point x="155" y="629" type="curve"/>
      <point x="157" y="573"/>
      <point x="156" y="510"/>
    </contour>
  </outline>
</glyph>
<glyph name="threequarters" format="2">
  <advance width="556"/>
  <unicode hex="00BE"/>
  <outline>
    <contour>
      <point x="85" y="-1" type="curve"/>
      <point x="152" y="0" type="line"/>
      <point x="189" y="87"/>
      <point x="254" y="239"/>
      <point x="299" y="340" type="curve" smooth="yes"/>
      <point x="346" y="445"/>
      <point x="419" y="604"/>
      <point x="461" y="695" type="curve"/>
      <point x="393" y="697" type="line"/>
      <point x="357" y="606"/>
      <point x="291" y="446"/>
      <point x="243" y="339" type="curve" smooth="yes"/>
      <point x="197" y="237"/>
      <point x="126" y="85"/>
    </contour>
    <contour>
      <point x="154" y="453" type="curve" smooth="yes"/>
      <point x="204" y="453"/>
      <point x="222" y="481"/>
      <point x="222" y="516" type="curve" smooth="yes"/>
      <point x="222" y="543"/>
      <point x="204" y="557"/>
      <point x="195" y="561" type="curve"/>
      <point x="214" y="575"/>
      <point x="226" y="604"/>
      <point x="226" y="634" type="curve" smooth="yes"/>
      <point x="226" y="678"/>
      <point x="201" y="700"/>
      <point x="158" y="700" type="curve" smooth="yes"/>
      <point x="119" y="700"/>
      <point x="91" y="673"/>
      <point x="91" y="631" type="curve" smooth="yes"/>
      <point x="91" y="620"/>
      <point x="92" y="609"/>
      <point x="94" y="602" type="curve"/>
      <point x="136" y="603" type="line"/>
      <point x="133" y="613"/>
      <point x="133" y="621"/>
      <point x="133" y="628" type="curve" smooth="yes"/>
      <point x="133" y="646"/>
      <point x="140" y="665"/>
      <point x="158" y="665" type="curve" smooth="yes"/>
      <point x="179" y="665"/>
      <point x="184" y="649"/>
      <point x="184" y="618" type="curve" smooth="yes"/>
      <point x="184" y="574"/>
      <point x="161" y="576"/>
      <point x="143" y="576" type="curve"/>
      <point x="137" y="576"/>
      <point x="123" y="576"/>
      <point x="118" y="577" type="curve"/>
      <point x="118" y="545" type="line"/>
      <point x="123" y="545"/>
      <point x="140" y="545"/>
      <point x="145" y="545" type="curve"/>
      <point x="161" y="545"/>
      <point x="180" y="543"/>
      <point x="180" y="521" type="curve" smooth="yes"/>
      <point x="180" y="502"/>
      <point x="173" y="489"/>
      <point x="155" y="489" type="curve" smooth="yes"/>
      <point x="133" y="489"/>
      <point x="129" y="504"/>
      <point x="129" y="520" type="curve"/>
      <point x="88" y="519" type="line"/>
      <point x="88" y="497"/>
      <point x="93" y="453"/>
    </contour>
    <contour>
      <point x="381" y="-1" type="line"/>
      <point x="426" y="0" type="line"/>
      <point x="425" y="49" type="line"/>
      <point x="449" y="49" type="line"/>
      <point x="449" y="91" type="line"/>
      <point x="425" y="90" type="line"/>
      <point x="425" y="149" type="line" smooth="yes"/>
      <point x="425" y="178"/>
      <point x="426" y="206"/>
      <point x="426" y="235" type="curve"/>
      <point x="349" y="236" type="line"/>
      <point x="340" y="213"/>
      <point x="332" y="189"/>
      <point x="323" y="166" type="curve" smooth="yes"/>
      <point x="294" y="89" type="line"/>
      <point x="299" y="48" type="line"/>
      <point x="382" y="49" type="line"/>
    </contour>
    <contour>
      <point x="338" y="88" type="line"/>
      <point x="381" y="211" type="line"/>
      <point x="382" y="88" type="line"/>
    </contour>
  </outline>
</glyph>
<glyph name="questiondown" format="2">
  <advance width="415"/>
  <unicode hex="00BF"/>
  <outline>
    <contour>
      <point x="178" y="347" type="line"/>
      <point x="184" y="321"/>
      <point x="184" y="306"/>
      <point x="184" y="280" type="curve"/>
      <point x="184" y="226"/>
      <point x="156" y="207"/>
      <point x="129" y="177" type="curve" smooth="yes"/>
      <point x="102" y="148"/>
      <point x="75" y="108"/>
      <point x="75" y="13" type="curve"/>
      <point x="75" y="-82"/>
      <point x="121" y="-158"/>
      <point x="205" y="-158" type="curve"/>
      <point x="265" y="-158"/>
      <point x="340" y="-139"/>
      <point x="340" y="-4" type="curve" smooth="yes"/>
      <point x="340" y="36"/>
      <point x="335" y="72"/>
      <point x="331" y="93" type="curve"/>
      <point x="267" y="92" type="line"/>
      <point x="271" y="75"/>
      <point x="275" y="42"/>
      <point x="275" y="6" type="curve" smooth="yes"/>
      <point x="275" y="-72"/>
      <point x="252" y="-98"/>
      <point x="211" y="-98" type="curve"/>
      <point x="151" y="-98"/>
      <point x="139" y="-26"/>
      <point x="139" y="16" type="curve"/>
      <point x="139" y="80"/>
      <point x="157" y="115"/>
      <point x="178" y="142" type="curve" smooth="yes"/>
      <point x="210" y="182"/>
      <point x="249" y="204"/>
      <point x="249" y="276" type="curve"/>
      <point x="249" y="301"/>
      <point x="247" y="332"/>
      <point x="244" y="347" type="curve"/>
    </contour>
    <contour>
      <point x="252" y="561" type="line"/>
      <point x="172" y="555" type="line"/>
      <point x="181" y="428" type="line"/>
      <point x="246" y="430" type="line"/>
    </contour>
  </outline>
</glyph>
<glyph name="AE" format="2">
  <advance width="498"/>
  <unicode hex="00C6"/>
  <anchor x="302" y="693" name="top"/>
  <outline>
    <contour>
      <point x="14" y="1" type="curve"/>
      <point x="85" y="-1" type="line"/>
      <point x="98" y="52"/>
      <point x="110" y="104"/>
      <point x="123" y="157" type="curve"/>
      <point x="237" y="161" type="line"/>
      <point x="235" y="0" type="line"/>
      <point x="475" y="3" type="line"/>
      <point x="471" y="61" type="line"/>
      <point x="304" y="66" type="line"/>
      <point x="302" y="211" type="line"/>
      <point x="470" y="214" type="line"/>
      <point x="472" y="271" type="line"/>
      <point x="302" y="274" type="line"/>
      <point x="301" y="393" type="line" smooth="yes"/>
      <point x="300" y="467"/>
      <point x="302" y="567"/>
      <point x="303" y="630" type="curve"/>
      <point x="462" y="632" type="line"/>
      <point x="460" y="690" type="line"/>
      <point x="198" y="698" type="line"/>
      <point x="179" y="621"/>
      <point x="142" y="473"/>
      <point x="108" y="346" type="curve" smooth="yes"/>
      <point x="74" y="220"/>
      <point x="35" y="75"/>
    </contour>
    <contour>
      <point x="237" y="216" type="line"/>
      <point x="137" y="218" type="line"/>
      <point x="146" y="255"/>
      <point x="155" y="293"/>
      <point x="164" y="330" type="curve" smooth="yes"/>
      <point x="189" y="432"/>
      <point x="219" y="525"/>
      <point x="236" y="588" type="curve"/>
      <point x="237" y="535"/>
      <point x="238" y="466"/>
      <point x="238" y="391" type="curve" smooth="yes"/>
    </contour>
  </outline>
</glyph>
<glyph name="Eth" format="2">
  <advance width="385"/>
  <unicode hex="00D0"/>
  <outline>
    <contour>
      <point x="17" y="322" type="line"/>
      <point x="37" y="322"/>
      <point x="82" y="323"/>
      <point x="129" y="323" type="curve"/>
      <point x="160" y="323"/>
      <point x="215" y="322"/>
      <point x="248" y="322" type="curve"/>
      <point x="247" y="368" type="line"/>
      <point x="219" y="367"/>
      <point x="168" y="365"/>
      <point x="134" y="366" type="curve"/>
      <point x="82" y="367"/>
      <point x="37" y="368"/>
      <point x="18" y="368" type="curve"/>
    </contour>
    <component base="D"/>
  </outline>
</glyph>
<glyph name="Thorn" format="2">
  <advance width="352"/>
  <unicode hex="00DE"/>
  <outline>
    <contour>
      <point x="120" y="141" type="line"/>
      <point x="258" y="141"/>
      <point x="333" y="191"/>
      <point x="333" y="347" type="curve" smooth="yes"/>
      <point x="333" y="504"/>
      <point x="282" y="563"/>
      <point x="185" y="563" type="curve" smooth="yes"/>
      <point x="164" y="563"/>
      <point x="129" y="563"/>
      <point x="110" y="562" type="curve"/>
      <point x="110" y="503" type="line"/>
      <point x="128" y="505"/>
      <point x="161" y="506"/>
      <point x="181" y="506" type="curve" smooth="yes"/>
      <point x="242" y="506"/>
      <point x="270" y="451"/>
      <point x="270" y="344" type="curve" smooth="yes"/>
      <point x="270" y="218"/>
      <point x="221" y="202"/>
      <point x="116" y="202" type="curve"/>
    </contour>
    <contour>
      <point x="62" y="0" type="curve"/>
      <point x="134" y="-3" type="line"/>
      <point x="132" y="103"/>
      <point x="130" y="274"/>
      <point x="130" y="359" type="curve" smooth="yes"/>
      <point x="130" y="456"/>
      <point x="133" y="637"/>
      <point x="136" y="703" type="curve"/>
      <point x="63" y="698" type="line"/>
      <point x="64" y="625"/>
      <point x="66" y="482"/>
      <point x="66" y="357" type="curve"/>
      <point x="66" y="232"/>
      <point x="64" y="80"/>
    </contour>
  </outline>
</glyph>
<glyph name="germandbls" format="2">
  <advance width="424"/>
  <unicode hex="00DF"/>
  <outline>
    <contour>
      <point x="61" y="-3" type="curve"/>
      <point x="131" y="0" type="line"/>
      <point x="128" y="55"/>
      <point x="124" y="167"/>
      <point x="124" y="271" type="curve"/>
      <point x="124" y="415"/>
      <point x="128" y="484"/>
      <point x="130" y="548" type="curve"/>
      <point x="132" y="617"/>
      <point x="168" y="647"/>
      <point x="219" y="647" type="curve"/>
      <point x="265" y="647"/>
      <point x="291" y="614"/>
      <point x="291" y="566" type="curve"/>
      <point x="291" y="498"/>
      <point x="205" y="451"/>
      <point x="205" y="374" type="curve"/>
      <point x="205" y="317"/>
      <point x="233" y="286"/>
      <point x="284" y="233" type="curve" smooth="yes"/>
      <point x="318" y="198"/>
      <point x="336" y="179"/>
      <point x="336" y="130" type="curve"/>
      <point x="336" y="79"/>
      <point x="289" y="52"/>
      <point x="215" y="52" type="curve"/>
      <point x="210" y="-1" type="line"/>
      <point x="331" y="-1"/>
      <point x="394" y="48"/>
      <point x="394" y="132" type="curve"/>
      <point x="394" y="202"/>
      <point x="356" y="234"/>
      <point x="325" y="270" type="curve" smooth="yes"/>
      <point x="299" y="301"/>
      <point x="262" y="325"/>
      <point x="262" y="374" type="curve"/>
      <point x="262" y="439"/>
      <point x="347" y="473"/>
      <point x="347" y="573" type="curve"/>
      <point x="347" y="631"/>
      <point x="308" y="701"/>
      <point x="218" y="701" type="curve"/>
      <point x="124" y="701"/>
      <point x="69" y="640"/>
      <point x="70" y="552" type="curve"/>
      <point x="70" y="461"/>
      <point x="69" y="416"/>
      <point x="69" y="270" type="curve"/>
      <point x="69" y="163"/>
      <point x="64" y="52"/>
    </contour>
  </outline>
</glyph>
<glyph name="ae" format="2">
  <advance width="489"/>
  <unicode hex="00E6"/>
  <anchor x="239" y="515" name="top"/>
  <outline>
    <contour>
      <point x="114" y="-10" type="curve" smooth="yes"/>
      <point x="169" y="-10"/>
      <point x="201" y="29"/>
      <point x="224" y="74" type="curve"/>
      <point x="236" y="25"/>
      <point x="268" y="-10"/>
      <point x="331" y="-10" type="curve" smooth="yes"/>
      <point x="421" y="-10"/>
      <point x="453" y="39"/>
      <point x="453" y="111" type="curve" smooth="yes"/>
      <point x="453" y="128"/>
      <point x="451" y="145"/>
      <point x="448" y="164" type="curve"/>
      <point x="392" y="164" type="line"/>
      <point x="395" y="149"/>
      <point x="397" y="133"/>
      <point x="397" y="117" type="curve" smooth="yes"/>
      <point x="397" y="78"/>
      <point x="384" y="42"/>
      <point x="337" y="42" type="curve" smooth="yes"/>
      <point x="291" y="42"/>
      <point x="276" y="71"/>
      <point x="271" y="118" type="curve" smooth="yes"/>
      <point x="267" y="150"/>
      <point x="265" y="194"/>
      <point x="265" y="238" type="curve"/>
      <point x="323" y="241"/>
      <point x="401" y="243"/>
      <point x="443" y="243" type="curve"/>
      <point x="446" y="276"/>
      <point x="450" y="315"/>
      <point x="450" y="353" type="curve" smooth="yes"/>
      <point x="450" y="441"/>
      <point x="430" y="524"/>
      <point x="339" y="524" type="curve" smooth="yes"/>
      <point x="296" y="524"/>
      <point x="263" y="501"/>
      <point x="241" y="455" type="curve"/>
      <point x="226" y="497"/>
      <point x="198" y="525"/>
      <point x="148" y="525" type="curve" smooth="yes"/>
      <point x="67" y="525"/>
      <point x="33" y="470"/>
      <point x="33" y="393" type="curve" smooth="yes"/>
      <point x="33" y="372"/>
      <point x="36" y="351"/>
      <point x="40" y="328" type="curve"/>
      <point x="93" y="331" type="line"/>
      <point x="89" y="350"/>
      <point x="87" y="371"/>
      <point x="87" y="391" type="curve" smooth="yes"/>
      <point x="87" y="436"/>
      <point x="100" y="477"/>
      <point x="146" y="477" type="curve" smooth="yes"/>
      <point x="192" y="477"/>
      <point x="208" y="453"/>
      <point x="207" y="371" type="curve" smooth="yes"/>
      <point x="206" y="320"/>
      <point x="169" y="290"/>
      <point x="128" y="258" type="curve" smooth="yes"/>
      <point x="78" y="219"/>
      <point x="23" y="179"/>
      <point x="23" y="96" type="curve" smooth="yes"/>
      <point x="23" y="33"/>
      <point x="51" y="-10"/>
    </contour>
    <contour>
      <point x="118" y="43" type="curve" smooth="yes"/>
      <point x="88" y="43"/>
      <point x="75" y="60"/>
      <point x="75" y="98" type="curve" smooth="yes"/>
      <point x="75" y="160"/>
      <point x="114" y="188"/>
      <point x="154" y="219" type="curve" smooth="yes"/>
      <point x="173" y="234"/>
      <point x="191" y="249"/>
      <point x="206" y="270" type="curve"/>
      <point x="206" y="253"/>
      <point x="206" y="236"/>
      <point x="206" y="219" type="curve" smooth="yes"/>
      <point x="206" y="113"/>
      <point x="175" y="43"/>
    </contour>
    <contour>
      <point x="265" y="294" type="line"/>
      <point x="266" y="323"/>
      <point x="267" y="352"/>
      <point x="269" y="376" type="curve" smooth="yes"/>
      <point x="273" y="427"/>
      <point x="289" y="468"/>
      <point x="336" y="468" type="curve" smooth="yes"/>
      <point x="380" y="468"/>
      <point x="392" y="425"/>
      <point x="392" y="363" type="curve" smooth="yes"/>
      <point x="392" y="342"/>
      <point x="391" y="320"/>
      <point x="389" y="296" type="curve"/>
    </contour>
  </outline>
</glyph>
<glyph name="eth" format="2">
  <advance width="370"/>
  <unicode hex="00F0"/>
  <outline>
    <contour>
      <point x="177" y="-10" type="curve" smooth="yes"/>
      <point x="293" y="-10"/>
      <point x="317" y="80"/>
      <point x="317" y="321" type="curve"/>
      <point x="317" y="613"/>
      <point x="222" y="674"/>
      <point x="144" y="715" type="curve"/>
      <point x="110" y="657" type="line"/>
      <point x="225" y="627"/>
      <point x="253" y="496"/>
      <point x="253" y="370" type="curve"/>
      <point x="254" y="297"/>
      <point x="253" y="270"/>
      <point x="253" y="243" type="curve"/>
      <point x="253" y="115"/>
      <point x="246" y="50"/>
      <point x="185" y="50" type="curve" smooth="yes"/>
      <point x="131" y="50"/>
      <point x="113" y="78"/>
      <point x="109" y="211" type="curve" smooth="yes"/>
      <point x="106" y="300"/>
      <point x="120" y="364"/>
      <point x="181" y="364" type="curve" smooth="yes"/>
      <point x="238" y="364"/>
      <point x="253" y="317"/>
      <point x="253" y="243" type="curve"/>
      <point x="277" y="352" type="line"/>
      <point x="263" y="379"/>
      <point x="256" y="425"/>
      <point x="179" y="425" type="curve" smooth="yes"/>
      <point x="80" y="425"/>
      <point x="46" y="342"/>
      <point x="46" y="203" type="curve" smooth="yes"/>
      <point x="46" y="40"/>
      <point x="98" y="-10"/>
    </contour>
    <contour>
      <point x="152" y="486" type="line"/>
      <point x="190" y="506"/>
      <point x="209" y="515"/>
      <point x="253" y="536" type="curve" smooth="yes"/>
      <point x="288" y="553"/>
      <point x="323" y="568"/>
      <point x="362" y="584" type="curve"/>
      <point x="333" y="640" type="line"/>
      <point x="296" y="620"/>
      <point x="273" y="609"/>
      <point x="233" y="589" type="curve" smooth="yes"/>
      <point x="191" y="568"/>
      <point x="166" y="560"/>
      <point x="129" y="545" type="curve"/>
    </contour>
  </outline>
</glyph>
<glyph name="oslash" format="2">
  <advance width="333"/>
  <unicode hex="00F8"/>
  <anchor x="167" y="515" name="top"/>
  <outline>
    <contour>
      <point x="162" y="-10" type="curve"/>
      <point x="237" y="-10"/>
      <point x="264" y="43"/>
      <point x="275" y="90" type="curve" smooth="yes"/>
      <point x="287" y="142"/>
      <point x="293" y="210"/>
      <point x="293" y="278" type="curve" smooth="yes"/>
      <point x="293" y="322"/>
      <point x="290" y="366"/>
      <point x="286" y="406" type="curve" smooth="yes"/>
      <point x="278" y="480"/>
      <point x="247" y="527"/>
      <point x="176" y="527" type="curve" smooth="yes"/>
      <point x="104" y="527"/>
      <point x="71" y="487"/>
      <point x="53" y="400" type="curve" smooth="yes"/>
      <point x="45" y="360"/>
      <point x="40" y="300"/>
      <point x="40" y="243" type="curve" smooth="yes"/>
      <point x="40" y="199"/>
      <point x="43" y="156"/>
      <point x="48" y="124" type="curve" smooth="yes"/>
      <point x="61" y="44"/>
      <point x="85" y="-10"/>
    </contour>
    <contour>
      <point x="164" y="47" type="curve"/>
      <point x="128" y="47"/>
      <point x="111" y="79"/>
      <point x="104" y="138" type="curve" smooth="yes"/>
      <point x="100" y="172"/>
      <point x="98" y="208"/>
      <point x="98" y="246" type="curve" smooth="yes"/>
      <point x="98" y="297"/>
      <point x="102" y="348"/>
      <point x="108" y="395" type="curve" smooth="yes"/>
      <point x="113" y="432"/>
      <point x="124" y="474"/>
      <point x="172" y="474" type="curve" smooth="yes"/>
      <point x="215" y="474"/>
      <point x="226" y="434"/>
      <point x="230" y="379" type="curve" smooth="yes"/>
      <point x="233" y="348"/>
      <point x="234" y="307"/>
      <point x="234" y="266" type="curve" smooth="yes"/>
      <point x="234" y="226"/>
      <point x="233" y="185"/>
      <point x="229" y="154" type="curve" smooth="yes"/>
      <point x="221" y="87"/>
      <point x="212" y="47"/>
    </contour>
    <contour>
      <point x="103" y="-60" type="line"/>
      <point x="122" y="21"/>
      <point x="155" y="156"/>
      <point x="176" y="230" type="curve"/>
      <point x="196" y="304"/>
      <point x="248" y="465"/>
      <point x="282" y="565" type="curve"/>
      <point x="233" y="580" type="line"/>
      <point x="213" y="501"/>
      <point x="175" y="356"/>
      <point x="144" y="247" type="curve"/>
      <point x="113" y="138"/>
      <point x="75" y="16"/>
      <point x="54" y="-46" type="curve"/>
    </contour>
  </outline>
</glyph>
<glyph name="thorn" format="2">
  <advance width="358"/>
  <unicode hex="00FE"/>
  <outline>
    <contour>
      <point x="58" y="-146" type="curve"/>
      <point x="126" y="-145" type="line"/>
      <point x="124" y="39" type="line"/>
      <point x="138" y="8"/>
      <point x="160" y="-12"/>
      <point x="197" y="-12" type="curve" smooth="yes"/>
      <point x="264" y="-12"/>
      <point x="294" y="33"/>
      <point x="307" y="97" type="curve" smooth="yes"/>
      <point x="317" y="143"/>
      <point x="318" y="198"/>
      <point x="318" y="254" type="curve" smooth="yes"/>
      <point x="318" y="309"/>
      <point x="318" y="366"/>
      <point x="309" y="414" type="curve" smooth="yes"/>
      <point x="298" y="475"/>
      <point x="271" y="520"/>
      <point x="210" y="520" type="curve" smooth="yes"/>
      <point x="168" y="520"/>
      <point x="142" y="497"/>
      <point x="125" y="462" type="curve"/>
      <point x="125" y="542"/>
      <point x="126" y="623"/>
      <point x="126" y="703" type="curve"/>
      <point x="59" y="701" type="line"/>
      <point x="66" y="535"/>
      <point x="67" y="296"/>
      <point x="67" y="191" type="curve" smooth="yes"/>
      <point x="67" y="100"/>
      <point x="62" y="-54"/>
    </contour>
    <contour>
      <point x="123" y="244" type="curve"/>
      <point x="123" y="286" type="line" smooth="yes"/>
      <point x="123" y="383"/>
      <point x="147" y="464"/>
      <point x="199" y="464" type="curve" smooth="yes"/>
      <point x="232" y="464"/>
      <point x="248" y="435"/>
      <point x="256" y="393" type="curve" smooth="yes"/>
      <point x="262" y="355"/>
      <point x="262" y="307"/>
      <point x="262" y="258" type="curve" smooth="yes"/>
      <point x="262" y="210"/>
      <point x="264" y="155"/>
      <point x="256" y="113" type="curve" smooth="yes"/>
      <point x="248" y="72"/>
      <point x="231" y="43"/>
      <point x="196" y="43" type="curve" smooth="yes"/>
      <point x="147" y="43"/>
      <point x="122" y="120"/>
    </contour>
  </outline>
</glyph>
<glyph name="idotless" format="2">
  <advance width="178"/>
  <unicode hex="0131"/>
  <anchor x="87" y="0" name="bottom"/>
  <anchor x="86" y="515" name="top"/>
  <outline>
    <contour>
      <point x="122" y="0" type="line"/>
      <point x="120" y="64"/>
      <point x="115" y="146"/>
      <point x="115" y="265" type="curve"/>
      <point x="115" y="386"/>
      <point x="117" y="464"/>
      <point x="119" y="517" type="curve"/>
      <point x="53" y="516" type="line"/>
      <point x="56" y="456"/>
      <point x="60" y="388"/>
      <point x="60" y="266" type="curve"/>
      <point x="61" y="145"/>
      <point x="56" y="64"/>
      <point x="53" y="1" type="curve"/>
    </contour>
  </outline>
</glyph>
<glyph name="kgreenlandic" format="2">
  <advance width="332"/>
  <unicode hex="0138"/>
  <outline>
    <contour>
      <point x="269" y="0" type="curve"/>
      <point x="345" y="3" type="line"/>
      <point x="277" y="103"/>
      <point x="225" y="183"/>
      <point x="167" y="277" type="curve"/>
      <point x="224" y="373"/>
      <point x="263" y="438"/>
      <point x="313" y="519" type="curve"/>
      <point x="248" y="521" type="line"/>
      <point x="207" y="445"/>
      <point x="173" y="384"/>
      <point x="103" y="269" type="curve"/>
      <point x="161" y="177"/>
      <point x="220" y="88"/>
    </contour>
    <contour>
      <point x="58" y="0" type="curve"/>
      <point x="126" y="1" type="line"/>
      <point x="123" y="58"/>
      <point x="119" y="172"/>
      <point x="119" y="279" type="curve"/>
      <point x="119" y="385"/>
      <point x="123" y="478"/>
      <point x="126" y="518" type="curve"/>
      <point x="61" y="520" type="line"/>
      <point x="62" y="477"/>
      <point x="64" y="382"/>
      <point x="64" y="277" type="curve"/>
      <point x="64" y="173"/>
      <point x="61" y="58"/>
    </contour>
  </outline>
</glyph>
<glyph name="lcaron" format="2">
  <advance width="244"/>
  <unicode hex="013E"/>
  <outline>
    <contour>
      <point x="58" y="2" type="curve"/>
      <point x="126" y="0" type="line"/>
      <point x="122" y="91"/>
      <point x="116" y="251"/>
      <point x="116" y="358" type="curve"/>
      <point x="116" y="465"/>
      <point x="122" y="615"/>
      <point x="126" y="698" type="curve"/>
      <point x="59" y="697" type="line"/>
      <point x="60" y="612"/>
      <point x="61" y="461"/>
      <point x="61" y="357" type="curve"/>
      <point x="61" y="223"/>
      <point x="57" y="44"/>
    </contour>
    <contour>
      <point x="217" y="493" type="line"/>
      <point x="238" y="527"/>
      <point x="250" y="578"/>
      <point x="250" y="615" type="curve"/>
      <point x="251" y="642"/>
      <point x="252" y="680"/>
      <point x="252" y="701" type="curve"/>
      <point x="183" y="695" type="line"/>
      <point x="187" y="609" type="line"/>
      <point x="216" y="608" type="line"/>
      <point x="217" y="578"/>
      <point x="205" y="535"/>
      <point x="189" y="507" type="curve"/>
    </contour>
  </outline>
</glyph>
<glyph name="ldot" format="2">
  <advance width="210"/>
  <unicode hex="0140"/>
  <outline>
    <contour>
      <point x="58" y="2" type="curve"/>
      <point x="126" y="0" type="line"/>
      <point x="126" y="0"/>
      <point x="116" y="212"/>
      <point x="116" y="358" type="curve"/>
      <point x="116" y="504"/>
      <point x="126" y="698"/>
      <point x="126" y="698" type="curve"/>
      <point x="59" y="697" type="line"/>
      <point x="59" y="697"/>
      <point x="61" y="500"/>
      <point x="61" y="357" type="curve"/>
      <point x="61" y="222"/>
      <point x="58" y="51"/>
    </contour>
    <contour>
      <point x="226" y="310" type="line"/>
      <point x="224" y="402" type="line"/>
      <point x="160" y="397" type="line"/>
      <point x="164" y="312" type="line"/>
    </contour>
  </outline>
</glyph>
<glyph name="napostrophe" format="2">
  <advance width="354"/>
  <unicode hex="0149"/>
  <outline>
    <contour>
      <point x="60" y="550" type="line"/>
      <point x="79" y="571"/>
      <point x="90" y="616"/>
      <point x="90" y="642" type="curve"/>
      <point x="91" y="682"/>
      <point x="93" y="730"/>
      <point x="93" y="730" type="curve"/>
      <point x="26" y="723" type="line"/>
      <point x="30" y="640" type="line"/>
      <point x="57" y="639" type="line"/>
      <point x="56" y="612"/>
      <point x="50" y="588"/>
      <point x="35" y="566" type="curve"/>
    </contour>
    <component base="n"/>
  </outline>
</glyph>
<glyph name="Eng" format="2">
  <advance width="421"/>
  <unicode hex="014A"/>
  <outline>
    <contour>
      <point x="245" y="-156" type="line"/>
      <point x="321" y="-156"/>
      <point x="357" y="-108"/>
      <point x="356" y="-17" type="curve" smooth="yes"/>
      <point x="355" y="116"/>
      <point x="354" y="250"/>
      <point x="353" y="383" type="curve" smooth="yes"/>
      <point x="352" y="508"/>
      <point x="356" y="646"/>
      <point x="359" y="715" type="curve"/>
      <point x="296" y="715" type="line"/>
      <point x="297" y="621"/>
      <point x="299" y="466"/>
      <point x="299" y="381" type="curve" smooth="yes"/>
      <point x="299" y="324"/>
      <point x="300" y="232"/>
      <point x="300" y="153" type="curve"/>
      <point x="287" y="204"/>
      <point x="265" y="277"/>
      <point x="241" y="369" type="curve" smooth="yes"/>
      <point x="207" y="498"/>
      <point x="170" y="636"/>
      <point x="152" y="704" type="curve"/>
      <point x="62" y="704" type="line"/>
      <point x="65" y="628"/>
      <point x="68" y="481"/>
      <point x="68" y="356" type="curve" smooth="yes"/>
      <point x="68" y="231"/>
      <point x="66" y="80"/>
      <point x="65" y="1" type="curve"/>
      <point x="125" y="0" type="line"/>
      <point x="124" y="102"/>
      <point x="122" y="269"/>
      <point x="122" y="354" type="curve" smooth="yes"/>
      <point x="122" y="433"/>
      <point x="121" y="513"/>
      <point x="121" y="592" type="curve"/>
      <point x="137" y="526"/>
      <point x="174" y="403"/>
      <point x="191" y="344" type="curve" smooth="yes"/>
      <point x="231" y="206"/>
      <point x="278" y="44"/>
      <point x="295" y="-13" type="curve"/>
      <point x="295" y="-80"/>
      <point x="282" y="-102"/>
      <point x="239" y="-102" type="curve"/>
    </contour>
  </outline>
</glyph>
<glyph name="eng" format="2">
  <advance width="349"/>
  <unicode hex="014B"/>
  <outline>
    <contour>
      <point x="180" y="-156" type="line"/>
      <point x="258" y="-156"/>
      <point x="295" y="-111"/>
      <point x="295" y="-20" type="curve" smooth="yes"/>
      <point x="295" y="71"/>
      <point x="296" y="74"/>
      <point x="296" y="220" type="curve" smooth="yes"/>
      <point x="296" y="402" type="line" smooth="yes"/>
      <point x="296" y="487"/>
      <point x="268" y="520"/>
      <point x="212" y="520" type="curve" smooth="yes"/>
      <point x="164" y="520"/>
      <point x="133" y="490"/>
      <point x="115" y="447" type="curve"/>
      <point x="115" y="471"/>
      <point x="116" y="495"/>
      <point x="116" y="519" type="curve"/>
      <point x="57" y="516" type="line"/>
      <point x="58" y="463"/>
      <point x="60" y="358"/>
      <point x="60" y="266" type="curve" smooth="yes"/>
      <point x="60" y="137"/>
      <point x="57" y="79"/>
      <point x="53" y="1" type="curve"/>
      <point x="118" y="1" type="line"/>
      <point x="115" y="77"/>
      <point x="114" y="165"/>
      <point x="115" y="290" type="curve" smooth="yes"/>
      <point x="115" y="411"/>
      <point x="161" y="465"/>
      <point x="199" y="465" type="curve" smooth="yes"/>
      <point x="229" y="465"/>
      <point x="241" y="449"/>
      <point x="241" y="390" type="curve" smooth="yes"/>
      <point x="241" y="219" type="line" smooth="yes"/>
      <point x="241" y="75"/>
      <point x="239" y="42"/>
      <point x="238" y="-23" type="curve" smooth="yes"/>
      <point x="237" y="-85"/>
      <point x="221" y="-110"/>
      <point x="178" y="-110" type="curve"/>
    </contour>
  </outline>
</glyph>
<glyph name="OE" format="2">
  <advance width="536"/>
  <unicode hex="0152"/>
  <outline>
    <contour>
      <point x="185" y="-5" type="curve" smooth="yes"/>
      <point x="249" y="-5"/>
      <point x="275" y="0"/>
      <point x="335" y="0" type="curve" smooth="yes"/>
      <point x="504" y="0" type="line"/>
      <point x="499" y="57" type="line"/>
      <point x="334" y="61" type="line"/>
      <point x="332" y="206" type="line"/>
      <point x="499" y="209" type="line"/>
      <point x="501" y="266" type="line"/>
      <point x="332" y="269" type="line"/>
      <point x="331" y="393" type="line" smooth="yes"/>
      <point x="331" y="466"/>
      <point x="332" y="566"/>
      <point x="333" y="629" type="curve"/>
      <point x="492" y="630" type="line"/>
      <point x="492" y="693" type="line"/>
      <point x="334" y="693" type="line" smooth="yes"/>
      <point x="282" y="693"/>
      <point x="238" y="703"/>
      <point x="200" y="703" type="curve" smooth="yes"/>
      <point x="43" y="703"/>
      <point x="42" y="548"/>
      <point x="42" y="357" type="curve" smooth="yes"/>
      <point x="42" y="148"/>
      <point x="38" y="-5"/>
    </contour>
    <contour>
      <point x="204" y="52" type="curve" smooth="yes"/>
      <point x="104" y="52"/>
      <point x="109" y="165"/>
      <point x="109" y="345" type="curve" smooth="yes"/>
      <point x="109" y="489"/>
      <point x="98" y="651"/>
      <point x="210" y="651" type="curve" smooth="yes"/>
      <point x="227" y="651"/>
      <point x="245" y="647"/>
      <point x="265" y="639" type="curve"/>
      <point x="266" y="586"/>
      <point x="267" y="496"/>
      <point x="267" y="391" type="curve" smooth="yes"/>
      <point x="266" y="282"/>
      <point x="265" y="172"/>
      <point x="264" y="63" type="curve"/>
      <point x="242" y="56"/>
      <point x="221" y="52"/>
    </contour>
  </outline>
</glyph>
<glyph name="oe" format="2">
  <advance width="517"/>
  <unicode hex="0153"/>
  <outline>
    <contour>
      <point x="162" y="-10" type="curve"/>
      <point x="237" y="-10"/>
      <point x="264" y="43"/>
      <point x="275" y="90" type="curve" smooth="yes"/>
      <point x="287" y="142"/>
      <point x="293" y="210"/>
      <point x="293" y="278" type="curve" smooth="yes"/>
      <point x="293" y="322"/>
      <point x="290" y="366"/>
      <point x="286" y="406" type="curve" smooth="yes"/>
      <point x="278" y="480"/>
      <point x="247" y="527"/>
      <point x="176" y="527" type="curve" smooth="yes"/>
      <point x="104" y="527"/>
      <point x="71" y="487"/>
      <point x="53" y="400" type="curve" smooth="yes"/>
      <point x="45" y="360"/>
      <point x="40" y="300"/>
      <point x="40" y="243" type="curve" smooth="yes"/>
      <point x="40" y="199"/>
      <point x="43" y="156"/>
      <point x="48" y="124" type="curve" smooth="yes"/>
      <point x="61" y="44"/>
      <point x="85" y="-10"/>
    </contour>
    <contour>
      <point x="164" y="47" type="curve"/>
      <point x="128" y="47"/>
      <point x="111" y="79"/>
      <point x="104" y="138" type="curve" smooth="yes"/>
      <point x="100" y="172"/>
      <point x="98" y="208"/>
      <point x="98" y="246" type="curve" smooth="yes"/>
      <point x="98" y="297"/>
      <point x="102" y="348"/>
      <point x="108" y="395" type="curve" smooth="yes"/>
      <point x="113" y="432"/>
      <point x="124" y="474"/>
      <point x="172" y="474" type="curve" smooth="yes"/>
      <point x="215" y="474"/>
      <point x="226" y="434"/>
      <point x="230" y="379" type="curve" smooth="yes"/>
      <point x="233" y="348"/>
      <point x="234" y="307"/>
      <point x="234" y="266" type="curve" smooth="yes"/>
      <point x="234" y="226"/>
      <point x="233" y="185"/>
      <point x="229" y="154" type="curve" smooth="yes"/>
      <point x="221" y="87"/>
      <point x="212" y="47"/>
    </contour>
    <contour>
      <point x="359" y="-12" type="curve"/>
      <point x="449" y="-12"/>
      <point x="481" y="38"/>
      <point x="481" y="111" type="curve" smooth="yes"/>
      <point x="481" y="128"/>
      <point x="479" y="145"/>
      <point x="476" y="164" type="curve"/>
      <point x="420" y="164" type="line"/>
      <point x="423" y="149"/>
      <point x="425" y="133"/>
      <point x="425" y="117" type="curve" smooth="yes"/>
      <point x="425" y="77"/>
      <point x="412" y="41"/>
      <point x="365" y="41" type="curve" smooth="yes"/>
      <point x="319" y="41"/>
      <point x="304" y="70"/>
      <point x="299" y="118" type="curve" smooth="yes"/>
      <point x="295" y="154"/>
      <point x="293" y="204"/>
      <point x="293" y="253" type="curve" smooth="yes"/>
      <point x="293" y="296"/>
      <point x="294" y="340"/>
      <point x="297" y="376" type="curve" smooth="yes"/>
      <point x="301" y="427"/>
      <point x="317" y="468"/>
      <point x="364" y="468" type="curve" smooth="yes"/>
      <point x="408" y="468"/>
      <point x="420" y="425"/>
      <point x="420" y="363" type="curve" smooth="yes"/>
      <point x="420" y="342"/>
      <point x="419" y="319"/>
      <point x="417" y="294" type="curve"/>
      <point x="471" y="243" type="line"/>
      <point x="474" y="276"/>
      <point x="478" y="315"/>
      <point x="478" y="353" type="curve" smooth="yes"/>
      <point x="478" y="441"/>
      <point x="458" y="524"/>
      <point x="367" y="524" type="curve" smooth="yes"/>
      <point x="294" y="524"/>
      <point x="249" y="478"/>
      <point x="240" y="378" type="curve" smooth="yes"/>
      <point x="236" y="335"/>
      <point x="234" y="293"/>
      <point x="234" y="254" type="curve" smooth="yes"/>
      <point x="234" y="191"/>
      <point x="239" y="135"/>
      <point x="246" y="90" type="curve" smooth="yes"/>
      <point x="257" y="17"/>
      <point x="293" y="-12"/>
    </contour>
    <contour>
      <point x="255" y="236" type="line"/>
      <point x="337" y="241"/>
      <point x="471" y="243"/>
      <point x="471" y="243" type="curve"/>
      <point x="471" y="296" type="line"/>
      <point x="254" y="294" type="line"/>
    </contour>
  </outline>
</glyph>
<glyph name="longs" format="2">
  <advance width="237"/>
  <unicode hex="017F"/>
  <outline>
    <contour>
      <point x="13" y="458" type="line"/>
      <point x="13" y="458"/>
      <point x="70" y="461"/>
      <point x="120" y="461" type="curve"/>
      <point x="122" y="515" type="line"/>
      <point x="73" y="515"/>
      <point x="17" y="517"/>
      <point x="17" y="517" type="curve"/>
    </contour>
    <contour>
      <point x="198" y="706" type="curve" smooth="yes"/>
      <point x="110" y="706"/>
      <point x="86" y="628"/>
      <point x="85" y="562" type="curve" smooth="yes"/>
      <point x="83" y="453"/>
      <point x="84" y="393"/>
      <point x="84" y="270" type="curve" smooth="yes"/>
      <point x="84" y="125"/>
      <point x="77" y="-3"/>
      <point x="77" y="-3" type="curve"/>
      <point x="146" y="0" type="line"/>
      <point x="146" y="0"/>
      <point x="140" y="128"/>
      <point x="140" y="272" type="curve" smooth="yes"/>
      <point x="140" y="361"/>
      <point x="141" y="440"/>
      <point x="146" y="573" type="curve" smooth="yes"/>
      <point x="148" y="626"/>
      <point x="165" y="657"/>
      <point x="198" y="657" type="curve" smooth="yes"/>
      <point x="228" y="657"/>
      <point x="245" y="643"/>
      <point x="241" y="590" type="curve"/>
      <point x="302" y="588" type="line"/>
      <point x="306" y="654"/>
      <point x="281" y="706"/>
    </contour>
  </outline>
</glyph>
<glyph name="Schwa" format="2">
  <advance width="367"/>
  <unicode hex="018F"/>
  <outline>
    <contour>
      <point x="168" y="-10" type="curve" smooth="yes"/>
      <point x="245" y="-10"/>
      <point x="284" y="33"/>
      <point x="304" y="100" type="curve" smooth="yes"/>
      <point x="324" y="167"/>
      <point x="325" y="257"/>
      <point x="325" y="351" type="curve" smooth="yes"/>
      <point x="325" y="448"/>
      <point x="325" y="526"/>
      <point x="314" y="583" type="curve" smooth="yes"/>
      <point x="299" y="661"/>
      <point x="263" y="701"/>
      <point x="176" y="701" type="curve"/>
      <point x="82" y="701"/>
      <point x="50" y="621"/>
      <point x="50" y="538" type="curve" smooth="yes"/>
      <point x="50" y="519"/>
      <point x="51" y="501"/>
      <point x="54" y="483" type="curve"/>
      <point x="114" y="485" type="line"/>
      <point x="113" y="499"/>
      <point x="112" y="517"/>
      <point x="112" y="535" type="curve" smooth="yes"/>
      <point x="112" y="586"/>
      <point x="121" y="642"/>
      <point x="174" y="642" type="curve" smooth="yes"/>
      <point x="227" y="642"/>
      <point x="248" y="609"/>
      <point x="256" y="546" type="curve" smooth="yes"/>
      <point x="262" y="494"/>
      <point x="260" y="421"/>
      <point x="260" y="331" type="curve" smooth="yes"/>
      <point x="260" y="260"/>
      <point x="259" y="180"/>
      <point x="243" y="124" type="curve" smooth="yes"/>
      <point x="231" y="79"/>
      <point x="209" y="49"/>
      <point x="170" y="49" type="curve" smooth="yes"/>
      <point x="119" y="49"/>
      <point x="105" y="107"/>
      <point x="105" y="177" type="curve" smooth="yes"/>
      <point x="105" y="230"/>
      <point x="113" y="291"/>
      <point x="119" y="339" type="curve"/>
      <point x="57" y="340" type="line"/>
      <point x="48" y="284"/>
      <point x="42" y="226"/>
      <point x="42" y="174" type="curve" smooth="yes"/>
      <point x="42" y="70"/>
      <point x="70" y="-10"/>
    </contour>
    <contour>
      <point x="74" y="281" type="line"/>
      <point x="271" y="283" type="line"/>
      <point x="270" y="346" type="line"/>
      <point x="188" y="341"/>
      <point x="68" y="339"/>
      <point x="68" y="339" type="curve"/>
    </contour>
  </outline>
</glyph>
